<svg xmlns="http://www.w3.org/2000/svg" xmlns:xlink="http://www.w3.org/1999/xlink" width="300" height="100" viewBox="0 0 79.375 26.458"><defs><linearGradient id="c"><stop offset="0" stop-color="#fcf44a"/><stop offset="1" stop-color="#fcf44a" stop-opacity="0"/></linearGradient><linearGradient id="b"><stop offset="0" stop-color="#80e5ff"/><stop offset="1" stop-color="#80e5ff" stop-opacity="0"/></linearGradient><linearGradient id="a"><stop offset="0" stop-color="#6f0"/><stop offset="1" stop-color="#71c837" stop-opacity="0"/></linearGradient><linearGradient gradientTransform="translate(5.926 1.374) scale(.08832)" xlink:href="#a" id="d" x1="111.406" y1="156.793" x2="136.546" y2="44.898" gradientUnits="userSpaceOnUse"/><linearGradient xlink:href="#b" id="e" x1="136.546" y1="174.381" x2="24.515" y2="212.119" gradientUnits="userSpaceOnUse" gradientTransform="translate(5.973 1.374) scale(.08832)"/><linearGradient gradientTransform="translate(5.926 1.374) scale(.08832)" xlink:href="#c" id="f" x1="167.192" y1="142.573" x2="238.72" y2="225.843" gradientUnits="userSpaceOnUse"/></defs><rect width="75.318" height="25.106" x="2.425" y=".588" ry="3.171" fill="#4d4d4d" paint-order="markers stroke fill"/><g style="line-height:1.25;-inkscape-font-specification:'Ubuntu Mono'"><path d="M41.826 4.988q-.41 0-.688.149-.28.149-.465.418-.177.26-.26.633-.075.362-.075.809 0 1.032.325 1.524.326.484.958.484.102 0 .223-.01.121-.009.224-.027V6.866h1.143V9.74q-.204.074-.641.167-.428.093-1.042.093-.54 0-.976-.186-.428-.195-.735-.567-.307-.381-.474-.94-.167-.567-.167-1.31 0-.735.195-1.293.195-.567.53-.948.335-.382.79-.568.456-.195.977-.195.334 0 .595.056.27.046.465.111.195.066.316.14l.195.112-.297.91q-.205-.13-.503-.232-.297-.102-.613-.102zm5.811 1.683q-.111-.028-.27-.056-.148-.028-.306-.046-.158-.028-.307-.037-.149-.01-.251-.01-.242 0-.474.028-.233.019-.475.084v3.245h-1.153V5.797q.456-.167.93-.27.484-.102 1.125-.102.093 0 .26.01.177.009.373.037.195.018.39.055.205.028.363.084zm2.92 2.389h.363q.176-.008.307-.027V8.029q-.112-.019-.27-.028-.158-.019-.288-.019-.177 0-.344.028-.168.019-.298.074-.12.056-.195.159-.075.102-.075.27 0 .297.224.427.223.12.576.12zm-.102-3.663q.54 0 .892.13.363.121.577.354.214.223.307.558.093.325.093.734v2.604q-.251.056-.744.13-.493.074-1.107.074-.418 0-.762-.074-.335-.074-.577-.242-.241-.176-.372-.446-.13-.28-.13-.679 0-.381.15-.642.148-.26.399-.418.251-.158.576-.223.326-.074.68-.074.446 0 .79.074v-.14q0-.325-.205-.539-.205-.223-.707-.223-.325 0-.632.046-.298.047-.483.112l-.159-.92q.214-.075.605-.13.39-.066.809-.066zm5.616 2.334q0-.586-.232-.958-.233-.38-.707-.38-.13 0-.279.018-.149.009-.251.018v2.4q.112.074.297.12.186.047.372.047.41 0 .605-.326.195-.334.195-.939zm1.162-.037q0 .502-.111.93-.112.418-.326.725-.213.298-.539.465-.325.167-.753.167-.437 0-.902-.214v1.646h-1.144V5.648q.316-.102.772-.167.465-.065.911-.065 1.014 0 1.553.613.54.614.54 1.665zm.577.037q0-.576.177-1.013.176-.437.465-.726.288-.297.66-.446.372-.149.762-.149.967 0 1.47.577.501.567.501 1.664 0 .112-.009.233 0 .12-.009.195h-2.836q0 .428.353.679.354.241.912.241.344 0 .65-.074.317-.074.53-.149l.159.977q-.298.102-.633.167-.334.074-.753.074-.558 0-1.004-.14-.437-.148-.753-.427-.307-.288-.475-.707-.167-.418-.167-.976zm2.929-.456q0-.176-.047-.334-.046-.168-.148-.298-.103-.13-.26-.204-.159-.084-.391-.084-.223 0-.39.074-.159.075-.27.205-.103.13-.168.297-.056.168-.074.344zM34.703 21.623q-1.218 0-1.86-.781-.641-.781-.641-2.222 0-.716.195-1.274t.54-.94q.353-.39.827-.585.483-.205 1.05-.205.307 0 .55.056.25.047.436.112t.307.14l.195.11-.297.912q-.214-.14-.52-.233-.298-.102-.689-.102-.27 0-.53.102-.251.093-.456.326-.195.223-.325.604-.12.382-.12.949 0 .985.334 1.515.344.521 1.116.521.446 0 .734-.102.298-.102.474-.205l.289.902q-.242.15-.66.28-.41.12-.949.12zm6.286-2.315q0 .52-.149.948-.149.419-.418.726-.27.306-.651.474-.372.167-.837.167-.465 0-.846-.167-.372-.168-.651-.474-.27-.307-.419-.726-.148-.427-.148-.948 0-.512.148-.93.158-.428.428-.725.28-.307.66-.465.382-.168.828-.168.456 0 .827.168.382.158.651.465.28.297.428.725.149.418.149.93zm-2.957.01q0 .585.205.948.213.362.678.362.447 0 .67-.362.232-.363.232-.949t-.214-.94q-.204-.362-.67-.362-.445 0-.678.363-.223.353-.223.94zm6.407-2.233q.362 0 .595.112.232.112.362.335.14.223.186.567.047.335.047.79v2.613h-.93v-2.668q0-.26-.037-.419-.028-.158-.084-.242-.046-.083-.12-.111-.066-.028-.14-.028-.084 0-.177.019-.093.009-.167.046.028.177.046.39.019.214.019.475v.874h-.93v-1.004q0-.447-.093-.623-.084-.177-.279-.177-.056 0-.14.01-.074.008-.148.027v3.431h-.93V17.3q.363-.102.716-.158.353-.056.623-.056.242 0 .428.066.195.055.334.195.158-.102.372-.177.214-.084.447-.084zm4.649 0q.363 0 .595.112.232.112.363.335.14.223.186.567.046.335.046.79v2.613h-.93v-2.668q0-.26-.037-.419-.028-.158-.084-.242-.046-.083-.12-.111-.066-.028-.14-.028-.084 0-.177.019-.093.009-.167.046.028.177.046.39.02.214.02.475v.874h-.93v-1.004q0-.447-.094-.623-.083-.177-.279-.177-.056 0-.14.01-.074.008-.148.027v3.431h-.93V17.3q.363-.102.716-.158.353-.056.623-.056.242 0 .428.066.195.055.335.195.158-.102.372-.177.213-.084.446-.084zm5.532 4.268q-.316.084-.771.168-.447.084-.977.084-.539 0-.883-.15-.344-.148-.549-.418-.195-.279-.27-.65-.074-.373-.074-.819v-2.436h1.144v2.287q0 .605.14.902.148.289.567.289.26 0 .52-.047v-3.431h1.154zm1.163-4.082q.307-.083.753-.158.456-.074.986-.074.52 0 .864.149.344.14.54.409.204.26.288.632.084.363.084.81v2.463h-1.144v-2.315q0-.614-.14-.883-.139-.27-.567-.27-.13 0-.26.01-.121.009-.26.027v3.431h-1.144zm6.704-1.394q0 .334-.214.53-.214.195-.511.195-.298 0-.512-.195-.204-.196-.204-.53 0-.344.204-.54.214-.195.512-.195.297 0 .511.195.214.196.214.54zm1.702 5.44q-.354.167-.67.222-.307.066-.567.066-.446 0-.753-.13-.298-.13-.484-.373-.176-.25-.25-.604-.075-.353-.075-.809V18.08h-1.21v-.948h2.353v2.706q0 .39.14.586.148.186.483.186.158 0 .38-.038.224-.046.503-.176zm1.636-3.237h-.995v-.948h.995v-1.097l1.144-.186v1.283h1.832v.948h-1.832v1.767q0 .242.046.39.047.15.13.233.084.084.205.112.121.028.27.028.158 0 .288-.01.14-.009.26-.028.13-.028.26-.074.14-.046.298-.12l.158.985q-.316.13-.688.186-.362.056-.706.056-.4 0-.707-.066-.307-.065-.52-.25-.215-.187-.326-.521-.112-.344-.112-.893zm7.709-.948q-.177.614-.344 1.209-.158.586-.335 1.153-.177.558-.381 1.097-.196.54-.428 1.05-.177.373-.353.642-.168.27-.382.437-.204.177-.465.26-.25.084-.595.084-.288 0-.53-.046-.232-.047-.39-.121l.214-.958q.186.084.325.112.149.037.316.037.335 0 .54-.223.204-.223.325-.53-.41-.818-.818-1.87-.41-1.06-.744-2.333h1.19q.084.344.186.735.112.39.232.78.121.391.252.772.139.372.279.698.093-.326.195-.698.102-.38.195-.762.093-.39.177-.781.093-.39.167-.744z" style="-inkscape-font-specification:'Ubuntu Mono Bold';text-align:center" aria-label="Grape Community" font-size="3.528" font-family="Ubuntu Mono" font-weight="700" text-anchor="middle"/></g><g style="line-height:1.25;-inkscape-font-specification:'Ubuntu Mono'"><path style="-inkscape-font-specification:'Ubuntu Mono Bold';text-align:center" d="M41.826 4.216q-.41 0-.688.15-.28.148-.465.417-.177.26-.26.633-.075.362-.075.809 0 1.032.325 1.525.326.483.958.483.102 0 .223-.01.121-.008.224-.027V6.095h1.143v2.873q-.204.074-.641.167-.428.093-1.042.093-.54 0-.976-.186-.428-.195-.735-.567-.307-.381-.474-.94-.167-.566-.167-1.31 0-.735.195-1.293.195-.567.53-.948t.79-.567q.456-.196.977-.196.334 0 .595.056.27.047.465.112t.316.14l.195.11-.297.912q-.205-.13-.503-.232-.297-.103-.613-.103zM47.637 5.9q-.111-.029-.27-.056-.148-.028-.306-.047-.158-.028-.307-.037-.149-.01-.251-.01-.242 0-.474.028-.233.019-.475.084v3.245h-1.153V5.025q.456-.167.93-.27.484-.102 1.125-.102.093 0 .26.01.177.009.373.037.195.018.39.056.205.027.363.083zm2.92 2.389h.363q.176-.01.307-.028V7.257q-.112-.019-.27-.028-.158-.019-.288-.019-.177 0-.344.028-.168.019-.298.075-.12.055-.195.158-.075.102-.075.27 0 .297.224.427.223.121.576.121zm-.102-3.664q.54 0 .892.13.363.121.577.354.214.223.307.558.093.325.093.734v2.604q-.251.056-.744.13-.493.075-1.107.075-.418 0-.762-.075-.335-.074-.577-.242-.241-.176-.372-.446-.13-.279-.13-.679 0-.38.15-.641.148-.26.399-.419.251-.158.576-.223.326-.074.68-.074.446 0 .79.074v-.14q0-.325-.205-.539-.205-.223-.707-.223-.325 0-.632.047-.298.046-.483.111l-.159-.92q.214-.075.605-.13.39-.066.809-.066zm5.616 2.335q0-.586-.232-.958-.233-.382-.707-.382-.13 0-.279.019-.149.01-.251.019v2.399q.112.074.298.12.185.047.371.047.41 0 .605-.325.195-.335.195-.94zm1.162-.038q0 .502-.111.93-.112.418-.326.725-.213.298-.539.465-.325.168-.753.168-.437 0-.902-.214v1.646h-1.144V4.876q.316-.102.772-.167.465-.065.911-.065 1.014 0 1.553.614.54.613.54 1.664zm.577.038q0-.577.177-1.014.176-.437.465-.725.288-.298.66-.447.372-.149.762-.149.967 0 1.47.577.502.567.502 1.664 0 .112-.01.233 0 .12-.009.195h-2.836q0 .428.353.679.354.242.912.242.344 0 .65-.075.317-.074.53-.149l.159.977q-.298.102-.633.167-.334.075-.753.075-.558 0-1.004-.14-.437-.149-.753-.428-.307-.288-.475-.706-.167-.419-.167-.977zm2.929-.456q0-.177-.047-.335-.046-.167-.148-.298-.103-.13-.26-.204-.159-.084-.391-.084-.223 0-.39.075-.159.074-.27.204-.103.13-.168.298-.056.167-.074.344zM34.703 20.851q-1.218 0-1.86-.78-.641-.782-.641-2.223 0-.716.195-1.274t.54-.94q.353-.39.827-.585.483-.205 1.05-.205.308 0 .55.056.25.047.436.112t.307.14l.195.11-.297.912q-.214-.14-.52-.232-.298-.103-.689-.103-.27 0-.53.103-.251.093-.456.325-.195.223-.325.605-.12.38-.12.948 0 .986.334 1.516.344.52 1.116.52.446 0 .734-.102.298-.102.474-.204l.289.902q-.242.148-.66.278-.41.121-.949.121zm6.286-2.315q0 .52-.149.948-.149.419-.418.726-.27.307-.651.474-.372.167-.837.167-.465 0-.846-.167-.372-.167-.651-.474-.27-.307-.419-.726-.148-.427-.148-.948 0-.511.148-.93.159-.428.428-.725.28-.307.66-.465.382-.167.828-.167.456 0 .827.167.382.158.651.465.28.297.428.725.149.419.149.93zm-2.957.01q0 .585.205.948.213.362.678.362.447 0 .67-.362.232-.363.232-.949 0-.585-.214-.939-.204-.362-.67-.362-.445 0-.678.362-.223.354-.223.94zm6.407-2.232q.362 0 .595.111.232.112.362.335.14.223.186.567.047.335.047.79v2.613h-.93v-2.668q0-.26-.037-.419-.028-.158-.084-.241-.046-.084-.12-.112-.066-.028-.14-.028-.084 0-.177.019-.093.009-.167.046.028.177.046.39.019.215.019.475v.874h-.93v-1.004q0-.447-.093-.623-.084-.177-.279-.177-.056 0-.14.01-.074.009-.148.027v3.431h-.93v-4.202q.363-.103.716-.159.353-.055.623-.055.242 0 .428.065.195.056.334.195.158-.102.372-.177.214-.083.447-.083zm4.649 0q.363 0 .595.111.232.112.363.335.14.223.186.567.046.335.046.79v2.613h-.93v-2.668q0-.26-.037-.419-.028-.158-.084-.241-.046-.084-.12-.112-.066-.028-.14-.028-.084 0-.177.019-.093.009-.167.046.028.177.046.39.02.215.02.475v.874h-.93v-1.004q0-.447-.094-.623-.083-.177-.279-.177-.056 0-.14.01-.074.009-.148.027v3.431h-.93v-4.202q.363-.103.716-.159.354-.055.623-.055.242 0 .428.065.195.056.335.195.158-.102.372-.177.213-.083.446-.083zm5.532 4.268q-.316.083-.771.167-.447.084-.977.084-.539 0-.883-.149t-.549-.418q-.195-.28-.27-.651-.074-.372-.074-.819V16.36h1.144v2.288q0 .604.14.902.148.288.567.288.26 0 .52-.047v-3.43h1.154zm1.163-4.082q.307-.084.753-.158.456-.075.986-.075.52 0 .864.149.344.14.54.41.204.26.288.631.084.363.084.81v2.463h-1.144v-2.315q0-.614-.14-.883-.139-.27-.567-.27-.13 0-.26.01-.121.009-.26.027v3.431h-1.144zm6.704-1.395q0 .335-.214.53t-.511.195q-.298 0-.512-.195-.204-.195-.204-.53 0-.344.204-.54.214-.195.512-.195.297 0 .511.196.214.195.214.539zm1.702 5.44q-.354.167-.67.223-.307.065-.567.065-.446 0-.753-.13-.298-.13-.484-.372-.176-.251-.25-.605-.075-.353-.075-.809V17.31h-1.21v-.949h2.353v2.706q0 .39.14.586.148.186.483.186.158 0 .38-.037.224-.047.503-.177zm1.636-3.236h-.995v-.949h.995v-1.097l1.144-.186v1.283h1.832v.949h-1.832v1.766q0 .242.046.39.047.15.13.233.084.084.205.112.121.028.27.028.158 0 .288-.01.14-.009.26-.027.13-.028.26-.075.14-.046.298-.12l.158.985q-.316.13-.688.186-.362.056-.706.056-.4 0-.707-.065-.307-.065-.52-.251-.215-.186-.326-.521-.112-.344-.112-.893zm7.709-.949q-.177.614-.344 1.209-.158.586-.335 1.153-.177.558-.381 1.097-.196.54-.428 1.05-.177.373-.353.643-.168.27-.382.437-.204.176-.465.26-.25.084-.595.084-.288 0-.53-.047-.232-.046-.39-.12l.214-.959q.186.084.325.112.149.037.316.037.335 0 .54-.223.204-.223.325-.53-.41-.818-.818-1.869-.41-1.06-.744-2.334h1.19q.084.344.186.735.112.39.233.78.12.391.25.773.14.372.28.697.093-.325.195-.697.102-.382.195-.763.093-.39.177-.781.093-.39.167-.744z" aria-label="Grape Community" font-size="3.528" font-family="Ubuntu Mono" fill="#fff" font-weight="700" text-anchor="middle"/></g><g stroke="#000" stroke-width=".065"><path d="M20.735 20.146l-2.775-4.77c-.282-.454.597-.84.848-.413l2.114 3.387c.167.266.563.039.43-.215l-2.355-4.029c-.301-.558.616-.974.91-.427l2.28 3.808c.12.224.611.074.48-.212l-1.974-3.309c-.256-.531.603-.95.931-.416l1.99 3.242c.11.224.508.117.434-.137l-1.384-2.498c-.221-.464.653-.762.932-.289l3.08 4.967c.669 1.057.504 3.206-1.689 3.21l-6.242.078c-.882-.033-.998-1.187.017-1.181l1.562-.012c.447.019.611-.468.41-.784z"/><path d="M20.735 20.146l-2.775-4.77c-.282-.454.597-.84.848-.413l2.114 3.387c.167.266.563.039.43-.215l-2.355-4.029c-.301-.558.616-.974.91-.427l2.28 3.808c.12.224.611.074.48-.212l-1.974-3.309c-.256-.531.603-.95.931-.416l1.99 3.242c.11.224.508.117.434-.137l-1.384-2.498c-.221-.464.653-.762.932-.289l3.08 4.967c.669 1.057.504 3.206-1.689 3.21l-6.242.078c-.882-.033-.998-1.187.017-1.181l1.562-.012c.447.019.611-.468.41-.784z"/><path d="M19.5 10.993l-3.024 4.634c-.278.455-1.067-.077-.797-.494l2.076-3.408c.162-.268-.242-.483-.41-.247L14.797 15.4c-.366.523-1.2-.026-.843-.538l2.383-3.751c.146-.21-.234-.54-.432-.291l-2.073 3.255c-.364.472-1.173-.028-.843-.56l2.004-3.235c.152-.2-.143-.476-.34-.29l-1.617 2.37c-.319.41-1.024-.162-.726-.624l3.054-4.982c.644-1.07 2.703-1.995 3.787-.193l3.15 5.094c.405.741-.6 1.405-1.095.568l-.782-1.278c-.203-.377-.731-.272-.924.048z"/><path d="M11.484 16.473l5.76.074c.556-.008.478.905-.04.9l-4.16.066c-.326.006-.313.444-.013.46l4.87.052c.661.029.592.987-.057.96l-4.63-.007c-.265-.01-.37.467-.042.5l4.02.01c.615.053.577.966-.076.972l-3.966.035c-.26-.02-.359.36-.088.425l2.981.095c.537.047.38.913-.194.909l-6.09.08c-1.303.028-3.2-1.168-2.12-2.972l3.007-5.17c.466-.709 1.585-.235 1.08.597l-.76 1.29c-.238.358.128.733.518.724z"/></g><g stroke="#000" stroke-width=".065"><path d="M21.529 19.734l-2.775-4.77c-.281-.455.598-.841.848-.413l2.114 3.387c.167.265.564.038.43-.216l-2.355-4.028c-.3-.558.616-.974.911-.428l2.278 3.809c.122.223.612.074.482-.212l-1.975-3.31c-.255-.53.603-.95.931-.416l1.99 3.242c.11.224.509.118.435-.137l-1.385-2.497c-.22-.465.654-.762.932-.29l3.08 4.967c.669 1.058.505 3.206-1.689 3.21l-6.242.079c-.882-.033-.998-1.187.017-1.182l1.563-.012c.446.02.61-.467.41-.783z" fill="#ff0"/><path d="M21.529 19.734l-2.775-4.77c-.281-.455.598-.841.848-.413l2.114 3.387c.167.265.564.038.43-.216l-2.355-4.028c-.3-.558.616-.974.911-.428l2.278 3.809c.122.223.612.074.482-.212l-1.975-3.31c-.255-.53.603-.95.931-.416l1.99 3.242c.11.224.509.118.435-.137l-1.385-2.497c-.22-.465.654-.762.932-.29l3.08 4.967c.669 1.058.505 3.206-1.689 3.21l-6.242.079c-.882-.033-.998-1.187.017-1.182l1.563-.012c.446.02.61-.467.41-.783z" fill="#fcba4a"/><path d="M20.294 10.581l-3.023 4.633c-.279.456-1.068-.077-.798-.494l2.076-3.407c.162-.269-.242-.483-.41-.248l-2.548 3.923c-.365.522-1.2-.026-.843-.539l2.383-3.75c.146-.21-.233-.54-.432-.292l-2.073 3.255c-.363.472-1.173-.027-.842-.56l2.003-3.235c.152-.2-.143-.475-.34-.29l-1.617 2.37c-.318.411-1.023-.161-.726-.624l3.054-4.981c.644-1.07 2.703-1.995 3.788-.193l3.15 5.093c.404.742-.6 1.406-1.096.569l-.782-1.279c-.203-.376-.731-.271-.924.049z" fill="#61b075"/><path d="M12.278 16.06l5.76.075c.557-.008.478.905-.04.9l-4.16.066c-.326.006-.313.444-.013.46l4.87.052c.662.028.592.987-.057.96l-4.63-.007c-.265-.01-.37.467-.042.5l4.02.01c.616.053.578.966-.076.971l-3.966.036c-.26-.02-.358.36-.088.425l2.982.094c.536.048.378.913-.194.91l-6.091.08c-1.303.027-3.2-1.168-2.12-2.973l3.008-5.17c.466-.708 1.585-.234 1.079.597l-.76 1.29c-.238.359.129.733.518.725z" fill="#59f"/><path d="M20.294 10.581l-3.023 4.633c-.279.456-1.068-.077-.798-.494l2.076-3.407c.162-.269-.242-.483-.41-.248l-2.548 3.923c-.365.522-1.2-.026-.843-.539l2.383-3.75c.146-.21-.233-.54-.432-.292l-2.073 3.255c-.363.472-1.173-.027-.842-.56l2.003-3.235c.152-.2-.143-.475-.34-.29l-1.617 2.37c-.318.411-1.023-.161-.726-.624l3.054-4.981c.644-1.07 2.703-1.995 3.788-.193l3.15 5.093c.404.742-.6 1.406-1.096.569l-.782-1.279c-.203-.376-.731-.271-.924.049z" fill="url(#d)"/><path d="M12.325 16.06l5.76.075c.556-.008.478.905-.04.9l-4.16.066c-.326.006-.313.444-.013.46l4.87.052c.661.028.592.987-.057.96l-4.63-.007c-.265-.01-.37.467-.042.5l4.02.01c.615.053.577.966-.076.971l-3.966.036c-.26-.02-.359.36-.088.425l2.981.094c.537.048.38.913-.193.91l-6.092.08c-1.302.027-3.199-1.168-2.12-2.973l3.008-5.17c.466-.708 1.585-.234 1.08.597l-.76 1.29c-.238.359.128.733.518.725z" fill="url(#e)"/><path d="M21.529 19.734l-2.775-4.77c-.281-.455.598-.841.848-.413l2.114 3.387c.167.265.564.038.43-.216l-2.355-4.028c-.3-.558.616-.974.911-.428l2.278 3.809c.122.223.612.074.482-.212l-1.975-3.31c-.255-.53.603-.95.931-.416l1.99 3.242c.11.224.509.118.435-.137l-1.385-2.497c-.22-.465.654-.762.932-.29l3.08 4.967c.669 1.058.505 3.206-1.689 3.21l-6.242.079c-.882-.033-.998-1.187.017-1.182l1.563-.012c.446.02.61-.467.41-.783z" fill="url(#f)"/></g></svg>