<svg xmlns="http://www.w3.org/2000/svg" xmlns:xlink="http://www.w3.org/1999/xlink" viewBox="0 0 79.375 26.458" height="100" width="300"><defs><linearGradient id="b"><stop offset="0" stop-color="#05c6ff"/><stop offset="1" stop-color="#1d93ff"/></linearGradient><linearGradient id="a"><stop offset="0" stop-color="#1e90ff"/><stop offset="1" stop-color="#00d2ff"/></linearGradient><linearGradient y2="506.952" x2="940.242" y1="204.914" x1="714.994" gradientTransform="translate(-18.707 1040.272) scale(.09133)" gradientUnits="userSpaceOnUse" id="c" xlink:href="#a"/><linearGradient y2="614.457" x2="1085.289" y1="500.126" x1="761.067" gradientTransform="translate(-18.707 1040.272) scale(.09133)" gradientUnits="userSpaceOnUse" id="d" xlink:href="#a"/><linearGradient y2="194.676" x2="725.232" y1="660.531" x1="1046.041" gradientTransform="translate(-18.707 1040.272) scale(.09133)" gradientUnits="userSpaceOnUse" id="e" xlink:href="#b"/></defs><rect ry="3.171" y=".588" x="2.425" height="25.106" width="75.318" fill="#4d4d4d" paint-order="markers stroke fill"/><path d="M11.317 5.757c-2.329 8.497 4.116 12.9 7.126 7.015-4.06.766-5.66-2.945-3.943-5.924z"/><path d="M11.328 12.87c.426 5.735 2.31 7.82 8.34 8.771l1.197-4.309c-3.55 1.499-5.12.73-5.84-1.475-2.48-.148-3.637-2.515-3.697-2.988z"/><path d="M21.196 17.243c5.345-5.247-3.9-10.338-9.8-11.698C26.906 7.22 31.161 18.431 22.52 21.352z" fill-rule="evenodd"/><g style="line-height:125%;-inkscape-font-specification:'Skia Thin'" font-weight="100" font-size="53.163" font-family="Skia" letter-spacing="0" word-spacing="0"><path d="M46.346 10.485l-.765-.005q-.673-.006-2.036-.006l-.017 1.839q-.005.627-.005 1.709 0 1.04.005 2.117l.017 1.425h-.94q.01-.355.016-1.449.012-1.094.012-2.14v-1.633q0-.609-.017-1.868-1.215-.006-1.974.006l-.827.005v-.822q.588 0 1.426.006.844.006 1.797.006 1.38 0 2.304-.006l1.004-.006v.822z"/><path d="M52.152 17.564h-.873v-.686l-.006-.006q-.399.272-.998.562-.593.283-1.169.283-.787 0-1.232-.485-.445-.484-.445-1.36 0-.473.006-1.123.011-.657.011-.952 0-.538-.017-1.325-.011-.792-.011-.893h.901l-.011.852q-.012.774-.012 1.236 0 .408.006 1.017t.006.863q.011.698.233 1.023.223.325.72.325.507 0 1.111-.283.61-.284.896-.497l.005-.65q.006-.586.006-1.455 0-.621-.017-1.485l-.011-.946h.9q0 .1-.01.668-.012.562-.012 1.922 0 .763.006 1.343l.017 2.052z" style="-inkscape-font-specification:'Skia Thin'"/><path d="M58.636 17.659h-.216q-.183.005-.291.005-1.078 0-1.688-.1-.61-.095-1.192-.384-.759-.379-1.152-1.006-.394-.627-.394-1.395 0-.9.44-1.591.438-.698 1.265-1.088.485-.237 1.112-.355.628-.124 1.232-.124l-.017-2.726h.901l-.011 1.656q-.011 1.537-.011 3.116 0 1.248.005 2.259.012 1.005.017 1.733zm-.884-4.158v-1.094q-.57 0-1.078.1-.501.101-.86.273-.571.272-.885.78-.313.503-.313 1.183 0 .61.302 1.047.302.438.753.686.393.219.884.331.496.106 1.038.106h.148l.006-.88q.005-.834.005-2.532z"/><path d="M61.745 10.432H60.74V9.415h1.004zm-.052 7.132h-.9q.005-.095.01-1.165.012-1.07.012-1.768 0-.61-.006-1.337 0-.733-.017-1.715h.901l-.022 1.597q-.006.74-.006 1.319 0 1.378.011 2.212l.017.857zm3.103 0h-.901q.006-.071.011-1.727.012-1.661.012-2.756 0-.703-.006-1.774 0-1.076-.017-2.412h.901q-.011.91-.017 2.11-.006 1.195-.006 2.017 0 1.792.012 3.135l.011 1.407z" style="-inkscape-font-specification:'Skia Thin'"/></g><path d="M46.552 1058.662c-6.945 24.443 12.278 37.114 21.257 20.182-12.108 2.202-16.88-8.475-11.76-17.045z" fill="url(#c)" transform="matrix(.33524 0 0 .3476 -5.343 -363.299)"/><path d="M46.584 1079.122c1.271 16.502 6.891 22.5 24.881 25.237l3.568-12.397c-10.59 4.311-15.272 2.098-17.418-4.243-7.402-.426-10.85-7.236-11.03-8.597z" fill="url(#d)" transform="matrix(.33524 0 0 .3476 -5.343 -363.299)"/><path d="M76.02 1091.706c15.945-15.096-11.63-29.742-29.23-33.654 46.262 4.816 58.957 37.072 33.179 45.474z" fill="url(#e)" fill-rule="evenodd" transform="matrix(.33524 0 0 .3476 -5.343 -363.299)"/><g style="line-height:125%;-inkscape-font-specification:'Skia Thin'" font-weight="100" font-size="53.163" font-family="Skia" letter-spacing="0" word-spacing="0" fill="#06c5ff"><path d="M45.292 9.413l-.765-.006q-.673-.005-2.036-.005l-.017 1.839q-.006.627-.006 1.709 0 1.04.006 2.117l.017 1.425h-.94q.01-.355.016-1.449.012-1.094.012-2.14V11.27q0-.609-.017-1.868-1.215-.006-1.974.005l-.827.006v-.822q.588 0 1.426.006.844.006 1.797.006 1.38 0 2.304-.006l1.004-.006v.822z" fill="#fff"/><path style="-inkscape-font-specification:'Skia Thin'" d="M51.098 16.492h-.873v-.686l-.006-.006q-.399.272-.998.561-.593.284-1.169.284-.787 0-1.232-.485-.445-.485-.445-1.36 0-.473.006-1.123.011-.657.011-.952 0-.539-.017-1.325-.011-.792-.011-.893h.901l-.011.852q-.012.774-.012 1.235 0 .409.006 1.018t.006.863q.011.698.233 1.023.223.325.719.325.508 0 1.112-.284.61-.283.896-.496l.005-.65q.006-.586.006-1.456 0-.62-.017-1.484l-.012-.946h.902q0 .1-.012.668-.011.562-.011 1.922 0 .763.005 1.343l.018 2.051z"/><path d="M57.582 16.586h-.216q-.183.006-.291.006-1.078 0-1.688-.1-.61-.095-1.192-.385-.759-.378-1.153-1.005-.393-.627-.393-1.395 0-.9.44-1.591.438-.698 1.265-1.088.485-.237 1.112-.355.628-.124 1.232-.124l-.017-2.726h.901l-.011 1.655q-.012 1.538-.012 3.117 0 1.248.006 2.259.012 1.005.017 1.732zm-.884-4.157v-1.094q-.57 0-1.078.1-.502.101-.86.273-.571.272-.885.78-.314.503-.314 1.183 0 .61.303 1.047.302.437.753.686.393.219.884.33.496.107 1.038.107h.148l.006-.88q.005-.835.005-2.532z" fill="#fff"/><path style="-inkscape-font-specification:'Skia Thin'" d="M60.69 9.36h-1.003V8.343h1.004zm-.05 7.132h-.902q.006-.095.012-1.165.011-1.07.011-1.768 0-.61-.006-1.337 0-.733-.017-1.715h.901q-.011.852-.023 1.597-.005.74-.005 1.319 0 1.378.011 2.211l.017.858zm3.102 0h-.901q.005-.071.011-1.727.012-1.662.012-2.756 0-.703-.006-1.774 0-1.076-.017-2.412h.9q-.01.91-.016 2.11-.006 1.195-.006 2.017 0 1.792.011 3.134l.012 1.408z"/></g></svg>