<svg xmlns="http://www.w3.org/2000/svg" xmlns:xlink="http://www.w3.org/1999/xlink" viewBox="0 0 79.375 26.458" height="100" width="300"><defs><linearGradient id="a"><stop offset="0"/><stop offset="1" stop-opacity="0"/></linearGradient><linearGradient y2="535.319" x2="612.372" y1="661.038" x1="914.503" gradientUnits="userSpaceOnUse" id="b" xlink:href="#a"/></defs><rect ry="3.171" y=".588" x="2.425" height="25.106" width="75.318" fill="#4d4d4d" paint-order="markers stroke fill"/><path d="M8.54 4.459v4.553h1.947V6.3h3.79v13.733h-2.895v1.84h2.95v.038h2.05v-.037h2.974v-1.841H16.46v-2.64c.415.471.928.826 1.539 1.064.657.249 1.44.373 2.348.373 1.507 0 2.73-.42 3.668-1.258.945-.838 1.418-1.94 1.418-3.306 0-1.367-.473-2.469-1.418-3.307-.938-.838-2.16-1.258-3.668-1.258-.908 0-1.691.127-2.348.38a3.845 3.845 0 00-1.54 1.057V6.3h3.817v2.712h1.947V4.459zm11.31 6.438c1.078 0 1.924.3 2.537.9.62.595-3.79 1.352-3.79 2.403 0 1.05 4.41 1.941 3.79 2.542-.613.595-1.459.892-2.537.892-1.079 0-1.928-.297-2.548-.892-.434-.425-.714-.962-.841-1.612v-1.728c.127-.649.407-1.184.84-1.605.621-.6 1.47-.9 2.549-.9z" style="line-height:125%" font-weight="400" font-size="180" font-family="sans-serif" letter-spacing="0" word-spacing="0"/><path style="line-height:125%;-inkscape-font-specification:'PT Mono'" d="M34.872 9.114h4.972v2.02h-.707V9.931H37.75v6.094h1.052v.817h-2.898v-.817h1.052V9.93H35.58v1.203h-.707zm5.982 7.728v-.74h1.291v-4.04h-1.29v-.74h1.787l.153.718h.048q.325-.343.727-.585.402-.243.956-.243.325 0 .517.143.2.144.306.42.114.276.153.673.038.386.038.883l-.67.011q0-.706-.124-1.037-.115-.332-.43-.332-.297 0-.536.1-.239.1-.42.243-.173.143-.297.287-.124.143-.182.242v3.257h1.836v.74h-3.863zm6.106 0v-.74h1.665v-4.04H46.96v-.74h2.429v4.78h1.626v.74zm1.407-7.088q0-.298.172-.507.172-.221.44-.221.277 0 .459.22.19.21.19.508 0 .288-.19.486-.182.199-.46.199-.267 0-.44-.199-.171-.198-.171-.486zm4.242 3.5c0-.066-.004-.15-.01-.254a5.887 5.887 0 00-.038-.673 2.967 2.967 0 00-.029-.287h-.64v-.718h1.271l.096.773h.048c.172-.258.389-.471.65-.64.268-.177.593-.265.975-.265.683 0 1.196.217 1.54.65.344.435.516 1.145.516 2.132 0 .463-.06.883-.181 1.258-.115.368-.28.68-.497.938a2.217 2.217 0 01-.785.596 2.41 2.41 0 01-1.013.21c-.134 0-.255-.007-.364-.022a1.705 1.705 0 01-.287-.044 1.555 1.555 0 01-.248-.066 3.19 3.19 0 01-.268-.11v2.318h-.736zm2.2-1.259c-.186.045-.374.04-.546.122a1.69 1.69 0 00-.45.32c-.127.133-.232.28-.315.442a1.432 1.432 0 00-.153.485v2.517c.14.11.296.199.469.265.182.068.49.099.698.089.918-.045 1.73-.563 1.831-1.256.306-.39-2.747-.425-2.266-1.019.314-.386 2.515-.448 2.196-.864.043-.63-.83-1.255-1.465-1.1zm3.571-2.804a4.23 4.23 0 01.785-.132c.28-.022.558-.033.832-.033.293 0 .59.033.89.1.305.065.583.187.831.364.249.176.45.419.603.728.159.31.239.703.239 1.181 0 .471-.074.869-.22 1.193a2.233 2.233 0 01-.584.794 2.27 2.27 0 01-.831.43 3.533 3.533 0 01-.966.133h-.393l-.229-.022a1.424 1.424 0 01-.162-.022v2.937h-.794zm1.636.63a10 10 0 00-.478.01 1.416 1.416 0 00-.363.056v3.201a.521.521 0 00.153.033c.07 0 .143.004.22.012h.372c.217 0 .43-.023.641-.067.217-.051.411-.14.583-.265.173-.125.31-.301.412-.53.108-.228-1.955-.412-1.955-.765 0-.302 2.066-.659 1.964-.857a1.2 1.2 0 00-.392-.486 1.445 1.445 0 00-.545-.265 2.491 2.491 0 00-.612-.077zm4.175 1.932q.411-.276.928-.398.516-.121 1.013-.121.488 0 .794.176.316.177.488.464.182.276.239.64.067.354.067.718 0 .42-.02.894-.018.475-.028.95 0 .551.057 1.048h.641v.718h-1.272l-.086-.828h-.048q-.057.1-.172.254-.114.154-.306.309-.181.143-.45.254-.267.11-.63.11-.708 0-1.12-.42-.41-.419-.41-1.147 0-.564.21-.939.22-.375.622-.574.401-.199.965-.232.574-.033 1.282.089.048-.508.01-.84-.03-.342-.154-.54-.114-.199-.334-.276-.21-.089-.526-.089-.43 0-.823.144-.392.132-.698.276l-.239-.64zm1.406 4.448q.268 0 .497-.099.23-.1.402-.254.172-.154.287-.331.114-.188.172-.353v-.773q-.497-.1-.918-.1-.421 0-.727.111-.306.1-.478.32-.172.221-.172.574 0 .365.21.64.22.265.727.265zm4.433-7.087h1.588v5.873q0 .674.19.95.202.275.584.275.268 0 .507-.11.249-.11.545-.375l.344.607q-.153.154-.334.276-.182.121-.373.21-.191.077-.383.121-.191.044-.354.044-.353 0-.63-.11-.278-.1-.47-.331-.181-.232-.277-.607-.095-.387-.095-.95V9.854h-.842z" font-weight="400" font-size="102.648" font-family="PT Mono" letter-spacing="0" word-spacing="0"/><path d="M68.358 491.013c3.185-54.195 16.301-110.663 36.104-155.442l5.015-11.338h205.299l-4.247 5.576c-2.336 3.067-9.093 11.761-15.017 19.32-29.984 38.264-50.668 92.037-53.406 138.842l-1.215 20.785H67.315z" fill="url(#b)" transform="matrix(.02105 0 0 .0199 3.767 2.504)"/><path style="line-height:125%" d="M7.762 3.93v4.552h1.947V5.771h3.79v13.733h-2.895v1.84h2.95v.038h2.05v-.037h2.974v-1.841h-2.895v-2.64c.415.47.928.826 1.539 1.064.657.248 1.44.373 2.348.373 1.507 0 2.73-.42 3.668-1.258.945-.838 1.418-1.94 1.418-3.307 0-1.366-.473-2.468-1.418-3.306-.938-.839-2.16-1.258-3.668-1.258-.908 0-1.691.127-2.348.38a3.845 3.845 0 00-1.54 1.057V5.771H19.5v2.711h1.947V3.93zm11.31 6.438c1.078 0 1.924.3 2.537.9.62.595-3.79 1.352-3.79 2.403 0 1.05 4.41 1.941 3.79 2.542-.613.595-1.459.892-2.537.892-1.079 0-1.928-.297-2.548-.892-.434-.425-.714-.963-.841-1.613v-1.727c.127-.649.407-1.184.84-1.605.621-.6 1.47-.9 2.549-.9z" font-weight="400" font-size="180" font-family="sans-serif" letter-spacing="0" word-spacing="0" fill="#56c2e1"/><g font-weight="400" font-size="102.648" font-family="PT Mono" letter-spacing="0" word-spacing="0"><path d="M34.094 8.585h4.972v2.02h-.707V9.402h-1.387v6.094h1.052v.817h-2.898v-.817h1.052V9.402h-1.377v1.203h-.707zm5.982 7.728v-.74h1.291v-4.04h-1.29v-.74h1.787l.153.717h.048q.325-.342.727-.585.401-.242.956-.242.325 0 .517.143.2.144.306.42.114.275.153.673.038.386.038.883l-.67.011q0-.706-.124-1.038-.115-.33-.43-.33-.297 0-.536.099-.239.099-.42.242-.173.144-.297.287-.124.144-.182.243v3.257h1.836v.74h-3.863zm6.107 0v-.74h1.664v-4.04h-1.664v-.74h2.429v4.78h1.625v.74zm1.406-7.088q0-.298.172-.507.172-.221.44-.221.277 0 .459.22.19.21.19.508 0 .287-.19.486-.182.199-.46.199-.267 0-.44-.199-.171-.199-.171-.486z" style="line-height:125%;-inkscape-font-specification:'PT Mono'" fill="#56c2e1"/><path d="M51.83 12.725a4.54 4.54 0 00-.009-.254 5.887 5.887 0 00-.038-.674 2.967 2.967 0 00-.029-.287h-.64v-.717h1.271l.096.773h.048c.172-.258.389-.471.65-.64.268-.177.593-.266.975-.266.683 0 1.196.218 1.54.652.344.434.516 1.144.516 2.13 0 .464-.06.883-.181 1.259a2.66 2.66 0 01-.498.938 2.217 2.217 0 01-.784.596 2.41 2.41 0 01-1.013.21c-.134 0-.255-.007-.364-.022a1.705 1.705 0 01-.287-.044 1.555 1.555 0 01-.248-.066 3.19 3.19 0 01-.268-.11v2.317h-.736zm2.2-1.259c-.185.045-.373.04-.545.122a1.69 1.69 0 00-.45.32c-.127.132-.232.28-.315.441a1.432 1.432 0 00-.153.486v2.517c.14.11.296.199.469.265.182.068.49.098.698.088.918-.044 1.73-.562 1.831-1.255.306-.39-2.747-.425-2.266-1.019.314-.387 2.515-.448 2.196-.864.043-.63-.83-1.255-1.465-1.1zm3.573-2.804a4.23 4.23 0 01.784-.132c.28-.022.558-.033.832-.033.293 0 .59.033.89.1.305.065.583.187.831.363.249.177.45.42.603.729.159.31.239.703.239 1.181 0 .471-.074.869-.22 1.192a2.233 2.233 0 01-.584.795 2.27 2.27 0 01-.832.43 3.533 3.533 0 01-.965.133h-.393l-.229-.022a1.424 1.424 0 01-.162-.022v2.937h-.794zm1.635.63a10 10 0 00-.478.01 1.416 1.416 0 00-.363.056v3.201a.521.521 0 00.153.033c.07 0 .143.004.22.011h.372c.217 0 .43-.022.641-.066.217-.051.411-.14.583-.265a1.28 1.28 0 00.412-.53c.108-.228-1.955-.412-1.955-.765 0-.302 2.066-.659 1.964-.858a1.2 1.2 0 00-.392-.485 1.445 1.445 0 00-.545-.265 2.491 2.491 0 00-.612-.077z" style="line-height:125%;-inkscape-font-specification:'PT Mono'" fill="#fff"/><path d="M63.413 11.223q.411-.276.928-.397.516-.121 1.013-.121.488 0 .794.176.316.177.488.464.181.276.239.64.067.353.067.718 0 .42-.02.894-.018.475-.028.95 0 .551.057 1.048h.641v.718H66.32l-.086-.828h-.048q-.057.099-.172.254-.115.154-.306.309-.181.143-.45.254-.267.11-.63.11-.708 0-1.12-.42-.41-.42-.41-1.148 0-.563.21-.938.22-.375.622-.574.401-.199.965-.232.574-.033 1.282.088.048-.507.01-.839-.03-.342-.154-.54-.114-.2-.334-.276-.21-.089-.526-.089-.43 0-.823.144-.392.132-.698.276l-.239-.64zm1.406 4.45q.268 0 .497-.1.23-.1.402-.254.172-.155.287-.331.114-.188.172-.353v-.773q-.497-.1-.918-.1-.421 0-.727.11-.306.1-.478.321-.172.22-.172.574 0 .364.21.64.22.265.727.265zm4.433-7.088h1.588v5.873q0 .673.19.95.202.275.584.275.268 0 .507-.11.249-.11.545-.375l.344.607q-.153.154-.334.276-.182.121-.373.21-.192.077-.383.12-.191.045-.354.045-.353 0-.63-.11-.278-.1-.47-.331-.181-.232-.277-.608-.095-.386-.095-.949V9.325h-.842z" style="line-height:125%;-inkscape-font-specification:'PT Mono'" fill="#56c2e1"/></g></svg>