<svg xmlns="http://www.w3.org/2000/svg" width="250" height="250"><g style="line-height:125%"><path d="M25.542 40.54v115.98h15.732q.976.651.976 2.387 0 1.41-1.085 2.279-.976.976-2.82.976H21.093q-5.317 0-5.317-7.812V42.492q0-3.363 1.628-5.424 1.627-2.17 3.689-2.17h18.335q1.845 0 2.821.976 1.085.868 1.085 2.279 0 .76-.217 1.41-.217.543-.434.76l-.325.217H25.542zm201.074 115.981V40.54H209.8q-.977-.651-.977-2.387 0-1.41.977-2.279 1.085-.976 2.929-.976h18.336q2.061 0 3.689 2.17 1.627 2.061 1.627 5.424v111.86q0 7.811-5.316 7.811h-17.251q-1.845 0-2.93-.976-.976-.868-.976-2.279 0-.76.217-1.41.217-.543.434-.76l.326-.217h15.731z" style="-inkscape-font-specification:SofiaRegular" font-weight="400" font-size="625" font-family="SofiaRegular" letter-spacing="0" word-spacing="0"/></g><g style="line-height:125%"><path d="M58.1 86.232q2.33 0 4.343.848 2.12.848 3.603 2.33 1.589 1.484 2.437 3.497.953 2.013.953 4.344 0 2.331-.953 4.344-.848 2.014-2.437 3.497-1.484 1.483-3.603 2.33-2.013.848-4.344.848-2.437 0-4.556-.847-2.013-.848-3.602-2.331-1.483-1.483-2.437-3.497-.848-2.013-.848-4.344 0-2.33.848-4.344.954-2.013 2.437-3.496 1.59-1.483 3.602-2.331 2.12-.848 4.556-.848zm45.77 0q2.332 0 4.345.848 2.119.848 3.602 2.33 1.59 1.484 2.437 3.497.954 2.013.954 4.344 0 2.331-.954 4.344-.847 2.014-2.437 3.497-1.483 1.483-3.602 2.33-2.013.848-4.344.848-2.437 0-4.556-.847-2.013-.848-3.603-2.331-1.483-1.483-2.436-3.497-.848-2.013-.848-4.344 0-2.33.848-4.344.953-2.013 2.436-3.496 1.59-1.483 3.603-2.331 2.119-.848 4.556-.848zm45.772 0q2.331 0 4.344.848 2.12.848 3.603 2.33 1.59 1.484 2.437 3.497.953 2.013.953 4.344 0 2.331-.953 4.344-.848 2.014-2.437 3.497-1.483 1.483-3.603 2.33-2.013.848-4.344.848-2.437 0-4.556-.847-2.013-.848-3.602-2.331-1.483-1.483-2.437-3.497-.847-2.013-.847-4.344 0-2.33.847-4.344.954-2.013 2.437-3.496 1.59-1.483 3.602-2.331 2.12-.848 4.556-.848zm45.772 0q2.33 0 4.344.848 2.12.848 3.602 2.33 1.59 1.484 2.437 3.497.954 2.013.954 4.344 0 2.331-.954 4.344-.847 2.014-2.437 3.497-1.483 1.483-3.602 2.33-2.013.848-4.344.848-2.437 0-4.556-.847-2.013-.848-3.602-2.331-1.484-1.483-2.437-3.497-.848-2.013-.848-4.344 0-2.33.848-4.344.953-2.013 2.437-3.496 1.589-1.483 3.602-2.331 2.12-.848 4.556-.848z" style="-inkscape-font-specification:'Telugu MN Light'" font-weight="300" font-size="1250" font-family="Telugu MN" letter-spacing="0" word-spacing="0"/></g><path d="M60.133 164.672c39.265 41.414 90.715 44.711 143.905.823-70.43 108.398-195.007-4.178-143.905-.823z" fill-rule="evenodd" stroke="#000"/><path d="M180.364 168.427l25.32-6.094-3.05 22.2c-6.042-9.196-8.337-17.672-22.27-16.106z" fill-rule="evenodd" stroke="#000"/><g style="line-height:125%"><path style="-inkscape-font-specification:SofiaRegular" d="M21.542 37.54v115.98h15.732q.976.651.976 2.387 0 1.41-1.085 2.279-.976.976-2.82.976H17.093q-5.317 0-5.317-7.812V39.492q0-3.363 1.628-5.424 1.627-2.17 3.689-2.17h18.335q1.845 0 2.821.976 1.085.868 1.085 2.279 0 .76-.217 1.41-.217.543-.434.76l-.325.217H21.542zm201.074 115.981V37.54H205.8q-.977-.651-.977-2.387 0-1.41.977-2.279 1.085-.976 2.929-.976h18.336q2.061 0 3.689 2.17 1.627 2.061 1.627 5.424v111.86q0 7.811-5.316 7.811h-17.251q-1.845 0-2.93-.976-.976-.868-.976-2.279 0-.76.217-1.41.217-.543.434-.76l.326-.217h15.731z" font-weight="400" font-size="625" font-family="SofiaRegular" letter-spacing="0" word-spacing="0" fill="#fff"/></g><g style="line-height:125%"><path style="-inkscape-font-specification:'Telugu MN Light'" d="M54.1 83.232q2.33 0 4.343.848 2.12.848 3.603 2.33 1.589 1.484 2.437 3.497.953 2.013.953 4.344 0 2.331-.953 4.344-.848 2.014-2.437 3.497-1.484 1.483-3.603 2.33-2.013.848-4.344.848-2.437 0-4.556-.847-2.013-.848-3.602-2.331-1.483-1.483-2.437-3.497-.848-2.013-.848-4.344 0-2.33.848-4.344.954-2.013 2.437-3.496 1.59-1.483 3.602-2.331 2.12-.848 4.556-.848zm45.77 0q2.332 0 4.345.848 2.119.848 3.602 2.33 1.59 1.484 2.437 3.497.954 2.013.954 4.344 0 2.331-.954 4.344-.847 2.014-2.437 3.497-1.483 1.483-3.602 2.33-2.013.848-4.344.848-2.437 0-4.556-.847-2.013-.848-3.603-2.331-1.483-1.483-2.436-3.497-.848-2.013-.848-4.344 0-2.33.848-4.344.953-2.013 2.436-3.496 1.59-1.483 3.603-2.331 2.119-.848 4.556-.848zm45.772 0q2.331 0 4.344.848 2.12.848 3.603 2.33 1.59 1.484 2.437 3.497.953 2.013.953 4.344 0 2.331-.953 4.344-.848 2.014-2.437 3.497-1.483 1.483-3.603 2.33-2.013.848-4.344.848-2.437 0-4.556-.847-2.013-.848-3.602-2.331-1.483-1.483-2.437-3.497-.847-2.013-.847-4.344 0-2.33.847-4.344.954-2.013 2.437-3.496 1.59-1.483 3.602-2.331 2.12-.848 4.556-.848zm45.772 0q2.33 0 4.344.848 2.12.848 3.602 2.33 1.59 1.484 2.437 3.497.954 2.013.954 4.344 0 2.331-.954 4.344-.847 2.014-2.437 3.497-1.483 1.483-3.602 2.33-2.013.848-4.344.848-2.437 0-4.556-.847-2.013-.848-3.602-2.331-1.484-1.483-2.437-3.497-.848-2.013-.848-4.344 0-2.33.848-4.344.953-2.013 2.437-3.496 1.589-1.483 3.602-2.331 2.12-.848 4.556-.848z" font-weight="300" font-size="1250" font-family="Telugu MN" letter-spacing="0" word-spacing="0" fill="#fff"/></g><path d="M56.492 161.672c39.265 41.414 90.715 44.711 143.905.823-70.43 108.398-195.007-4.178-143.905-.823z" fill="#fff" fill-rule="evenodd"/><path d="M176.723 165.427l25.319-6.094-3.05 22.2c-6.04-9.196-8.336-17.672-22.269-16.106z" fill="#fff" fill-rule="evenodd"/></svg>