<svg xmlns="http://www.w3.org/2000/svg" width="16" height="16"><g style="line-height:125%"><path d="M1.415 3.256v7.622h1.034q.064.043.064.157 0 .092-.072.15-.064.064-.185.064H1.122q-.349 0-.349-.514V3.384q0-.221.107-.357.107-.142.242-.142h1.205q.122 0 .186.064.071.057.071.15 0 .05-.014.092-.014.036-.029.05l-.021.015H1.415zm13.215 7.622V3.256h-1.106q-.064-.043-.064-.157 0-.093.064-.15.071-.064.193-.064h1.205q.135 0 .242.142.107.136.107.357v7.351q0 .514-.35.514h-1.133q-.121 0-.193-.065-.064-.057-.064-.15 0-.05.015-.092.014-.036.028-.05l.021-.014h1.034z" style="-inkscape-font-specification:SofiaRegular" font-weight="400" font-size="625" font-family="SofiaRegular" letter-spacing="0" word-spacing="0"/></g><g style="line-height:125%"><path d="M3.554 6.258q.154 0 .286.056.14.056.237.153.104.098.16.23.062.132.062.286 0 .153-.062.285-.056.132-.16.23-.098.097-.237.153-.132.056-.286.056-.16 0-.3-.056-.131-.056-.236-.153-.097-.098-.16-.23-.056-.132-.056-.285 0-.154.056-.286.063-.132.16-.23.105-.097.237-.153.14-.056.3-.056zm3.008 0q.154 0 .286.056.14.056.237.153.104.098.16.23.063.132.063.286 0 .153-.063.285-.056.132-.16.23-.098.097-.237.153-.132.056-.286.056-.16 0-.299-.056-.132-.056-.237-.153-.097-.098-.16-.23-.056-.132-.056-.285 0-.154.056-.286.063-.132.16-.23.105-.097.237-.153.14-.056.3-.056zm3.008 0q.154 0 .286.056.14.056.237.153.104.098.16.23.063.132.063.286 0 .153-.063.285-.056.132-.16.23-.098.097-.237.153-.132.056-.285.056-.16 0-.3-.056-.132-.056-.237-.153-.097-.098-.16-.23-.055-.132-.055-.285 0-.154.055-.286.063-.132.16-.23.105-.097.237-.153.14-.056.3-.056zm3.009 0q.153 0 .285.056.14.056.237.153.104.098.16.23.063.132.063.286 0 .153-.063.285-.056.132-.16.23-.098.097-.237.153-.132.056-.285.056-.16 0-.3-.056-.132-.056-.236-.153-.098-.098-.16-.23-.056-.132-.056-.285 0-.154.055-.286.063-.132.16-.23.105-.097.237-.153.14-.056.3-.056z" style="-inkscape-font-specification:'Telugu MN Light'" font-weight="300" font-size="1250" font-family="Telugu MN" letter-spacing="0" word-spacing="0"/></g><path d="M3.688 11.414c2.58 2.721 5.962 2.938 9.457.053-4.628 7.123-12.815-.275-9.457-.053z" fill-rule="evenodd"/><path d="M11.59 11.66l1.664-.4-.2 1.459c-.398-.605-.549-1.162-1.464-1.059z" fill-rule="evenodd"/></svg>