<?xml version="1.0" encoding="UTF-8" standalone="no"?>
<svg
   xmlns:osb="http://www.openswatchbook.org/uri/2009/osb"
   xmlns:dc="http://purl.org/dc/elements/1.1/"
   xmlns:cc="http://creativecommons.org/ns#"
   xmlns:rdf="http://www.w3.org/1999/02/22-rdf-syntax-ns#"
   xmlns:svg="http://www.w3.org/2000/svg"
   xmlns="http://www.w3.org/2000/svg"
   xmlns:xlink="http://www.w3.org/1999/xlink"
   xmlns:sodipodi="http://sodipodi.sourceforge.net/DTD/sodipodi-0.dtd"
   xmlns:inkscape="http://www.inkscape.org/namespaces/inkscape"
   inkscape:export-ydpi="96"
   inkscape:export-xdpi="96"
   inkscape:export-filename="/Applications/MAMP/htdocs/GrapeCommunity/app/GrapeCommunity/resources/splash.png"
   sodipodi:docname="app_gc_logo copy.svg"
   inkscape:version="1.0beta2 (2b71d25, 2019-12-03)"
   id="svg8"
   version="1.1"
   viewBox="0 0 79.375 26.458333"
   height="100"
   width="300">
  <defs
     id="defs2">
    <inkscape:perspective
       id="perspective2422"
       inkscape:persp3d-origin="135.46667 : -154.16389 : 1"
       inkscape:vp_z="270.93333 : -109.00833 : 1"
       inkscape:vp_y="0 : 1000 : 0"
       inkscape:vp_x="0 : -109.00833 : 1"
       sodipodi:type="inkscape:persp3d" />
    <linearGradient
       id="linearGradient7529"
       osb:paint="gradient">
      <stop
         style="stop-color:#00cdff;stop-opacity:0.99215686;"
         offset="0"
         id="stop7531" />
      <stop
         style="stop-color:#000000;stop-opacity:0;"
         offset="1"
         id="stop7533" />
    </linearGradient>
    <inkscape:perspective
       sodipodi:type="inkscape:persp3d"
       inkscape:vp_x="0 : 250 : 1"
       inkscape:vp_y="0 : 999.99999 : 0"
       inkscape:vp_z="1024 : 250 : 1"
       inkscape:persp3d-origin="511.99998 : 166.66667 : 1"
       id="perspective4220" />
    <inkscape:perspective
       sodipodi:type="inkscape:persp3d"
       inkscape:vp_x="0 : 250 : 1"
       inkscape:vp_y="0 : 999.99999 : 0"
       inkscape:vp_z="1024 : 250 : 1"
       inkscape:persp3d-origin="511.99998 : 166.66667 : 1"
       id="perspective4220-8" />
    <inkscape:perspective
       id="perspective4220-9"
       inkscape:persp3d-origin="512 : 166.66667 : 1"
       inkscape:vp_z="1024 : 250 : 1"
       inkscape:vp_y="0 : 1000 : 0"
       inkscape:vp_x="0 : 250 : 1"
       sodipodi:type="inkscape:persp3d" />
    <linearGradient
       id="linearGradient4163"
       osb:paint="solid">
      <stop
         style="stop-color:#ffffff;stop-opacity:1;"
         offset="0"
         id="stop4165" />
    </linearGradient>
    <linearGradient
       id="linearGradient4709">
      <stop
         id="stop4711"
         offset="0"
         style="stop-color:#05c6ff;stop-opacity:1" />
      <stop
         id="stop4713"
         offset="1"
         style="stop-color:#1d93ff;stop-opacity:1" />
    </linearGradient>
    <linearGradient
       id="linearGradient4693">
      <stop
         style="stop-color:#1e90ff;stop-opacity:1;"
         offset="0"
         id="stop4695" />
      <stop
         style="stop-color:#00d2ff;stop-opacity:1"
         offset="1"
         id="stop4697" />
    </linearGradient>
    <linearGradient
       xlink:href="#linearGradient4693"
       id="linearGradient4691"
       x1="714.99371"
       y1="204.91409"
       x2="940.24237"
       y2="506.95203"
       gradientUnits="userSpaceOnUse"
       gradientTransform="matrix(0.09133434,0,0,0.09133434,-18.70692,1040.2723)" />
    <linearGradient
       xlink:href="#linearGradient4693"
       id="linearGradient4699"
       x1="761.06732"
       y1="500.12631"
       x2="1085.2888"
       y2="614.45703"
       gradientUnits="userSpaceOnUse"
       gradientTransform="matrix(0.09133434,0,0,0.09133434,-18.70692,1040.2723)" />
    <linearGradient
       xlink:href="#linearGradient4709"
       id="linearGradient4707"
       x1="1046.041"
       y1="660.53064"
       x2="725.2323"
       y2="194.67552"
       gradientUnits="userSpaceOnUse"
       gradientTransform="matrix(0.09133434,0,0,0.09133434,-18.70692,1040.2723)" />
    <linearGradient
       y2="506.95203"
       x2="940.24237"
       y1="204.91409"
       x1="714.99371"
       gradientTransform="matrix(0.09133434,0,0,0.09133434,-18.70692,1040.2723)"
       gradientUnits="userSpaceOnUse"
       id="linearGradient1605"
       xlink:href="#linearGradient4693"
       inkscape:collect="always" />
    <linearGradient
       y2="614.45703"
       x2="1085.2888"
       y1="500.12631"
       x1="761.06732"
       gradientTransform="matrix(0.09133434,0,0,0.09133434,-18.70692,1040.2723)"
       gradientUnits="userSpaceOnUse"
       id="linearGradient1607"
       xlink:href="#linearGradient4693"
       inkscape:collect="always" />
    <linearGradient
       y2="194.67552"
       x2="725.2323"
       y1="660.53064"
       x1="1046.041"
       gradientTransform="matrix(0.09133434,0,0,0.09133434,-18.70692,1040.2723)"
       gradientUnits="userSpaceOnUse"
       id="linearGradient1609"
       xlink:href="#linearGradient4709"
       inkscape:collect="always" />
  </defs>
  <sodipodi:namedview
     units="px"
     inkscape:window-maximized="0"
     inkscape:window-y="23"
     inkscape:window-x="0"
     inkscape:window-height="706"
     inkscape:window-width="1280"
     showgrid="false"
     inkscape:document-rotation="0"
     inkscape:current-layer="layer5"
     inkscape:document-units="mm"
     inkscape:cy="49.583333"
     inkscape:cx="116.66667"
     inkscape:zoom="1.83"
     inkscape:pageshadow="2"
     inkscape:pageopacity="0.0"
     borderopacity="1.0"
     bordercolor="#666666"
     pagecolor="#ffffff"
     id="base"
     showguides="true"
     inkscape:guide-bbox="true">
    <sodipodi:guide
       position="-10.869369,136.42489"
       orientation="0,-1"
       id="guide1690" />
    <sodipodi:guide
       id="guide2258"
       orientation="1,0"
       position="136.54645,136.42489" />
    <sodipodi:guide
       position="375.26906,361.4074"
       orientation="0,-1"
       id="guide8065" />
    <sodipodi:guide
       position="360.85781,382.15961"
       orientation="1,0"
       id="guide8067" />
  </sodipodi:namedview>
  <metadata
     id="metadata5">
    <rdf:RDF>
      <cc:Work
         rdf:about="">
        <dc:format>image/svg+xml</dc:format>
        <dc:type
           rdf:resource="http://purl.org/dc/dcmitype/StillImage" />
        <dc:title />
      </cc:Work>
    </rdf:RDF>
  </metadata>
  <g
     inkscape:label="rectangle"
     id="layer5"
     inkscape:groupmode="layer"
     style="display:inline">
    <rect
       ry="3.1714463"
       y="0.58796358"
       x="2.4253471"
       height="25.106016"
       width="75.318054"
       id="rect2438"
       style="opacity:1;fill:#4d4d4d;fill-opacity:1;stroke:none;stroke-width:0;stroke-linecap:round;stroke-linejoin:round;stroke-miterlimit:4;stroke-dasharray:none;paint-order:markers stroke fill" />
    <g
       style="fill:#000000"
       transform="matrix(0.34562445,0,0,0.34562445,9.8409782,4.7492565)"
       id="g1531">
      <g
         inkscape:label="Layer 1"
         id="layer1-80"
         transform="translate(0,-1002.3622)"
         style="display:inline;fill:#000000" />
      <g
         style="fill:#000000"
         id="layer13"
         inkscape:label="Layer 3"
         transform="translate(0,-481.49606)" />
      <g
         style="fill:#000000"
         id="layer12"
         inkscape:label="Layer 2"
         transform="translate(0,-481.49606)">
        <g
           style="fill:#000000"
           id="g4330"
           transform="translate(-15.259263,385.50597)">
          <g
             style="display:inline;fill:#000000"
             transform="translate(0,-902.36219)"
             id="layer1-5"
             inkscape:label="Layer 1" />
          <g
             style="fill:#000000"
             transform="translate(0,-381.49605)"
             inkscape:label="Layer 3"
             id="layer13-9" />
          <g
             style="fill:#000000"
             transform="translate(0,-381.49605)"
             inkscape:label="Layer 2"
             id="layer12-4">
            <text
               id="text4192"
               y="445.44955"
               x="141.29741"
               style="font-style:normal;font-weight:normal;line-height:0%;font-family:sans-serif;letter-spacing:0px;word-spacing:0px;fill:#000000;fill-opacity:1;stroke:none;stroke-width:1px;stroke-linecap:butt;stroke-linejoin:miter;stroke-opacity:1"
               xml:space="preserve"><tspan
                 y="445.44955"
                 x="141.29741"
                 id="tspan4194"
                 sodipodi:role="line"
                 style="font-size:40px;line-height:1.25;fill:#000000"> </tspan></text>
            <g
               style="fill:#000000"
               transform="matrix(0.81052393,0,0,0.84039537,15.233599,410.71796)"
               id="g4409">
              <g
                 inkscape:label="Layer 1"
                 id="layer1-89"
                 transform="translate(0,-977.3622)"
                 style="display:inline;fill:#000000">
                <flowRoot
                   xml:space="preserve"
                   id="flowRoot4136"
                   style="font-style:normal;font-weight:normal;line-height:0.01%;font-family:sans-serif;letter-spacing:0px;word-spacing:0px;fill:#000000;fill-opacity:1;stroke:none;stroke-width:1px;stroke-linecap:butt;stroke-linejoin:miter;stroke-opacity:1"><flowRegion
                     style="fill:#000000"
                     id="flowRegion4138"><rect
                       style="fill:#000000"
                       id="rect4140"
                       width="300"
                       height="385.71429"
                       x="154.28572"
                       y="243.79077" /></flowRegion><flowPara
                     id="flowPara4142"
                     style="font-size:180px;line-height:1.25;fill:#000000">tudil</flowPara></flowRoot>
                <g
                   style="font-style:normal;font-weight:normal;font-size:180px;line-height:125%;font-family:sans-serif;letter-spacing:0px;word-spacing:0px;fill:#000000;fill-opacity:1;stroke:none;stroke-width:0;stroke-linecap:butt;stroke-linejoin:miter;stroke-miterlimit:4;stroke-dasharray:none;stroke-opacity:1"
                   id="text4148"
                   transform="matrix(0.26975635,0,0,0.24170938,-50.010025,879.94313)" />
                <g
                   id="g4392"
                   transform="matrix(1.1966949,0,0,1.1966949,-46.389368,961.44007)"
                   style="display:inline;fill:#000000">
                  <g
                     id="layer3-4"
                     style="display:inline;fill:#000000"
                     transform="translate(0,-974)">
                    <path
                       style="fill:#000000;fill-rule:evenodd;stroke:#000000;stroke-width:1.01248999999999989px;stroke-linecap:butt;stroke-linejoin:miter;stroke-opacity:1"
                       d="M 142.08574,997.92222 Z"
                       id="path4652"
                       inkscape:connector-curvature="0" />
                    <g
                       style="font-style:normal;font-variant:normal;font-weight:100;font-stretch:normal;font-size:53.16340000000000288px;line-height:125%;font-family:Skia;-inkscape-font-specification:'Skia Thin';letter-spacing:0px;word-spacing:0px;fill:#000000;fill-opacity:1;stroke:none;stroke-width:1px;stroke-linecap:butt;stroke-linejoin:miter;stroke-opacity:1"
                       id="text4562" />
                  </g>
                  <g
                     style="display:inline;fill:#000000"
                     inkscape:label="Layer 1"
                     id="layer1-8" />
                </g>
              </g>
              <g
                 id="layer2-6"
                 inkscape:label="back"
                 style="display:inline;fill:#000000"
                 transform="translate(0,25)">
                <g
                   style="fill:#000000"
                   transform="matrix(1.1966949,0,0,1.1966949,-50.408769,-43.395604)"
                   id="g4165">
                  <g
                     transform="translate(0,-974)"
                     style="display:inline;fill:#000000"
                     id="g4167">
                    <path
                       inkscape:connector-curvature="0"
                       id="path4169"
                       d="M 142.08574,997.92222 Z"
                       style="fill:#000000;fill-rule:evenodd;stroke:#000000;stroke-width:1.01248999999999989px;stroke-linecap:butt;stroke-linejoin:miter;stroke-opacity:1" />
                    <path
                       inkscape:connector-curvature="0"
                       id="path4171"
                       d="m 46.552104,1058.6617 c -6.945476,24.4435 12.278358,37.1141 21.257349,20.1818 -12.108654,2.2029 -16.881189,-8.4746 -11.760641,-17.0449 z"
                       style="opacity:1;fill:#000000;fill-opacity:1;stroke:#000000;stroke-width:0;stroke-linecap:round;stroke-linejoin:round;stroke-miterlimit:4;stroke-dasharray:none;stroke-dashoffset:0;stroke-opacity:1" />
                    <path
                       inkscape:connector-curvature="0"
                       style="opacity:1;fill:#000000;fill-opacity:1;stroke:#000000;stroke-width:0;stroke-linecap:round;stroke-linejoin:round;stroke-miterlimit:4;stroke-dasharray:none;stroke-dashoffset:0;stroke-opacity:1"
                       d="m 46.584244,1079.1221 c 1.270872,16.5022 6.890997,22.5006 24.880871,25.2365 l 3.568254,-12.3969 c -10.589847,4.3116 -15.272513,2.0982 -17.418697,-4.2431 -7.40129,-0.4259 -10.84902,-7.2353 -11.030428,-8.5965 z"
                       id="path4173" />
                    <path
                       inkscape:connector-curvature="0"
                       id="path4175"
                       d="m 76.02045,1091.7062 c 15.944883,-15.0965 -11.630475,-29.7422 -29.231113,-33.6538 46.262547,4.8152 58.957973,37.0717 33.179212,45.4739 z"
                       style="fill:#000000;fill-opacity:1;fill-rule:evenodd;stroke:#000000;stroke-width:0;stroke-linecap:butt;stroke-linejoin:miter;stroke-miterlimit:4;stroke-dasharray:none;stroke-opacity:1" />
                    <g
                       style="font-style:normal;font-variant:normal;font-weight:100;font-stretch:normal;font-size:53.16340000000000288px;line-height:125%;font-family:Skia;-inkscape-font-specification:'Skia Thin';letter-spacing:0px;word-spacing:0px;fill:#000000;fill-opacity:1;stroke:none;stroke-width:1px;stroke-linecap:butt;stroke-linejoin:miter;stroke-opacity:1"
                       id="text4177">
                      <path
                         d="m 151.04164,1072.2647 q -0.2722,0 -2.27971,-0.017 -2.00751,-0.017 -6.07355,-0.017 -0.034,3.4877 -0.0511,5.291 -0.017,1.8034 -0.017,4.9168 0,2.9941 0.017,6.0905 0.034,3.0793 0.0511,4.1001 h -2.80711 q 0.034,-1.0208 0.0511,-4.1682 0.0341,-3.1473 0.0341,-6.1585 0,-2.9603 0,-4.6956 0,-1.7524 -0.0511,-5.3761 -3.62372,-0.017 -5.88641,0.017 -2.24569,0.017 -2.46685,0.017 v -2.3649 q 1.75231,0 4.25319,0.017 2.51788,0.017 5.35902,0.017 4.11708,0 6.87315,-0.017 2.77308,-0.017 2.99425,-0.017 v 2.3649 z"
                         style="fill:#000000"
                         id="path4180"
                         inkscape:connector-curvature="0" />
                      <path
                         d="m 168.36063,1092.6289 h -2.60295 v -1.9735 l -0.017,-0.018 q -1.1909,0.7827 -2.97725,1.6162 -1.76932,0.8167 -3.4876,0.8167 -2.34777,0 -3.67476,-1.3951 -1.327,-1.395 -1.327,-3.9129 0,-1.3611 0.017,-3.2325 0.0341,-1.8884 0.0341,-2.739 0,-1.5482 -0.0511,-3.8108 -0.034,-2.2798 -0.034,-2.569 h 2.68802 q 0,0.2212 -0.0341,2.4499 -0.034,2.2286 -0.034,3.5556 0,1.1739 0.017,2.9262 0.017,1.7523 0.017,2.4839 0.0341,2.0075 0.69753,2.9432 0.6635,0.9357 2.1436,0.9357 1.51414,0 3.31749,-0.8166 1.82037,-0.8166 2.67101,-1.4291 0,-0.2042 0.017,-1.8714 0.017,-1.6843 0.017,-4.1852 0,-1.7863 -0.0511,-4.2702 -0.034,-2.5008 -0.034,-2.722 h 2.68802 q 0,0.2892 -0.0341,1.9224 -0.0341,1.6162 -0.0341,5.5292 0,2.1947 0.017,3.8619 0.017,1.6502 0.0511,5.9034 z"
                         style="font-style:normal;font-variant:normal;font-weight:100;font-stretch:normal;font-family:Skia;-inkscape-font-specification:'Skia Thin';fill:#000000;fill-opacity:1"
                         id="path4182"
                         inkscape:connector-curvature="0" />
                      <path
                         d="m 187.70414,1092.9011 q -0.10207,0 -0.64649,0 -0.54441,0.017 -0.86765,0.017 -3.21541,0 -5.03577,-0.2891 -1.82037,-0.2723 -3.55567,-1.1059 -2.2627,-1.0887 -3.43658,-2.8922 -1.17388,-1.8033 -1.17388,-4.015 0,-2.5859 1.30998,-4.5764 1.30999,-2.0075 3.77683,-3.1303 1.44609,-0.6806 3.3175,-1.0208 1.8714,-0.3573 3.67475,-0.3573 l -0.0511,-7.8428 h 2.68801 q 0,0.3401 -0.0341,4.7635 -0.034,4.4234 -0.034,8.9657 0,3.5897 0.017,6.499 0.0341,2.8921 0.0511,4.9847 z m -2.63698,-11.96 q 0,-0.6805 0,-1.4971 0,-0.8166 0,-1.6503 -1.70127,0 -3.21541,0.2892 -1.49712,0.2893 -2.56893,0.7826 -1.70127,0.7826 -2.63697,2.2458 -0.93571,1.4461 -0.93571,3.4025 0,1.7524 0.90167,3.0113 0.90168,1.259 2.24569,1.9734 1.17388,0.6295 2.63698,0.9527 1.48011,0.3063 3.09632,0.3063 0.11909,0 0.22117,0 0.10207,0 0.22116,0 0,-0.1531 0.017,-2.5349 0.017,-2.3988 0.017,-7.2815 z"
                         style="fill:#000000"
                         id="path4184"
                         inkscape:connector-curvature="0" />
                      <path
                         d="m 196.97609,1072.1114 h -2.99425 v -2.9261 h 2.99425 z m -0.15312,20.5175 h -2.68801 q 0.017,-0.2722 0.034,-3.3515 0.0341,-3.0793 0.0341,-5.0868 0,-1.7523 -0.017,-3.845 0,-2.1095 -0.0511,-4.9336 h 2.68801 q -0.034,2.4498 -0.068,4.5934 -0.017,2.1266 -0.017,3.7939 0,3.9639 0.0341,6.3628 0.0511,2.3988 0.0511,2.4668 z"
                         style="font-style:normal;font-variant:normal;font-weight:100;font-stretch:normal;font-family:Skia;-inkscape-font-specification:'Skia Thin';fill:#000000;fill-opacity:1"
                         id="path4186"
                         inkscape:connector-curvature="0" />
                      <path
                         d="m 206.07791,1092.6289 h -2.68801 q 0.017,-0.2042 0.0341,-4.9677 0.034,-4.7806 0.034,-7.928 0,-2.0245 -0.017,-5.1039 0,-3.0963 -0.0511,-6.9411 h 2.68801 q -0.034,2.62 -0.0511,6.0735 -0.017,3.4366 -0.017,5.8014 0,5.1548 0.0341,9.0168 0.034,3.8619 0.034,4.049 z"
                         style="font-style:normal;font-variant:normal;font-weight:100;font-stretch:normal;font-family:Skia;-inkscape-font-specification:'Skia Thin';fill:#000000;fill-opacity:1"
                         id="path4188"
                         inkscape:connector-curvature="0" />
                    </g>
                  </g>
                  <g
                     id="g4185"
                     inkscape:label="Layer 1"
                     style="display:inline;fill:#000000" />
                </g>
              </g>
            </g>
          </g>
        </g>
      </g>
    </g>
    <g
       id="g1603"
       transform="matrix(0.34562445,0,0,0.34562445,8.7868751,3.6771354)">
      <g
         style="display:inline"
         transform="translate(0,-1002.3622)"
         id="g1533"
         inkscape:label="Layer 1" />
      <g
         transform="translate(0,-481.49606)"
         inkscape:label="Layer 3"
         id="g1535" />
      <g
         transform="translate(0,-481.49606)"
         inkscape:label="Layer 2"
         id="g1601">
        <g
           transform="translate(-15.259263,385.50597)"
           id="g1599">
          <g
             inkscape:label="Layer 1"
             id="g1537"
             transform="translate(0,-902.36219)"
             style="display:inline" />
          <g
             id="g1539"
             inkscape:label="Layer 3"
             transform="translate(0,-381.49605)" />
          <g
             id="g1597"
             inkscape:label="Layer 2"
             transform="translate(0,-381.49605)">
            <text
               xml:space="preserve"
               style="font-style:normal;font-weight:normal;line-height:0%;font-family:sans-serif;letter-spacing:0px;word-spacing:0px;fill:#000000;fill-opacity:1;stroke:none;stroke-width:1px;stroke-linecap:butt;stroke-linejoin:miter;stroke-opacity:1"
               x="141.29741"
               y="445.44955"
               id="text1543"><tspan
                 style="font-size:40px;line-height:1.25"
                 sodipodi:role="line"
                 id="tspan1541"
                 x="141.29741"
                 y="445.44955"> </tspan></text>
            <g
               id="g1595"
               transform="matrix(0.81052393,0,0,0.84039537,15.233599,410.71796)">
              <g
                 style="display:inline"
                 transform="translate(0,-977.3622)"
                 id="g1565"
                 inkscape:label="Layer 1">
                <flowRoot
                   style="font-style:normal;font-weight:normal;line-height:0.01%;font-family:sans-serif;letter-spacing:0px;word-spacing:0px;fill:#000000;fill-opacity:1;stroke:none;stroke-width:1px;stroke-linecap:butt;stroke-linejoin:miter;stroke-opacity:1"
                   id="flowRoot1551"
                   xml:space="preserve"><flowRegion
                     id="flowRegion1547"><rect
                       y="243.79077"
                       x="154.28572"
                       height="385.71429"
                       width="300"
                       id="rect1545" /></flowRegion><flowPara
                     style="font-size:180px;line-height:1.25"
                     id="flowPara1549">tudil</flowPara></flowRoot>
                <g
                   transform="matrix(0.26975635,0,0,0.24170938,-50.010025,879.94313)"
                   id="g1553"
                   style="font-style:normal;font-weight:normal;font-size:180px;line-height:125%;font-family:sans-serif;letter-spacing:0px;word-spacing:0px;fill:#000000;fill-opacity:1;stroke:none;stroke-width:0;stroke-linecap:butt;stroke-linejoin:miter;stroke-miterlimit:4;stroke-dasharray:none;stroke-opacity:1" />
                <g
                   style="display:inline;fill:#000000"
                   transform="matrix(1.1966949,0,0,1.1966949,-46.389368,961.44007)"
                   id="g1563">
                  <g
                     transform="translate(0,-974)"
                     style="display:inline;fill:#000000"
                     id="g1559">
                    <path
                       inkscape:connector-curvature="0"
                       id="path1555"
                       d="M 142.08574,997.92222 Z"
                       style="fill:#000000;fill-rule:evenodd;stroke:#000000;stroke-width:1.01249px;stroke-linecap:butt;stroke-linejoin:miter;stroke-opacity:1" />
                    <g
                       id="g1557"
                       style="font-style:normal;font-variant:normal;font-weight:100;font-stretch:normal;font-size:53.1634px;line-height:125%;font-family:Skia;-inkscape-font-specification:'Skia Thin';letter-spacing:0px;word-spacing:0px;fill:#000000;fill-opacity:1;stroke:none;stroke-width:1px;stroke-linecap:butt;stroke-linejoin:miter;stroke-opacity:1" />
                  </g>
                  <g
                     id="g1561"
                     inkscape:label="Layer 1"
                     style="display:inline;fill:#000000" />
                </g>
              </g>
              <g
                 transform="translate(0,25)"
                 style="display:inline"
                 inkscape:label="back"
                 id="g1593">
                <g
                   id="g1591"
                   transform="matrix(1.1966949,0,0,1.1966949,-50.408769,-43.395604)">
                  <g
                     id="g1587"
                     style="display:inline"
                     transform="translate(0,-974)">
                    <path
                       style="fill:none;fill-rule:evenodd;stroke:#000000;stroke-width:1.01249px;stroke-linecap:butt;stroke-linejoin:miter;stroke-opacity:1"
                       d="M 142.08574,997.92222 Z"
                       id="path1567"
                       inkscape:connector-curvature="0" />
                    <path
                       style="opacity:1;fill:url(#linearGradient1605);fill-opacity:1;stroke:#000000;stroke-width:0;stroke-linecap:round;stroke-linejoin:round;stroke-miterlimit:4;stroke-dasharray:none;stroke-dashoffset:0;stroke-opacity:1"
                       d="m 46.552104,1058.6617 c -6.945476,24.4435 12.278358,37.1141 21.257349,20.1818 -12.108654,2.2029 -16.881189,-8.4746 -11.760641,-17.0449 z"
                       id="path1569"
                       inkscape:connector-curvature="0" />
                    <path
                       id="path1571"
                       d="m 46.584244,1079.1221 c 1.270872,16.5022 6.890997,22.5006 24.880871,25.2365 l 3.568254,-12.3969 c -10.589847,4.3116 -15.272513,2.0982 -17.418697,-4.2431 -7.40129,-0.4259 -10.84902,-7.2353 -11.030428,-8.5965 z"
                       style="opacity:1;fill:url(#linearGradient1607);fill-opacity:1;stroke:#000000;stroke-width:0;stroke-linecap:round;stroke-linejoin:round;stroke-miterlimit:4;stroke-dasharray:none;stroke-dashoffset:0;stroke-opacity:1"
                       inkscape:connector-curvature="0" />
                    <path
                       style="fill:url(#linearGradient1609);fill-opacity:1;fill-rule:evenodd;stroke:#000000;stroke-width:0;stroke-linecap:butt;stroke-linejoin:miter;stroke-miterlimit:4;stroke-dasharray:none;stroke-opacity:1"
                       d="m 76.02045,1091.7062 c 15.944883,-15.0965 -11.630475,-29.7422 -29.231113,-33.6538 46.262547,4.8152 58.957973,37.0717 33.179212,45.4739 z"
                       id="path1573"
                       inkscape:connector-curvature="0" />
                    <g
                       id="g1585"
                       style="font-style:normal;font-variant:normal;font-weight:100;font-stretch:normal;font-size:53.1634px;line-height:125%;font-family:Skia;-inkscape-font-specification:'Skia Thin';letter-spacing:0px;word-spacing:0px;fill:#06c5ff;fill-opacity:1;stroke:none;stroke-width:1px;stroke-linecap:butt;stroke-linejoin:miter;stroke-opacity:1">
                      <path
                         inkscape:connector-curvature="0"
                         id="path1575"
                         style="fill:#ffffff"
                         d="m 151.04164,1072.2647 q -0.2722,0 -2.27971,-0.017 -2.00751,-0.017 -6.07355,-0.017 -0.034,3.4877 -0.0511,5.291 -0.017,1.8034 -0.017,4.9168 0,2.9941 0.017,6.0905 0.034,3.0793 0.0511,4.1001 h -2.80711 q 0.034,-1.0208 0.0511,-4.1682 0.0341,-3.1473 0.0341,-6.1585 0,-2.9603 0,-4.6956 0,-1.7524 -0.0511,-5.3761 -3.62372,-0.017 -5.88641,0.017 -2.24569,0.017 -2.46685,0.017 v -2.3649 q 1.75231,0 4.25319,0.017 2.51788,0.017 5.35902,0.017 4.11708,0 6.87315,-0.017 2.77308,-0.017 2.99425,-0.017 v 2.3649 z" />
                      <path
                         inkscape:connector-curvature="0"
                         id="path1577"
                         style="font-style:normal;font-variant:normal;font-weight:100;font-stretch:normal;font-family:Skia;-inkscape-font-specification:'Skia Thin';fill:#06c5ff;fill-opacity:1"
                         d="m 168.36063,1092.6289 h -2.60295 v -1.9735 l -0.017,-0.018 q -1.1909,0.7827 -2.97725,1.6162 -1.76932,0.8167 -3.4876,0.8167 -2.34777,0 -3.67476,-1.3951 -1.327,-1.395 -1.327,-3.9129 0,-1.3611 0.017,-3.2325 0.0341,-1.8884 0.0341,-2.739 0,-1.5482 -0.0511,-3.8108 -0.034,-2.2798 -0.034,-2.569 h 2.68802 q 0,0.2212 -0.0341,2.4499 -0.034,2.2286 -0.034,3.5556 0,1.1739 0.017,2.9262 0.017,1.7523 0.017,2.4839 0.0341,2.0075 0.69753,2.9432 0.6635,0.9357 2.1436,0.9357 1.51414,0 3.31749,-0.8166 1.82037,-0.8166 2.67101,-1.4291 0,-0.2042 0.017,-1.8714 0.017,-1.6843 0.017,-4.1852 0,-1.7863 -0.0511,-4.2702 -0.034,-2.5008 -0.034,-2.722 h 2.68802 q 0,0.2892 -0.0341,1.9224 -0.0341,1.6162 -0.0341,5.5292 0,2.1947 0.017,3.8619 0.017,1.6502 0.0511,5.9034 z" />
                      <path
                         inkscape:connector-curvature="0"
                         id="path1579"
                         style="fill:#ffffff"
                         d="m 187.70414,1092.9011 q -0.10207,0 -0.64649,0 -0.54441,0.017 -0.86765,0.017 -3.21541,0 -5.03577,-0.2891 -1.82037,-0.2723 -3.55567,-1.1059 -2.2627,-1.0887 -3.43658,-2.8922 -1.17388,-1.8033 -1.17388,-4.015 0,-2.5859 1.30998,-4.5764 1.30999,-2.0075 3.77683,-3.1303 1.44609,-0.6806 3.3175,-1.0208 1.8714,-0.3573 3.67475,-0.3573 l -0.0511,-7.8428 h 2.68801 q 0,0.3401 -0.0341,4.7635 -0.034,4.4234 -0.034,8.9657 0,3.5897 0.017,6.499 0.0341,2.8921 0.0511,4.9847 z m -2.63698,-11.96 q 0,-0.6805 0,-1.4971 0,-0.8166 0,-1.6503 -1.70127,0 -3.21541,0.2892 -1.49712,0.2893 -2.56893,0.7826 -1.70127,0.7826 -2.63697,2.2458 -0.93571,1.4461 -0.93571,3.4025 0,1.7524 0.90167,3.0113 0.90168,1.259 2.24569,1.9734 1.17388,0.6295 2.63698,0.9527 1.48011,0.3063 3.09632,0.3063 0.11909,0 0.22117,0 0.10207,0 0.22116,0 0,-0.1531 0.017,-2.5349 0.017,-2.3988 0.017,-7.2815 z" />
                      <path
                         inkscape:connector-curvature="0"
                         id="path1581"
                         style="font-style:normal;font-variant:normal;font-weight:100;font-stretch:normal;font-family:Skia;-inkscape-font-specification:'Skia Thin';fill:#06c5ff;fill-opacity:1"
                         d="m 196.97609,1072.1114 h -2.99425 v -2.9261 h 2.99425 z m -0.15312,20.5175 h -2.68801 q 0.017,-0.2722 0.034,-3.3515 0.0341,-3.0793 0.0341,-5.0868 0,-1.7523 -0.017,-3.845 0,-2.1095 -0.0511,-4.9336 h 2.68801 q -0.034,2.4498 -0.068,4.5934 -0.017,2.1266 -0.017,3.7939 0,3.9639 0.0341,6.3628 0.0511,2.3988 0.0511,2.4668 z" />
                      <path
                         inkscape:connector-curvature="0"
                         id="path1583"
                         style="font-style:normal;font-variant:normal;font-weight:100;font-stretch:normal;font-family:Skia;-inkscape-font-specification:'Skia Thin';fill:#06c5ff;fill-opacity:1"
                         d="m 206.07791,1092.6289 h -2.68801 q 0.017,-0.2042 0.0341,-4.9677 0.034,-4.7806 0.034,-7.928 0,-2.0245 -0.017,-5.1039 0,-3.0963 -0.0511,-6.9411 h 2.68801 q -0.034,2.62 -0.0511,6.0735 -0.017,3.4366 -0.017,5.8014 0,5.1548 0.0341,9.0168 0.034,3.8619 0.034,4.049 z" />
                    </g>
                  </g>
                  <g
                     style="display:inline"
                     inkscape:label="Layer 1"
                     id="g1589" />
                </g>
              </g>
            </g>
          </g>
        </g>
      </g>
    </g>
  </g>
  <g
     style="display:inline"
     id="layer1"
     inkscape:groupmode="layer"
     inkscape:label="Layer 1" />
  <g
     style="display:inline"
     inkscape:label="Layer 2"
     id="layer2"
     inkscape:groupmode="layer" />
  <g
     inkscape:label="Layer 3"
     id="layer3"
     inkscape:groupmode="layer" />
</svg>
