<?xml version="1.0" encoding="UTF-8" standalone="no"?>
<svg
   xmlns:dc="http://purl.org/dc/elements/1.1/"
   xmlns:cc="http://creativecommons.org/ns#"
   xmlns:rdf="http://www.w3.org/1999/02/22-rdf-syntax-ns#"
   xmlns:svg="http://www.w3.org/2000/svg"
   xmlns="http://www.w3.org/2000/svg"
   xmlns:xlink="http://www.w3.org/1999/xlink"
   xmlns:sodipodi="http://sodipodi.sourceforge.net/DTD/sodipodi-0.dtd"
   xmlns:inkscape="http://www.inkscape.org/namespaces/inkscape"
   width="300"
   height="100"
   viewBox="0 0 79.375 26.458333"
   version="1.1"
   id="svg8"
   inkscape:version="1.0beta2 (2b71d25, 2019-12-03)"
   sodipodi:docname="logo.svg"
   inkscape:export-filename="/Applications/MAMP/htdocs/GrapeCommunity/app/GrapeCommunity/resources/splash.png"
   inkscape:export-xdpi="96"
   inkscape:export-ydpi="96">
  <defs
     id="defs2">
    <inkscape:perspective
       sodipodi:type="inkscape:persp3d"
       inkscape:vp_x="0 : -109.00833 : 1"
       inkscape:vp_y="0 : 1000 : 0"
       inkscape:vp_z="270.93333 : -109.00833 : 1"
       inkscape:persp3d-origin="135.46667 : -154.16389 : 1"
       id="perspective2422" />
    <linearGradient
       inkscape:collect="always"
       id="linearGradient2415">
      <stop
         style="stop-color:#fcf44a;stop-opacity:1;"
         offset="0"
         id="stop2411" />
      <stop
         style="stop-color:#fcf44a;stop-opacity:0;"
         offset="1"
         id="stop2413" />
    </linearGradient>
    <linearGradient
       inkscape:collect="always"
       id="linearGradient2395">
      <stop
         style="stop-color:#80e5ff;stop-opacity:1;"
         offset="0"
         id="stop2391" />
      <stop
         style="stop-color:#80e5ff;stop-opacity:0;"
         offset="1"
         id="stop2393" />
    </linearGradient>
    <linearGradient
       inkscape:collect="always"
       id="linearGradient2292">
      <stop
         style="stop-color:#66ff00;stop-opacity:1"
         offset="0"
         id="stop2288" />
      <stop
         style="stop-color:#71c837;stop-opacity:0;"
         offset="1"
         id="stop2290" />
    </linearGradient>
    <linearGradient
       gradientTransform="matrix(0.08832059,0,0,0.08832059,5.9264219,1.373993)"
       inkscape:collect="always"
       xlink:href="#linearGradient2292"
       id="linearGradient2294"
       x1="111.40614"
       y1="156.79317"
       x2="136.54645"
       y2="44.898273"
       gradientUnits="userSpaceOnUse" />
    <linearGradient
       inkscape:collect="always"
       xlink:href="#linearGradient2395"
       id="linearGradient2397"
       x1="136.54645"
       y1="174.38095"
       x2="24.515009"
       y2="212.1187"
       gradientUnits="userSpaceOnUse"
       gradientTransform="matrix(0.08832059,0,0,0.08832059,5.9731593,1.373993)" />
    <linearGradient
       gradientTransform="matrix(0.08832059,0,0,0.08832059,5.9264219,1.373993)"
       inkscape:collect="always"
       xlink:href="#linearGradient2415"
       id="linearGradient2417"
       x1="167.19189"
       y1="142.57271"
       x2="238.71977"
       y2="225.84294"
       gradientUnits="userSpaceOnUse" />
  </defs>
  <sodipodi:namedview
     inkscape:guide-bbox="true"
     showguides="true"
     id="base"
     pagecolor="#ffffff"
     bordercolor="#666666"
     borderopacity="1.0"
     inkscape:pageopacity="0.0"
     inkscape:pageshadow="2"
     inkscape:zoom="1.2"
     inkscape:cx="24.530405"
     inkscape:cy="30.5"
     inkscape:document-units="mm"
     inkscape:current-layer="layer5"
     inkscape:document-rotation="0"
     showgrid="false"
     inkscape:window-width="1280"
     inkscape:window-height="706"
     inkscape:window-x="0"
     inkscape:window-y="23"
     inkscape:window-maximized="0"
     units="px">
    <sodipodi:guide
       id="guide1690"
       orientation="0,-1"
       position="-10.869369,136.42489" />
    <sodipodi:guide
       position="136.54645,136.42489"
       orientation="1,0"
       id="guide2258" />
    <sodipodi:guide
       id="guide8065"
       orientation="0,-1"
       position="375.26906,361.4074" />
    <sodipodi:guide
       id="guide8067"
       orientation="1,0"
       position="360.85781,382.15961" />
  </sodipodi:namedview>
  <metadata
     id="metadata5">
    <rdf:RDF>
      <cc:Work
         rdf:about="">
        <dc:format>image/svg+xml</dc:format>
        <dc:type
           rdf:resource="http://purl.org/dc/dcmitype/StillImage" />
        <dc:title></dc:title>
      </cc:Work>
    </rdf:RDF>
  </metadata>
  <g
     style="display:inline"
     inkscape:groupmode="layer"
     id="layer5"
     inkscape:label="rectangle">
    <rect
       style="opacity:1;fill:#4d4d4d;fill-opacity:1;stroke:none;stroke-width:0;stroke-linecap:round;stroke-linejoin:round;stroke-miterlimit:4;stroke-dasharray:none;paint-order:markers stroke fill"
       id="rect2438"
       width="75.318054"
       height="25.106016"
       x="2.4253471"
       y="0.58796358"
       ry="3.1714463" />
    <g
       transform="matrix(2.6358024,0,0,2.6358024,2.4253473,0.58796341)"
       aria-label="Grape  Community"
       id="text1507"
       style="font-size:3.52778px;line-height:1.25;font-family:'Ubuntu Mono';-inkscape-font-specification:'Ubuntu Mono';stroke-width:0.264583">
      <path
         inkscape:connector-curvature="0"
         d="m 14.948161,1.6693546 q -0.155222,0 -0.261055,0.056445 -0.105834,0.056445 -0.176389,0.1587501 -0.06703,0.098778 -0.09878,0.2398891 -0.02822,0.1375834 -0.02822,0.3069168 0,0.3915836 0.123473,0.578556 0.123472,0.1834445 0.363361,0.1834445 0.03881,0 0.08467,-0.00353 0.04586,-0.00353 0.08467,-0.010583 V 2.3819662 H 15.4738 v 1.0900841 q -0.07761,0.028222 -0.243416,0.0635 -0.162278,0.035278 -0.395112,0.035278 -0.204611,0 -0.370417,-0.070556 -0.162277,-0.074083 -0.278694,-0.2151946 -0.116417,-0.144639 -0.179917,-0.3563058 -0.0635,-0.2151946 -0.0635,-0.497417 0,-0.2786946 0.07408,-0.4903614 0.07408,-0.2151946 0.201084,-0.3598336 0.127,-0.1446389 0.299861,-0.2151945 0.172861,-0.074083 0.370417,-0.074083 0.127,0 0.225778,0.021167 0.102306,0.017639 0.176389,0.042333 0.07408,0.024695 0.119944,0.052917 0.04939,0.028222 0.07408,0.042333 l -0.112889,0.3457224 q -0.07761,-0.049389 -0.1905,-0.088194 -0.112889,-0.038806 -0.232834,-0.038806 z"
         style="font-style:normal;font-variant:normal;font-weight:bold;font-stretch:normal;font-family:'Ubuntu Mono';-inkscape-font-specification:'Ubuntu Mono Bold';text-align:center;text-anchor:middle;stroke-width:0.264583"
         id="path1511" />
      <path
         inkscape:connector-curvature="0"
         d="m 17.153024,2.3078828 q -0.04233,-0.010583 -0.102306,-0.021167 -0.05644,-0.010583 -0.116417,-0.017639 -0.05997,-0.010583 -0.116416,-0.014111 -0.05645,-0.00353 -0.09525,-0.00353 -0.09172,0 -0.179917,0.010583 -0.0882,0.00706 -0.179917,0.03175 V 3.524967 H 15.925356 V 1.9762715 q 0.172862,-0.0635 0.352778,-0.1023056 0.183445,-0.038806 0.426862,-0.038806 0.03528,0 0.09878,0.00353 0.06703,0.00353 0.141111,0.014111 0.07408,0.00706 0.148167,0.021167 0.07761,0.010583 0.137583,0.03175 z"
         style="font-style:normal;font-variant:normal;font-weight:bold;font-stretch:normal;font-family:'Ubuntu Mono';-inkscape-font-specification:'Ubuntu Mono Bold';text-align:center;text-anchor:middle;stroke-width:0.264583"
         id="path1513" />
      <path
         inkscape:connector-curvature="0"
         d="m 18.260747,3.2145223 q 0.07056,0 0.137583,0 0.06703,-0.00353 0.116417,-0.010583 V 2.8229387 q -0.04233,-0.00706 -0.102306,-0.010583 -0.05997,-0.00706 -0.109361,-0.00706 -0.06703,0 -0.130528,0.010583 -0.0635,0.00706 -0.112889,0.028222 -0.04586,0.021167 -0.07408,0.059972 -0.02822,0.038805 -0.02822,0.1023056 0,0.1128889 0.08467,0.1622779 0.08467,0.045861 0.218723,0.045861 z M 18.221941,1.824577 q 0.204611,0 0.338667,0.049389 0.137583,0.045861 0.218722,0.1340556 0.08114,0.084667 0.116417,0.2116668 0.03528,0.1234723 0.03528,0.2786947 v 0.9877784 q -0.09525,0.021167 -0.282222,0.049389 -0.186973,0.028222 -0.419806,0.028222 -0.15875,0 -0.289278,-0.028222 -0.127,-0.028222 -0.218723,-0.091722 -0.09172,-0.067028 -0.141111,-0.1693334 -0.04939,-0.1058334 -0.04939,-0.257528 0,-0.144639 0.05645,-0.2434168 0.05644,-0.098778 0.151694,-0.1587501 0.09525,-0.059972 0.218723,-0.084667 0.123472,-0.028222 0.257528,-0.028222 0.169333,0 0.299861,0.028222 v -0.052917 q 0,-0.1234723 -0.07761,-0.2046113 -0.07761,-0.084667 -0.268112,-0.084667 -0.123472,0 -0.239889,0.017639 -0.112889,0.017639 -0.183444,0.042333 l -0.05997,-0.3492503 q 0.08114,-0.028222 0.229305,-0.049389 0.148167,-0.024694 0.306917,-0.024694 z"
         style="font-style:normal;font-variant:normal;font-weight:bold;font-stretch:normal;font-family:'Ubuntu Mono';-inkscape-font-specification:'Ubuntu Mono Bold';text-align:center;text-anchor:middle;stroke-width:0.264583"
         id="path1515" />
      <path
         inkscape:connector-curvature="0"
         d="m 20.35272,2.7100498 q 0,-0.2222502 -0.08819,-0.3633614 -0.08819,-0.144639 -0.268112,-0.144639 -0.04939,0 -0.105833,0.00706 -0.05645,0.00353 -0.09525,0.00706 v 0.9101672 q 0.04233,0.028222 0.112889,0.045861 0.07055,0.017639 0.141111,0.017639 0.155222,0 0.229306,-0.1234723 0.07408,-0.127 0.07408,-0.3563057 z m 0.440973,-0.014111 q 0,0.1905002 -0.04233,0.352778 -0.04233,0.1587502 -0.123472,0.2751669 -0.08114,0.112889 -0.204611,0.176389 -0.123473,0.0635 -0.285751,0.0635 -0.165805,0 -0.342194,-0.081139 v 0.624417 H 19.361414 V 1.919827 q 0.119944,-0.038806 0.292806,-0.0635 0.176389,-0.024695 0.345722,-0.024695 0.384528,0 0.589139,0.2328335 0.204612,0.2328335 0.204612,0.6314733 z"
         style="font-style:normal;font-variant:normal;font-weight:bold;font-stretch:normal;font-family:'Ubuntu Mono';-inkscape-font-specification:'Ubuntu Mono Bold';text-align:center;text-anchor:middle;stroke-width:0.264583"
         id="path1517" />
      <path
         inkscape:connector-curvature="0"
         d="m 21.012415,2.7100498 q 0,-0.2187224 0.06703,-0.3845281 0.06703,-0.1658056 0.176389,-0.2751668 0.109361,-0.112889 0.250472,-0.1693335 0.141112,-0.056444 0.289278,-0.056444 0.366889,0 0.55739,0.2187223 0.1905,0.2151946 0.1905,0.6314727 0,0.042333 -0.0035,0.088195 0,0.045861 -0.0035,0.074083 h -1.075973 q 0,0.1622779 0.134056,0.257528 0.134056,0.091722 0.345722,0.091722 0.130528,0 0.246945,-0.028222 0.119944,-0.028222 0.201083,-0.056445 l 0.05997,0.370417 q -0.112889,0.038806 -0.239889,0.0635 -0.127,0.028222 -0.285751,0.028222 -0.211666,0 -0.381,-0.052917 Q 21.375832,3.4544114 21.255887,3.3485776 21.13947,3.2392164 21.07597,3.0804663 21.01247,2.9217162 21.01247,2.7100494 Z m 1.111251,-0.1728613 q 0,-0.067028 -0.01764,-0.127 -0.01764,-0.0635 -0.05644,-0.112889 -0.03881,-0.049389 -0.09878,-0.077611 -0.05997,-0.03175 -0.148167,-0.03175 -0.08467,0 -0.148167,0.028222 -0.05997,0.028222 -0.102305,0.077611 -0.03881,0.049389 -0.0635,0.112889 -0.02117,0.0635 -0.02822,0.1305278 z"
         style="font-style:normal;font-variant:normal;font-weight:bold;font-stretch:normal;font-family:'Ubuntu Mono';-inkscape-font-specification:'Ubuntu Mono Bold';text-align:center;text-anchor:middle;stroke-width:0.264583"
         id="path1519" />
      <path
         inkscape:connector-curvature="0"
         d="m 12.245882,7.9805532 q -0.462139,0 -0.705556,-0.2963336 -0.243417,-0.2963335 -0.243417,-0.8431394 0,-0.2716391 0.07408,-0.4833059 0.07408,-0.2116668 0.204612,-0.3563057 0.134055,-0.1481668 0.313972,-0.2222502 0.183445,-0.077611 0.398639,-0.077611 0.116417,0 0.208139,0.021167 0.09525,0.017639 0.165806,0.042333 0.07056,0.024694 0.116417,0.052917 0.04939,0.028222 0.07408,0.042333 l -0.112889,0.3457224 q -0.08114,-0.052917 -0.197556,-0.088195 -0.112889,-0.038806 -0.261055,-0.038806 -0.102306,0 -0.201084,0.038806 -0.09525,0.035278 -0.172861,0.1234723 -0.07408,0.084667 -0.123472,0.2293057 -0.04586,0.144639 -0.04586,0.3598336 0,0.3739447 0.127,0.5750281 0.130528,0.1975557 0.423334,0.1975557 0.169334,0 0.278695,-0.038806 0.112889,-0.038806 0.179917,-0.077611 l 0.109361,0.3421946 q -0.09172,0.056444 -0.250473,0.1058334 -0.155222,0.045861 -0.359833,0.045861 z"
         style="font-style:normal;font-variant:normal;font-weight:bold;font-stretch:normal;font-family:'Ubuntu Mono';-inkscape-font-specification:'Ubuntu Mono Bold';text-align:center;text-anchor:middle;stroke-width:0.264583"
         id="path1521" />
      <path
         inkscape:connector-curvature="0"
         d="m 14.630661,7.1021359 q 0,0.1975557 -0.05644,0.3598336 -0.05645,0.1587501 -0.158751,0.2751668 -0.102305,0.1164168 -0.246944,0.1799168 -0.141111,0.0635 -0.3175,0.0635 -0.176389,0 -0.321028,-0.0635 -0.141112,-0.0635 -0.246945,-0.1799168 -0.102306,-0.1164167 -0.15875,-0.2751668 -0.05645,-0.1622779 -0.05645,-0.3598336 0,-0.1940279 0.05645,-0.352778 0.05997,-0.1622779 0.162278,-0.2751668 0.105833,-0.1164168 0.250472,-0.176389 0.144639,-0.0635 0.313973,-0.0635 0.172861,0 0.313972,0.0635 0.144639,0.059972 0.246945,0.176389 0.105833,0.1128889 0.162278,0.2751668 0.05644,0.1587501 0.05644,0.352778 z m -1.121834,0.00353 q 0,0.2222502 0.07761,0.3598336 0.08114,0.1375834 0.257528,0.1375834 0.169334,0 0.254,-0.1375834 0.0882,-0.1375834 0.0882,-0.3598336 0,-0.2222501 -0.08114,-0.3563058 -0.07761,-0.1375834 -0.254,-0.1375834 -0.169334,0 -0.257528,0.1375834 -0.08467,0.1340557 -0.08467,0.3563058 z"
         style="font-style:normal;font-variant:normal;font-weight:bold;font-stretch:normal;font-family:'Ubuntu Mono';-inkscape-font-specification:'Ubuntu Mono Bold';text-align:center;text-anchor:middle;stroke-width:0.264583"
         id="path1523" />
      <path
         inkscape:connector-curvature="0"
         d="m 15.939467,6.2589965 q 0.137584,0 0.225778,0.042333 0.0882,0.042333 0.137584,0.127 0.05292,0.084667 0.07056,0.2151946 0.01764,0.1270001 0.01764,0.2998613 V 7.934692 H 16.038245 V 6.9222191 q 0,-0.098778 -0.01411,-0.1587501 -0.01058,-0.059972 -0.03175,-0.091722 -0.01764,-0.03175 -0.04586,-0.042333 -0.02469,-0.010583 -0.05292,-0.010583 -0.03175,0 -0.06703,0.00706 -0.03528,0.00353 -0.0635,0.017639 0.01058,0.067028 0.01764,0.1481668 0.0071,0.081139 0.0071,0.1799168 v 0.3316058 h -0.35282 V 6.9222191 q 0,-0.1693334 -0.03528,-0.2363612 -0.03175,-0.067028 -0.105833,-0.067028 -0.02117,0 -0.05292,0.00353 -0.02822,0.00353 -0.05644,0.010583 V 7.934692 H 14.831745 V 6.3401354 q 0.137583,-0.038806 0.271639,-0.059972 0.134055,-0.021167 0.236361,-0.021167 0.09172,0 0.162278,0.024694 0.07408,0.021167 0.127,0.074083 0.05997,-0.038805 0.141111,-0.067028 0.08114,-0.03175 0.169333,-0.03175 z"
         style="font-style:normal;font-variant:normal;font-weight:bold;font-stretch:normal;font-family:'Ubuntu Mono';-inkscape-font-specification:'Ubuntu Mono Bold';text-align:center;text-anchor:middle;stroke-width:0.264583"
         id="path1525" />
      <path
         inkscape:connector-curvature="0"
         d="m 17.703357,6.2589965 q 0.137584,0 0.225778,0.042333 0.0882,0.042333 0.137584,0.127 0.05292,0.084667 0.07056,0.2151946 0.01764,0.1270001 0.01764,0.2998613 V 7.934692 H 17.802135 V 6.9222191 q 0,-0.098778 -0.01411,-0.1587501 -0.01058,-0.059972 -0.03175,-0.091722 -0.01764,-0.03175 -0.04586,-0.042333 -0.02469,-0.010583 -0.05292,-0.010583 -0.03175,0 -0.06703,0.00706 -0.03528,0.00353 -0.0635,0.017639 0.01058,0.067028 0.01764,0.1481668 0.0071,0.081139 0.0071,0.1799168 v 0.3316058 h -0.35282 V 6.9222191 q 0,-0.1693334 -0.03528,-0.2363612 -0.03175,-0.067028 -0.105834,-0.067028 -0.02117,0 -0.05292,0.00353 -0.02822,0.00353 -0.05645,0.010583 V 7.934692 H 16.595634 V 6.3401354 q 0.137584,-0.038806 0.271639,-0.059972 0.134056,-0.021167 0.236362,-0.021167 0.09172,0 0.162278,0.024694 0.07408,0.021167 0.127,0.074083 0.05997,-0.038805 0.141111,-0.067028 0.08114,-0.03175 0.169333,-0.03175 z"
         style="font-style:normal;font-variant:normal;font-weight:bold;font-stretch:normal;font-family:'Ubuntu Mono';-inkscape-font-specification:'Ubuntu Mono Bold';text-align:center;text-anchor:middle;stroke-width:0.264583"
         id="path1527" />
      <path
         inkscape:connector-curvature="0"
         d="m 19.802387,7.8782475 q -0.119945,0.03175 -0.292806,0.0635 -0.169334,0.03175 -0.370417,0.03175 -0.204611,0 -0.335139,-0.056444 Q 18.673497,7.8606086 18.595886,7.758303 18.521802,7.6524696 18.49358,7.5113584 18.465358,7.3702472 18.465358,7.2009138 V 6.2766354 h 0.433917 v 0.8678339 q 0,0.2293057 0.05292,0.3421947 0.05644,0.1093611 0.215194,0.1093611 0.09878,0 0.197556,-0.017639 V 6.2766354 h 0.437445 z"
         style="font-style:normal;font-variant:normal;font-weight:bold;font-stretch:normal;font-family:'Ubuntu Mono';-inkscape-font-specification:'Ubuntu Mono Bold';text-align:center;text-anchor:middle;stroke-width:0.264583"
         id="path1529" />
      <path
         inkscape:connector-curvature="0"
         d="m 20.243359,6.3295521 q 0.116417,-0.03175 0.285751,-0.059972 0.172861,-0.028222 0.373944,-0.028222 0.197556,0 0.328084,0.056445 0.130528,0.052917 0.204611,0.1552223 0.07761,0.098778 0.109361,0.239889 0.03175,0.1375835 0.03175,0.3069169 V 7.934692 H 21.142943 V 7.0562748 q 0,-0.2328335 -0.05292,-0.3351391 -0.05292,-0.1023056 -0.215195,-0.1023056 -0.04939,0 -0.09878,0.00353 -0.04586,0.00353 -0.09878,0.010583 V 7.934692 h -0.433917 z"
         style="font-style:normal;font-variant:normal;font-weight:bold;font-stretch:normal;font-family:'Ubuntu Mono';-inkscape-font-specification:'Ubuntu Mono Bold';text-align:center;text-anchor:middle;stroke-width:0.264583"
         id="path1531" />
      <path
         inkscape:connector-curvature="0"
         d="m 22.786888,5.8003851 q 0,0.1270001 -0.08114,0.2010835 -0.08114,0.074083 -0.194028,0.074083 -0.112889,0 -0.194028,-0.074083 -0.07761,-0.074083 -0.07761,-0.2010835 0,-0.1305279 0.07761,-0.2046113 0.08114,-0.074083 0.194028,-0.074083 0.112889,0 0.194028,0.074083 0.08114,0.074083 0.08114,0.2046113 z m 0.645584,2.0637513 q -0.134056,0.0635 -0.254,0.084667 -0.116417,0.024694 -0.215195,0.024694 -0.169333,0 -0.28575,-0.049389 -0.112889,-0.049389 -0.183445,-0.1411112 -0.06703,-0.09525 -0.09525,-0.2293057 Q 22.37061,7.4196361 22.37061,7.2467749 V 6.636469 H 21.911999 V 6.2766354 h 0.892528 v 1.026584 q 0,0.1481668 0.05292,0.2222501 0.05644,0.070556 0.183444,0.070556 0.05997,0 0.144639,-0.014111 0.08467,-0.017639 0.1905,-0.067028 z"
         style="font-style:normal;font-variant:normal;font-weight:bold;font-stretch:normal;font-family:'Ubuntu Mono';-inkscape-font-specification:'Ubuntu Mono Bold';text-align:center;text-anchor:middle;stroke-width:0.264583"
         id="path1533" />
      <path
         inkscape:connector-curvature="0"
         d="M 24.053361,6.636469 H 23.675889 V 6.2766354 h 0.377472 v -0.416278 l 0.433917,-0.070556 V 6.276635 h 0.694973 v 0.359834 h -0.694973 v 0.6702782 q 0,0.091722 0.01764,0.1481667 0.01764,0.056444 0.04939,0.088195 0.03175,0.03175 0.07761,0.042333 0.04586,0.010583 0.102306,0.010583 0.05997,0 0.109361,-0.00353 0.05292,-0.00353 0.09878,-0.010583 0.04939,-0.010583 0.09878,-0.028222 0.05292,-0.017639 0.112889,-0.045861 l 0.05997,0.3739447 q -0.119945,0.049389 -0.261056,0.070556 -0.137583,0.021167 -0.268111,0.021167 -0.151695,0 -0.268111,-0.024694 Q 24.300309,7.9241086 24.21917,7.8535526 24.13803,7.7829966 24.095698,7.6559969 24.053368,7.525469 24.053368,7.31733 Z"
         style="font-style:normal;font-variant:normal;font-weight:bold;font-stretch:normal;font-family:'Ubuntu Mono';-inkscape-font-specification:'Ubuntu Mono Bold';text-align:center;text-anchor:middle;stroke-width:0.264583"
         id="path1535" />
      <path
         inkscape:connector-curvature="0"
         d="m 26.977891,6.2766354 q -0.06703,0.2328335 -0.130528,0.4586114 -0.05997,0.2222501 -0.127,0.4374447 -0.06703,0.2116668 -0.144639,0.4162781 -0.07408,0.2046112 -0.162278,0.3986391 -0.06703,0.1411112 -0.134055,0.2434168 -0.0635,0.1023057 -0.144639,0.1658057 -0.07761,0.067028 -0.176389,0.098778 -0.09525,0.03175 -0.225778,0.03175 -0.109361,0 -0.201084,-0.017639 -0.08819,-0.017639 -0.148166,-0.045861 l 0.08114,-0.3633613 q 0.07056,0.03175 0.123472,0.042333 0.05644,0.014111 0.119944,0.014111 0.127001,0 0.204612,-0.084667 0.07761,-0.084667 0.123472,-0.2010834 Q 25.880752,7.5607473 25.725529,7.1621082 25.570307,6.7599413 25.443307,6.2766354 h 0.451556 q 0.03175,0.1305279 0.07055,0.2786946 0.04233,0.1481668 0.08819,0.2963335 0.04586,0.1481668 0.09525,0.2928058 0.05292,0.1411112 0.105833,0.2645835 0.03528,-0.1234723 0.07408,-0.2645835 0.0388,-0.144639 0.07408,-0.289278 0.03528,-0.1481667 0.06703,-0.2963335 0.03528,-0.1481668 0.0635,-0.2822224 z"
         style="font-style:normal;font-variant:normal;font-weight:bold;font-stretch:normal;font-family:'Ubuntu Mono';-inkscape-font-specification:'Ubuntu Mono Bold';text-align:center;text-anchor:middle;stroke-width:0.264583"
         id="path1537" />
    </g>
    <g
       style="font-size:3.52778px;line-height:1.25;font-family:'Ubuntu Mono';-inkscape-font-specification:'Ubuntu Mono';fill:#ffffff;stroke-width:0.264583"
       id="g1568"
       aria-label="Grape  Community"
       transform="matrix(2.6358024,0,0,2.6358024,2.425363,-0.18381399)">
      <path
         id="path1540"
         style="font-style:normal;font-variant:normal;font-weight:bold;font-stretch:normal;font-family:'Ubuntu Mono';-inkscape-font-specification:'Ubuntu Mono Bold';text-align:center;text-anchor:middle;fill:#ffffff;stroke-width:0.264583"
         d="m 14.948161,1.6693546 q -0.155222,0 -0.261055,0.056445 -0.105834,0.056445 -0.176389,0.1587501 -0.06703,0.098778 -0.09878,0.2398891 -0.02822,0.1375834 -0.02822,0.3069168 0,0.3915836 0.123473,0.578556 0.123472,0.1834445 0.363361,0.1834445 0.03881,0 0.08467,-0.00353 0.04586,-0.00353 0.08467,-0.010583 V 2.3819662 H 15.4738 v 1.0900841 q -0.07761,0.028222 -0.243416,0.0635 -0.162278,0.035278 -0.395112,0.035278 -0.204611,0 -0.370417,-0.070556 -0.162277,-0.074083 -0.278694,-0.2151946 -0.116417,-0.144639 -0.179917,-0.3563058 -0.0635,-0.2151946 -0.0635,-0.497417 0,-0.2786946 0.07408,-0.4903614 0.07408,-0.2151946 0.201084,-0.3598336 0.127,-0.1446389 0.299861,-0.2151945 0.172861,-0.074083 0.370417,-0.074083 0.127,0 0.225778,0.021167 0.102306,0.017639 0.176389,0.042333 0.07408,0.024695 0.119944,0.052917 0.04939,0.028222 0.07408,0.042333 l -0.112889,0.3457224 q -0.07761,-0.049389 -0.1905,-0.088194 -0.112889,-0.038806 -0.232834,-0.038806 z"
         inkscape:connector-curvature="0" />
      <path
         id="path1542"
         style="font-style:normal;font-variant:normal;font-weight:bold;font-stretch:normal;font-family:'Ubuntu Mono';-inkscape-font-specification:'Ubuntu Mono Bold';text-align:center;text-anchor:middle;fill:#ffffff;stroke-width:0.264583"
         d="m 17.153024,2.3078828 q -0.04233,-0.010583 -0.102306,-0.021167 -0.05644,-0.010583 -0.116417,-0.017639 -0.05997,-0.010583 -0.116416,-0.014111 -0.05645,-0.00353 -0.09525,-0.00353 -0.09172,0 -0.179917,0.010583 -0.0882,0.00706 -0.179917,0.03175 V 3.524967 H 15.925356 V 1.9762715 q 0.172862,-0.0635 0.352778,-0.1023056 0.183445,-0.038806 0.426862,-0.038806 0.03528,0 0.09878,0.00353 0.06703,0.00353 0.141111,0.014111 0.07408,0.00706 0.148167,0.021167 0.07761,0.010583 0.137583,0.03175 z"
         inkscape:connector-curvature="0" />
      <path
         id="path1544"
         style="font-style:normal;font-variant:normal;font-weight:bold;font-stretch:normal;font-family:'Ubuntu Mono';-inkscape-font-specification:'Ubuntu Mono Bold';text-align:center;text-anchor:middle;fill:#ffffff;stroke-width:0.264583"
         d="m 18.260747,3.2145223 q 0.07056,0 0.137583,0 0.06703,-0.00353 0.116417,-0.010583 V 2.8229387 q -0.04233,-0.00706 -0.102306,-0.010583 -0.05997,-0.00706 -0.109361,-0.00706 -0.06703,0 -0.130528,0.010583 -0.0635,0.00706 -0.112889,0.028222 -0.04586,0.021167 -0.07408,0.059972 -0.02822,0.038805 -0.02822,0.1023056 0,0.1128889 0.08467,0.1622779 0.08467,0.045861 0.218723,0.045861 z M 18.221941,1.824577 q 0.204611,0 0.338667,0.049389 0.137583,0.045861 0.218722,0.1340556 0.08114,0.084667 0.116417,0.2116668 0.03528,0.1234723 0.03528,0.2786947 v 0.9877784 q -0.09525,0.021167 -0.282222,0.049389 -0.186973,0.028222 -0.419806,0.028222 -0.15875,0 -0.289278,-0.028222 -0.127,-0.028222 -0.218723,-0.091722 -0.09172,-0.067028 -0.141111,-0.1693334 -0.04939,-0.1058334 -0.04939,-0.257528 0,-0.144639 0.05645,-0.2434168 0.05644,-0.098778 0.151694,-0.1587501 0.09525,-0.059972 0.218723,-0.084667 0.123472,-0.028222 0.257528,-0.028222 0.169333,0 0.299861,0.028222 v -0.052917 q 0,-0.1234723 -0.07761,-0.2046113 -0.07761,-0.084667 -0.268112,-0.084667 -0.123472,0 -0.239889,0.017639 -0.112889,0.017639 -0.183444,0.042333 l -0.05997,-0.3492503 q 0.08114,-0.028222 0.229305,-0.049389 0.148167,-0.024694 0.306917,-0.024694 z"
         inkscape:connector-curvature="0" />
      <path
         id="path1546"
         style="font-style:normal;font-variant:normal;font-weight:bold;font-stretch:normal;font-family:'Ubuntu Mono';-inkscape-font-specification:'Ubuntu Mono Bold';text-align:center;text-anchor:middle;fill:#ffffff;stroke-width:0.264583"
         d="m 20.35272,2.7100498 q 0,-0.2222502 -0.08819,-0.3633614 -0.08819,-0.144639 -0.268112,-0.144639 -0.04939,0 -0.105833,0.00706 -0.05645,0.00353 -0.09525,0.00706 v 0.9101672 q 0.04233,0.028222 0.112889,0.045861 0.07055,0.017639 0.141111,0.017639 0.155222,0 0.229306,-0.1234723 0.07408,-0.127 0.07408,-0.3563057 z m 0.440973,-0.014111 q 0,0.1905002 -0.04233,0.352778 -0.04233,0.1587502 -0.123472,0.2751669 -0.08114,0.112889 -0.204611,0.176389 -0.123473,0.0635 -0.285751,0.0635 -0.165805,0 -0.342194,-0.081139 v 0.624417 H 19.361414 V 1.919827 q 0.119944,-0.038806 0.292806,-0.0635 0.176389,-0.024695 0.345722,-0.024695 0.384528,0 0.589139,0.2328335 0.204612,0.2328335 0.204612,0.6314733 z"
         inkscape:connector-curvature="0" />
      <path
         id="path1548"
         style="font-style:normal;font-variant:normal;font-weight:bold;font-stretch:normal;font-family:'Ubuntu Mono';-inkscape-font-specification:'Ubuntu Mono Bold';text-align:center;text-anchor:middle;fill:#ffffff;stroke-width:0.264583"
         d="m 21.012415,2.7100498 q 0,-0.2187224 0.06703,-0.3845281 0.06703,-0.1658056 0.176389,-0.2751668 0.109361,-0.112889 0.250472,-0.1693335 0.141112,-0.056444 0.289278,-0.056444 0.366889,0 0.55739,0.2187223 0.1905,0.2151946 0.1905,0.6314727 0,0.042333 -0.0035,0.088195 0,0.045861 -0.0035,0.074083 h -1.075973 q 0,0.1622779 0.134056,0.257528 0.134056,0.091722 0.345722,0.091722 0.130528,0 0.246945,-0.028222 0.119944,-0.028222 0.201083,-0.056445 l 0.05997,0.370417 q -0.112889,0.038806 -0.239889,0.0635 -0.127,0.028222 -0.285751,0.028222 -0.211666,0 -0.381,-0.052917 Q 21.375832,3.4544114 21.255887,3.3485776 21.13947,3.2392164 21.07597,3.0804663 21.01247,2.9217162 21.01247,2.7100494 Z m 1.111251,-0.1728613 q 0,-0.067028 -0.01764,-0.127 -0.01764,-0.0635 -0.05644,-0.112889 -0.03881,-0.049389 -0.09878,-0.077611 -0.05997,-0.03175 -0.148167,-0.03175 -0.08467,0 -0.148167,0.028222 -0.05997,0.028222 -0.102305,0.077611 -0.03881,0.049389 -0.0635,0.112889 -0.02117,0.0635 -0.02822,0.1305278 z"
         inkscape:connector-curvature="0" />
      <path
         id="path1550"
         style="font-style:normal;font-variant:normal;font-weight:bold;font-stretch:normal;font-family:'Ubuntu Mono';-inkscape-font-specification:'Ubuntu Mono Bold';text-align:center;text-anchor:middle;fill:#ffffff;stroke-width:0.264583"
         d="m 12.245882,7.9805532 q -0.462139,0 -0.705556,-0.2963336 -0.243417,-0.2963335 -0.243417,-0.8431394 0,-0.2716391 0.07408,-0.4833059 0.07408,-0.2116668 0.204612,-0.3563057 0.134055,-0.1481668 0.313972,-0.2222502 0.183445,-0.077611 0.398639,-0.077611 0.116417,0 0.208139,0.021167 0.09525,0.017639 0.165806,0.042333 0.07056,0.024694 0.116417,0.052917 0.04939,0.028222 0.07408,0.042333 l -0.112889,0.3457224 q -0.08114,-0.052917 -0.197556,-0.088195 -0.112889,-0.038806 -0.261055,-0.038806 -0.102306,0 -0.201084,0.038806 -0.09525,0.035278 -0.172861,0.1234723 -0.07408,0.084667 -0.123472,0.2293057 -0.04586,0.144639 -0.04586,0.3598336 0,0.3739447 0.127,0.5750281 0.130528,0.1975557 0.423334,0.1975557 0.169334,0 0.278695,-0.038806 0.112889,-0.038806 0.179917,-0.077611 l 0.109361,0.3421946 q -0.09172,0.056444 -0.250473,0.1058334 -0.155222,0.045861 -0.359833,0.045861 z"
         inkscape:connector-curvature="0" />
      <path
         id="path1552"
         style="font-style:normal;font-variant:normal;font-weight:bold;font-stretch:normal;font-family:'Ubuntu Mono';-inkscape-font-specification:'Ubuntu Mono Bold';text-align:center;text-anchor:middle;fill:#ffffff;stroke-width:0.264583"
         d="m 14.630661,7.1021359 q 0,0.1975557 -0.05644,0.3598336 -0.05645,0.1587501 -0.158751,0.2751668 -0.102305,0.1164168 -0.246944,0.1799168 -0.141111,0.0635 -0.3175,0.0635 -0.176389,0 -0.321028,-0.0635 -0.141112,-0.0635 -0.246945,-0.1799168 -0.102306,-0.1164167 -0.15875,-0.2751668 -0.05645,-0.1622779 -0.05645,-0.3598336 0,-0.1940279 0.05645,-0.352778 0.05997,-0.1622779 0.162278,-0.2751668 0.105833,-0.1164168 0.250472,-0.176389 0.144639,-0.0635 0.313973,-0.0635 0.172861,0 0.313972,0.0635 0.144639,0.059972 0.246945,0.176389 0.105833,0.1128889 0.162278,0.2751668 0.05644,0.1587501 0.05644,0.352778 z m -1.121834,0.00353 q 0,0.2222502 0.07761,0.3598336 0.08114,0.1375834 0.257528,0.1375834 0.169334,0 0.254,-0.1375834 0.0882,-0.1375834 0.0882,-0.3598336 0,-0.2222501 -0.08114,-0.3563058 -0.07761,-0.1375834 -0.254,-0.1375834 -0.169334,0 -0.257528,0.1375834 -0.08467,0.1340557 -0.08467,0.3563058 z"
         inkscape:connector-curvature="0" />
      <path
         id="path1554"
         style="font-style:normal;font-variant:normal;font-weight:bold;font-stretch:normal;font-family:'Ubuntu Mono';-inkscape-font-specification:'Ubuntu Mono Bold';text-align:center;text-anchor:middle;fill:#ffffff;stroke-width:0.264583"
         d="m 15.939467,6.2589965 q 0.137584,0 0.225778,0.042333 0.0882,0.042333 0.137584,0.127 0.05292,0.084667 0.07056,0.2151946 0.01764,0.1270001 0.01764,0.2998613 V 7.934692 H 16.038245 V 6.9222191 q 0,-0.098778 -0.01411,-0.1587501 -0.01058,-0.059972 -0.03175,-0.091722 -0.01764,-0.03175 -0.04586,-0.042333 -0.02469,-0.010583 -0.05292,-0.010583 -0.03175,0 -0.06703,0.00706 -0.03528,0.00353 -0.0635,0.017639 0.01058,0.067028 0.01764,0.1481668 0.0071,0.081139 0.0071,0.1799168 v 0.3316058 h -0.35282 V 6.9222191 q 0,-0.1693334 -0.03528,-0.2363612 -0.03175,-0.067028 -0.105833,-0.067028 -0.02117,0 -0.05292,0.00353 -0.02822,0.00353 -0.05644,0.010583 V 7.934692 H 14.831745 V 6.3401354 q 0.137583,-0.038806 0.271639,-0.059972 0.134055,-0.021167 0.236361,-0.021167 0.09172,0 0.162278,0.024694 0.07408,0.021167 0.127,0.074083 0.05997,-0.038805 0.141111,-0.067028 0.08114,-0.03175 0.169333,-0.03175 z"
         inkscape:connector-curvature="0" />
      <path
         id="path1556"
         style="font-style:normal;font-variant:normal;font-weight:bold;font-stretch:normal;font-family:'Ubuntu Mono';-inkscape-font-specification:'Ubuntu Mono Bold';text-align:center;text-anchor:middle;fill:#ffffff;stroke-width:0.264583"
         d="m 17.703357,6.2589965 q 0.137584,0 0.225778,0.042333 0.0882,0.042333 0.137584,0.127 0.05292,0.084667 0.07056,0.2151946 0.01764,0.1270001 0.01764,0.2998613 V 7.934692 H 17.802135 V 6.9222191 q 0,-0.098778 -0.01411,-0.1587501 -0.01058,-0.059972 -0.03175,-0.091722 -0.01764,-0.03175 -0.04586,-0.042333 -0.02469,-0.010583 -0.05292,-0.010583 -0.03175,0 -0.06703,0.00706 -0.03528,0.00353 -0.0635,0.017639 0.01058,0.067028 0.01764,0.1481668 0.0071,0.081139 0.0071,0.1799168 v 0.3316058 h -0.35282 V 6.9222191 q 0,-0.1693334 -0.03528,-0.2363612 -0.03175,-0.067028 -0.105834,-0.067028 -0.02117,0 -0.05292,0.00353 -0.02822,0.00353 -0.05645,0.010583 V 7.934692 H 16.595634 V 6.3401354 q 0.137584,-0.038806 0.271639,-0.059972 0.134056,-0.021167 0.236362,-0.021167 0.09172,0 0.162278,0.024694 0.07408,0.021167 0.127,0.074083 0.05997,-0.038805 0.141111,-0.067028 0.08114,-0.03175 0.169333,-0.03175 z"
         inkscape:connector-curvature="0" />
      <path
         id="path1558"
         style="font-style:normal;font-variant:normal;font-weight:bold;font-stretch:normal;font-family:'Ubuntu Mono';-inkscape-font-specification:'Ubuntu Mono Bold';text-align:center;text-anchor:middle;fill:#ffffff;stroke-width:0.264583"
         d="m 19.802387,7.8782475 q -0.119945,0.03175 -0.292806,0.0635 -0.169334,0.03175 -0.370417,0.03175 -0.204611,0 -0.335139,-0.056444 Q 18.673497,7.8606086 18.595886,7.758303 18.521802,7.6524696 18.49358,7.5113584 18.465358,7.3702472 18.465358,7.2009138 V 6.2766354 h 0.433917 v 0.8678339 q 0,0.2293057 0.05292,0.3421947 0.05644,0.1093611 0.215194,0.1093611 0.09878,0 0.197556,-0.017639 V 6.2766354 h 0.437445 z"
         inkscape:connector-curvature="0" />
      <path
         id="path1560"
         style="font-style:normal;font-variant:normal;font-weight:bold;font-stretch:normal;font-family:'Ubuntu Mono';-inkscape-font-specification:'Ubuntu Mono Bold';text-align:center;text-anchor:middle;fill:#ffffff;stroke-width:0.264583"
         d="m 20.243359,6.3295521 q 0.116417,-0.03175 0.285751,-0.059972 0.172861,-0.028222 0.373944,-0.028222 0.197556,0 0.328084,0.056445 0.130528,0.052917 0.204611,0.1552223 0.07761,0.098778 0.109361,0.239889 0.03175,0.1375835 0.03175,0.3069169 V 7.934692 H 21.142943 V 7.0562748 q 0,-0.2328335 -0.05292,-0.3351391 -0.05292,-0.1023056 -0.215195,-0.1023056 -0.04939,0 -0.09878,0.00353 -0.04586,0.00353 -0.09878,0.010583 V 7.934692 h -0.433917 z"
         inkscape:connector-curvature="0" />
      <path
         id="path1562"
         style="font-style:normal;font-variant:normal;font-weight:bold;font-stretch:normal;font-family:'Ubuntu Mono';-inkscape-font-specification:'Ubuntu Mono Bold';text-align:center;text-anchor:middle;fill:#ffffff;stroke-width:0.264583"
         d="m 22.786888,5.8003851 q 0,0.1270001 -0.08114,0.2010835 -0.08114,0.074083 -0.194028,0.074083 -0.112889,0 -0.194028,-0.074083 -0.07761,-0.074083 -0.07761,-0.2010835 0,-0.1305279 0.07761,-0.2046113 0.08114,-0.074083 0.194028,-0.074083 0.112889,0 0.194028,0.074083 0.08114,0.074083 0.08114,0.2046113 z m 0.645584,2.0637513 q -0.134056,0.0635 -0.254,0.084667 -0.116417,0.024694 -0.215195,0.024694 -0.169333,0 -0.28575,-0.049389 -0.112889,-0.049389 -0.183445,-0.1411112 -0.06703,-0.09525 -0.09525,-0.2293057 Q 22.37061,7.4196361 22.37061,7.2467749 V 6.636469 H 21.911999 V 6.2766354 h 0.892528 v 1.026584 q 0,0.1481668 0.05292,0.2222501 0.05644,0.070556 0.183444,0.070556 0.05997,0 0.144639,-0.014111 0.08467,-0.017639 0.1905,-0.067028 z"
         inkscape:connector-curvature="0" />
      <path
         id="path1564"
         style="font-style:normal;font-variant:normal;font-weight:bold;font-stretch:normal;font-family:'Ubuntu Mono';-inkscape-font-specification:'Ubuntu Mono Bold';text-align:center;text-anchor:middle;fill:#ffffff;stroke-width:0.264583"
         d="M 24.053361,6.636469 H 23.675889 V 6.2766354 h 0.377472 v -0.416278 l 0.433917,-0.070556 V 6.276635 h 0.694973 v 0.359834 h -0.694973 v 0.6702782 q 0,0.091722 0.01764,0.1481667 0.01764,0.056444 0.04939,0.088195 0.03175,0.03175 0.07761,0.042333 0.04586,0.010583 0.102306,0.010583 0.05997,0 0.109361,-0.00353 0.05292,-0.00353 0.09878,-0.010583 0.04939,-0.010583 0.09878,-0.028222 0.05292,-0.017639 0.112889,-0.045861 l 0.05997,0.3739447 q -0.119945,0.049389 -0.261056,0.070556 -0.137583,0.021167 -0.268111,0.021167 -0.151695,0 -0.268111,-0.024694 Q 24.300309,7.9241086 24.21917,7.8535526 24.13803,7.7829966 24.095698,7.6559969 24.053368,7.525469 24.053368,7.31733 Z"
         inkscape:connector-curvature="0" />
      <path
         id="path1566"
         style="font-style:normal;font-variant:normal;font-weight:bold;font-stretch:normal;font-family:'Ubuntu Mono';-inkscape-font-specification:'Ubuntu Mono Bold';text-align:center;text-anchor:middle;fill:#ffffff;stroke-width:0.264583"
         d="m 26.977891,6.2766354 q -0.06703,0.2328335 -0.130528,0.4586114 -0.05997,0.2222501 -0.127,0.4374447 -0.06703,0.2116668 -0.144639,0.4162781 -0.07408,0.2046112 -0.162278,0.3986391 -0.06703,0.1411112 -0.134055,0.2434168 -0.0635,0.1023057 -0.144639,0.1658057 -0.07761,0.067028 -0.176389,0.098778 -0.09525,0.03175 -0.225778,0.03175 -0.109361,0 -0.201084,-0.017639 -0.08819,-0.017639 -0.148166,-0.045861 l 0.08114,-0.3633613 q 0.07056,0.03175 0.123472,0.042333 0.05644,0.014111 0.119944,0.014111 0.127001,0 0.204612,-0.084667 0.07761,-0.084667 0.123472,-0.2010834 Q 25.880752,7.5607473 25.725529,7.1621082 25.570307,6.7599413 25.443307,6.2766354 h 0.451556 q 0.03175,0.1305279 0.07055,0.2786946 0.04233,0.1481668 0.08819,0.2963335 0.04586,0.1481668 0.09525,0.2928058 0.05292,0.1411112 0.105833,0.2645835 0.03528,-0.1234723 0.07408,-0.2645835 0.0388,-0.144639 0.07408,-0.289278 0.03528,-0.1481667 0.06703,-0.2963335 0.03528,-0.1481668 0.0635,-0.2822224 z"
         inkscape:connector-curvature="0" />
    </g>
  </g>
  <g
     inkscape:label="Layer 1"
     inkscape:groupmode="layer"
     id="layer1"
     style="display:inline">
    <path
       inkscape:export-ydpi="96"
       inkscape:export-xdpi="96"
       sodipodi:nodetypes="ccccccccccccccccccccc"
       inkscape:connector-curvature="0"
       id="path991"
       d="m 20.734695,20.145985 -2.77468,-4.770399 c -0.281804,-0.453782 0.597194,-0.840118 0.84802,-0.412156 l 2.11347,3.386944 c 0.167216,0.265511 0.56382,0.03853 0.429889,-0.215458 l -2.354758,-4.028688 c -0.300634,-0.558146 0.615869,-0.973956 0.911227,-0.427458 l 2.278242,3.808525 c 0.121695,0.223274 0.612065,0.07394 0.481337,-0.212003 L 20.69291,13.966101 c -0.2557,-0.531524 0.603203,-0.950843 0.931076,-0.416354 l 1.989942,3.241813 c 0.109438,0.224064 0.508292,0.11744 0.434324,-0.136969 l -1.38407,-2.497378 c -0.221421,-0.464432 0.653113,-0.76192 0.931848,-0.289236 l 3.080499,4.966878 c 0.668057,1.057312 0.50381,3.205912 -1.689359,3.209585 l -6.242121,0.07899 c -0.882087,-0.03323 -0.998239,-1.186931 0.01661,-1.181525 l 1.562556,-0.01228 c 0.446817,0.01892 0.610795,-0.467429 0.410585,-0.783637 z"
       style="fill:#000000;stroke:#000000;stroke-width:0.0649965px;stroke-linecap:butt;stroke-linejoin:miter;stroke-opacity:1" />
    <path
       inkscape:export-ydpi="96"
       inkscape:export-xdpi="96"
       style="fill:#000000;stroke:#000000;stroke-width:0.0649965px;stroke-linecap:butt;stroke-linejoin:miter;stroke-opacity:1"
       d="m 20.734695,20.145985 -2.77468,-4.770399 c -0.281804,-0.453782 0.597194,-0.840118 0.84802,-0.412156 l 2.11347,3.386944 c 0.167216,0.265511 0.56382,0.03853 0.429889,-0.215458 l -2.354758,-4.028688 c -0.300634,-0.558146 0.615869,-0.973956 0.911227,-0.427458 l 2.278242,3.808525 c 0.121695,0.223274 0.612065,0.07394 0.481337,-0.212003 L 20.69291,13.966101 c -0.2557,-0.531524 0.603203,-0.950843 0.931076,-0.416354 l 1.989942,3.241813 c 0.109438,0.224064 0.508292,0.11744 0.434324,-0.136969 l -1.38407,-2.497378 c -0.221421,-0.464432 0.653113,-0.76192 0.931848,-0.289236 l 3.080499,4.966878 c 0.668057,1.057312 0.50381,3.205912 -1.689359,3.209585 l -6.242121,0.07899 c -0.882087,-0.03323 -0.998239,-1.186931 0.01661,-1.181525 l 1.562556,-0.01228 c 0.446817,0.01892 0.610795,-0.467429 0.410585,-0.783637 z"
       id="path993"
       inkscape:connector-curvature="0"
       sodipodi:nodetypes="ccccccccccccccccccccc" />
    <path
       inkscape:export-ydpi="96"
       inkscape:export-xdpi="96"
       style="fill:#000000;fill-opacity:1;stroke:#000000;stroke-width:0.0649965px;stroke-linecap:butt;stroke-linejoin:miter;stroke-opacity:1"
       d="m 19.500177,10.993447 -3.023691,4.633257 c -0.278816,0.455429 -1.067828,-0.07686 -0.797512,-0.494078 l 2.07607,-3.407541 c 0.161997,-0.268394 -0.242493,-0.482588 -0.410291,-0.247236 l -2.547902,3.922317 c -0.365618,0.522356 -1.200238,-0.02623 -0.842743,-0.53852 l 2.382943,-3.750862 C 16.4826,10.900649 16.103362,10.571063 15.904577,10.819527 L 13.831589,14.0745 c -0.363251,0.472292 -1.172716,-0.02721 -0.842305,-0.560306 l 2.003358,-3.234425 C 15.144955,10.079313 14.85017,9.8039288 14.652426,9.9901781 l -1.616725,2.3692409 c -0.318397,0.411032 -1.023409,-0.161388 -0.725675,-0.623607 l 3.053803,-4.9815791 c 0.644002,-1.070557 2.702976,-1.9947681 3.787585,-0.1932675 l 3.150078,5.0935816 c 0.404277,0.741669 -0.600551,1.405952 -1.095844,0.56892 L 20.424,10.94473 c -0.202878,-0.37672 -0.731433,-0.271784 -0.92383,0.04873 z"
       id="path995"
       inkscape:connector-curvature="0"
       sodipodi:nodetypes="ccccccccccccccccccccc" />
    <path
       inkscape:export-ydpi="96"
       inkscape:export-xdpi="96"
       style="fill:#000000;stroke:#000000;stroke-width:0.0649965px;stroke-linecap:butt;stroke-linejoin:miter;stroke-opacity:1"
       d="m 11.484166,16.473253 5.759477,0.07369 c 0.556684,-0.0077 0.478399,0.905495 -0.03922,0.90045 l -4.159987,0.0656 c -0.326873,0.0065 -0.313734,0.444413 -0.01389,0.459684 l 4.869647,0.05278 c 0.662024,0.02836 0.59236,0.986897 -0.05633,0.959956 l -4.629283,-0.007 c -0.265531,-0.01012 -0.370121,0.466599 -0.04246,0.500269 l 4.019866,0.01022 c 0.615349,0.05215 0.577333,0.96508 -0.07636,0.970784 l -3.965459,0.0357 c -0.260213,-0.02064 -0.358938,0.359831 -0.08831,0.424593 l 2.981356,0.0949 c 0.536688,0.04722 0.378846,0.912859 -0.193732,0.908685 l -6.0912138,0.08071 C 8.4555377,22.031574 6.5592937,20.836156 7.638316,19.03166 l 3.008003,-5.169719 c 0.465921,-0.708632 1.584973,-0.234715 1.079182,0.5967 l -0.759873,1.290412 c -0.237922,0.357929 0.128717,0.732735 0.518527,0.724231 z"
       id="path997"
       inkscape:connector-curvature="0"
       sodipodi:nodetypes="ccccccccccccccccccccc" />
  </g>
  <g
     inkscape:groupmode="layer"
     id="layer2"
     inkscape:label="Layer 2"
     style="display:inline">
    <path
       inkscape:export-ydpi="96"
       inkscape:export-xdpi="96"
       style="fill:#ffff00;stroke:#000000;stroke-width:0.0649965px;stroke-linecap:butt;stroke-linejoin:miter;stroke-opacity:1"
       d="m 21.529002,19.73356 -2.774685,-4.770396 c -0.281804,-0.453787 0.597199,-0.840115 0.848022,-0.41216 l 2.113471,3.386946 c 0.167215,0.265513 0.563818,0.03853 0.429888,-0.215456 l -2.354757,-4.028689 c -0.300634,-0.558146 0.615868,-0.973954 0.911223,-0.427455 l 2.278243,3.808521 c 0.121695,0.223274 0.612065,0.07394 0.481337,-0.212 l -1.97453,-3.309193 c -0.255699,-0.531523 0.603204,-0.950842 0.931074,-0.416353 l 1.989944,3.241813 c 0.109438,0.224064 0.508291,0.117443 0.434322,-0.13697 l -1.384068,-2.497376 c -0.221434,-0.464432 0.653112,-0.761922 0.931851,-0.289237 l 3.080494,4.96688 c 0.668058,1.057309 0.50381,3.20591 -1.689356,3.209585 L 19.539356,21.711 c -0.882089,-0.03323 -0.998244,-1.186929 0.0166,-1.181525 l 1.562551,-0.01228 c 0.446822,0.01893 0.6108,-0.46743 0.41059,-0.78364 z"
       id="path92"
       inkscape:connector-curvature="0"
       sodipodi:nodetypes="ccccccccccccccccccccc" />
    <path
       inkscape:export-ydpi="96"
       inkscape:export-xdpi="96"
       sodipodi:nodetypes="ccccccccccccccccccccc"
       inkscape:connector-curvature="0"
       id="path981"
       d="m 21.529002,19.73356 -2.774685,-4.770396 c -0.281804,-0.453787 0.597199,-0.840115 0.848022,-0.41216 l 2.113471,3.386946 c 0.167215,0.265513 0.563818,0.03853 0.429888,-0.215456 l -2.354757,-4.028689 c -0.300634,-0.558146 0.615868,-0.973954 0.911223,-0.427455 l 2.278243,3.808521 c 0.121695,0.223274 0.612065,0.07394 0.481337,-0.212 l -1.97453,-3.309193 c -0.255699,-0.531523 0.603204,-0.950842 0.931074,-0.416353 l 1.989944,3.241813 c 0.109438,0.224064 0.508291,0.117443 0.434322,-0.13697 l -1.384068,-2.497376 c -0.221434,-0.464432 0.653112,-0.761922 0.931851,-0.289237 l 3.080494,4.96688 c 0.668058,1.057309 0.50381,3.20591 -1.689356,3.209585 L 19.539356,21.711 c -0.882089,-0.03323 -0.998244,-1.186929 0.0166,-1.181525 l 1.562551,-0.01228 c 0.446822,0.01893 0.6108,-0.46743 0.41059,-0.78364 z"
       style="fill:#fcba4a;fill-opacity:1;stroke:#000000;stroke-width:0.0649965px;stroke-linecap:butt;stroke-linejoin:miter;stroke-opacity:1" />
    <path
       inkscape:export-ydpi="96"
       inkscape:export-xdpi="96"
       sodipodi:nodetypes="ccccccccccccccccccccc"
       inkscape:connector-curvature="0"
       id="path919"
       d="m 20.294482,10.581024 -3.023697,4.63326 C 16.991974,15.669713 16.20296,15.137424 16.473278,14.7202 l 2.076071,-3.407537 c 0.161996,-0.268393 -0.242494,-0.482591 -0.410294,-0.247235 l -2.547902,3.922316 C 15.225536,15.5101 14.390912,14.96152 14.748412,14.449227 l 2.382941,-3.750869 c 0.145555,-0.210132 -0.233677,-0.539719 -0.432472,-0.291255 l -2.07299,3.254974 c -0.363252,0.472292 -1.172719,-0.02722 -0.842308,-0.560305 L 15.786944,9.867347 C 15.939256,9.6668919 15.644474,9.3915058 15.446727,9.5777562 L 13.83,11.947 c -0.318397,0.41103 -1.023407,-0.16139 -0.725675,-0.623609 L 16.15813,6.3418121 c 0.644009,-1.070558 2.702982,-1.9947672 3.787588,-0.1932676 l 3.150077,5.0935835 c 0.404276,0.741668 -0.600547,1.405953 -1.095841,0.568921 l -0.78165,-1.278744 c -0.202877,-0.376718 -0.731434,-0.271779 -0.92383,0.04873 z"
       style="fill:#61b075;fill-opacity:1;stroke:#000000;stroke-width:0.0649965px;stroke-linecap:butt;stroke-linejoin:miter;stroke-opacity:1" />
    <path
       inkscape:export-ydpi="96"
       inkscape:export-xdpi="96"
       sodipodi:nodetypes="ccccccccccccccccccccc"
       inkscape:connector-curvature="0"
       id="path922"
       d="m 12.278468,16.060832 5.759477,0.07369 c 0.556687,-0.0077 0.478398,0.905493 -0.03922,0.900445 l -4.159991,0.06561 c -0.326872,0.0065 -0.313733,0.444414 -0.01389,0.459685 l 4.869652,0.05278 c 0.662027,0.02836 0.592363,0.986896 -0.05633,0.959953 l -4.629287,-0.007 c -0.265533,-0.01012 -0.370121,0.466596 -0.04246,0.500268 l 4.019868,0.01022 c 0.615352,0.05215 0.577336,0.965078 -0.07636,0.970782 l -3.965463,0.0357 c -0.260214,-0.02064 -0.35894,0.359827 -0.08831,0.42459 l 2.981362,0.09491 c 0.536684,0.04721 0.378844,0.912859 -0.193731,0.908687 l -6.091213,0.08073 c -1.3027281,0.0273 -3.198973,-1.16812 -2.1199498,-2.972614 L 11.440626,13.44955 c 0.465921,-0.708632 1.584973,-0.234717 1.079181,0.596698 l -0.759871,1.290386 c -0.237924,0.357931 0.128714,0.732738 0.518526,0.724234 z"
       style="fill:#5599ff;stroke:#000000;stroke-width:0.0649965px;stroke-linecap:butt;stroke-linejoin:miter;stroke-opacity:1" />
    <path
       style="fill:url(#linearGradient2294);fill-opacity:1;stroke:#000000;stroke-width:0.0649965px;stroke-linecap:butt;stroke-linejoin:miter;stroke-opacity:1"
       d="m 20.294482,10.581024 -3.023697,4.63326 C 16.991974,15.669713 16.20296,15.137424 16.473278,14.7202 l 2.076071,-3.407537 c 0.161996,-0.268393 -0.242494,-0.482591 -0.410294,-0.247235 l -2.547902,3.922316 C 15.225536,15.5101 14.390912,14.96152 14.748412,14.449227 l 2.382941,-3.750869 c 0.145555,-0.210132 -0.233677,-0.539719 -0.432472,-0.291255 l -2.07299,3.254974 c -0.363252,0.472292 -1.172719,-0.02722 -0.842308,-0.560305 L 15.786944,9.867347 C 15.939256,9.6668919 15.644474,9.3915058 15.446727,9.5777562 L 13.83,11.947 c -0.318397,0.41103 -1.023407,-0.16139 -0.725675,-0.623609 L 16.15813,6.3418121 c 0.644009,-1.070558 2.702982,-1.9947672 3.787588,-0.1932676 l 3.150077,5.0935835 c 0.404276,0.741668 -0.600547,1.405953 -1.095841,0.568921 l -0.78165,-1.278744 c -0.202877,-0.376718 -0.731434,-0.271779 -0.92383,0.04873 z"
       id="path2260"
       inkscape:connector-curvature="0"
       sodipodi:nodetypes="ccccccccccccccccccccc"
       inkscape:export-xdpi="96"
       inkscape:export-ydpi="96" />
    <path
       style="fill:url(#linearGradient2397);fill-opacity:1;stroke:#000000;stroke-width:0.0649965px;stroke-linecap:butt;stroke-linejoin:miter;stroke-opacity:1"
       d="m 12.325199,16.060846 5.759479,0.07369 c 0.556684,-0.0077 0.478399,0.905493 -0.03922,0.900447 l -4.159994,0.06561 c -0.326872,0.0065 -0.313733,0.444414 -0.01389,0.459685 l 4.869652,0.05278 c 0.662027,0.02836 0.592363,0.986897 -0.05635,0.959953 l -4.629259,-0.007 c -0.265533,-0.01011 -0.37012,0.466596 -0.04246,0.500269 l 4.019869,0.01022 c 0.61535,0.05215 0.577334,0.965077 -0.07636,0.970782 l -3.965462,0.0357 c -0.260215,-0.02063 -0.35894,0.359828 -0.0883,0.424591 l 2.981364,0.0949 c 0.536683,0.04721 0.378841,0.912859 -0.193732,0.908687 l -6.091222,0.08071 C 9.2965858,21.61917 7.4003419,20.423753 8.4793641,18.619258 L 11.487368,13.44954 c 0.465921,-0.70863 1.584973,-0.234716 1.079181,0.596699 l -0.759871,1.29041 c -0.237924,0.357931 0.128714,0.732739 0.518526,0.724234 z"
       id="path2331"
       inkscape:connector-curvature="0"
       sodipodi:nodetypes="ccccccccccccccccccccc"
       inkscape:export-xdpi="96"
       inkscape:export-ydpi="96" />
    <path
       style="fill:url(#linearGradient2417);fill-opacity:1;stroke:#000000;stroke-width:0.0649965px;stroke-linecap:butt;stroke-linejoin:miter;stroke-opacity:1"
       d="m 21.529002,19.73356 -2.774685,-4.770396 c -0.281804,-0.453787 0.597199,-0.840115 0.848022,-0.41216 l 2.113471,3.386946 c 0.167215,0.265513 0.563818,0.03853 0.429888,-0.215456 l -2.354757,-4.028689 c -0.300634,-0.558146 0.615868,-0.973954 0.911223,-0.427455 l 2.278243,3.808521 c 0.121695,0.223274 0.612065,0.07394 0.481337,-0.212 l -1.97453,-3.309193 c -0.255699,-0.531523 0.603204,-0.950842 0.931074,-0.416353 l 1.989944,3.241813 c 0.109438,0.224064 0.508291,0.117443 0.434322,-0.13697 l -1.384068,-2.497376 c -0.221434,-0.464432 0.653112,-0.761922 0.931851,-0.289237 l 3.080494,4.96688 c 0.668058,1.057309 0.50381,3.20591 -1.689356,3.209585 L 19.539356,21.711 c -0.882089,-0.03323 -0.998244,-1.186929 0.0166,-1.181525 l 1.562551,-0.01228 c 0.446822,0.01893 0.6108,-0.46743 0.41059,-0.78364 z"
       id="path2401"
       inkscape:connector-curvature="0"
       sodipodi:nodetypes="ccccccccccccccccccccc"
       inkscape:export-xdpi="96"
       inkscape:export-ydpi="96" />
  </g>
  <g
     inkscape:groupmode="layer"
     id="layer3"
     inkscape:label="Layer 3" />
</svg>
