<?xml version="1.0" encoding="utf-8"?>
<!-- Generator: Adobe Illustrator 24.0.2, SVG Export Plug-In . SVG Version: 6.00 Build 0)  -->
<svg version="1.1"
	 id="svg8" inkscape:export-filename="/Applications/MAMP/htdocs/GrapeCommunity/app/GrapeCommunity/resources/splash.png" inkscape:export-xdpi="96" inkscape:export-ydpi="96" inkscape:version="1.0beta2 (2b71d25, 2019-12-03)" sodipodi:docname="app_gc_logo copy.svg" xmlns:cc="http://creativecommons.org/ns#" xmlns:dc="http://purl.org/dc/elements/1.1/" xmlns:inkscape="http://www.inkscape.org/namespaces/inkscape" xmlns:osb="http://www.openswatchbook.org/uri/2009/osb" xmlns:rdf="http://www.w3.org/1999/02/22-rdf-syntax-ns#" xmlns:sodipodi="http://sodipodi.sourceforge.net/DTD/sodipodi-0.dtd" xmlns:svg="http://www.w3.org/2000/svg"
	 xmlns="http://www.w3.org/2000/svg" xmlns:xlink="http://www.w3.org/1999/xlink" x="0px" y="0px" viewBox="0 0 300 100"
	 style="enable-background:new 0 0 300 100;" xml:space="preserve">
<style type="text/css">
	.st0{fill:#4D4D4D;}
	.st1{fill:#FFCC00;}
</style>
<defs>
	
		<inkscape:perspective  id="perspective2422" inkscape:persp3d-origin="135.46667 : -154.16389 : 1" inkscape:vp_x="0 : -109.00833 : 1" inkscape:vp_y="0 : 1000 : 0" inkscape:vp_z="270.93333 : -109.00833 : 1" sodipodi:type="inkscape:persp3d">
		</inkscape:perspective>
	
		<inkscape:perspective  id="perspective4220" inkscape:persp3d-origin="511.99998 : 166.66667 : 1" inkscape:vp_x="0 : 250 : 1" inkscape:vp_y="0 : 999.99999 : 0" inkscape:vp_z="1024 : 250 : 1" sodipodi:type="inkscape:persp3d">
		</inkscape:perspective>
	
		<inkscape:perspective  id="perspective4220-8" inkscape:persp3d-origin="511.99998 : 166.66667 : 1" inkscape:vp_x="0 : 250 : 1" inkscape:vp_y="0 : 999.99999 : 0" inkscape:vp_z="1024 : 250 : 1" sodipodi:type="inkscape:persp3d">
		</inkscape:perspective>
	
		<inkscape:perspective  id="perspective4220-9" inkscape:persp3d-origin="512 : 166.66667 : 1" inkscape:vp_x="0 : 250 : 1" inkscape:vp_y="0 : 1000 : 0" inkscape:vp_z="1024 : 250 : 1" sodipodi:type="inkscape:persp3d">
		</inkscape:perspective>
</defs>
<sodipodi:namedview  bordercolor="#666666" borderopacity="1.0" id="base" inkscape:current-layer="layer5" inkscape:cx="116.66667" inkscape:cy="49.583333" inkscape:document-rotation="0" inkscape:document-units="mm" inkscape:guide-bbox="true" inkscape:pageopacity="0.0" inkscape:pageshadow="2" inkscape:window-height="706" inkscape:window-maximized="0" inkscape:window-width="1280" inkscape:window-x="0" inkscape:window-y="23" inkscape:zoom="1.83" pagecolor="#ffffff" showgrid="false" showguides="true" units="px">
	<sodipodi:guide  id="guide1690" orientation="0,-1" position="-10.869369,136.42489"></sodipodi:guide>
	<sodipodi:guide  id="guide2258" orientation="1,0" position="136.54645,136.42489"></sodipodi:guide>
	<sodipodi:guide  id="guide8065" orientation="0,-1" position="375.26906,361.4074"></sodipodi:guide>
	<sodipodi:guide  id="guide8067" orientation="1,0" position="360.85781,382.15961"></sodipodi:guide>
</sodipodi:namedview>
<g id="layer5" inkscape:groupmode="layer" inkscape:label="rectangle">
	<path id="rect2438" class="st0" d="M21.2,2.2h260.7c6.6,0,12,5.4,12,12v70.9c0,6.6-5.4,12-12,12H21.2c-6.6,0-12-5.4-12-12V14.2
		C9.2,7.6,14.5,2.2,21.2,2.2z"/>
</g>
<g id="layer1" inkscape:groupmode="layer" inkscape:label="Layer 1">
</g>
<g id="layer2" inkscape:groupmode="layer" inkscape:label="Layer 2">
</g>
<g id="layer3" inkscape:groupmode="layer" inkscape:label="Layer 3">
</g>
<g id="g18" inkscape:groupmode="layer" inkscape:label="Image">
	<g id="text24" transform="matrix(0.92407939,0,0,1.0821581,-16,10)">
		<path id="path33" d="M168.1,69.3c-4,0-7.7-0.6-11.1-1.8c-3.4-1.2-6.3-2.9-8.7-5.3c-2.4-2.3-4.3-5.3-5.7-8.7c-1.3-3.5-2-7.5-2-12.1
			c0-4.3,0.6-8.1,1.9-11.6c1.3-3.5,3.1-6.4,5.6-8.9c2.3-2.4,5.2-4.2,8.7-5.5c3.5-1.3,7.2-1.9,11.3-1.9c2.3,0,4.3,0.1,6.1,0.4
			c1.8,0.2,3.5,0.6,5.1,1c1.6,0.5,3.1,1,4.4,1.6c1.3,0.5,2.5,1.1,3.5,1.6v13h-1.6c-0.7-0.6-1.5-1.3-2.6-2.1c-1-0.8-2.2-1.6-3.5-2.3
			c-1.3-0.8-2.8-1.4-4.3-1.9c-1.5-0.5-3.2-0.8-5-0.8c-1.9,0-3.8,0.3-5.6,0.9c-1.8,0.6-3.4,1.6-4.9,3c-1.4,1.4-2.6,3.2-3.5,5.5
			c-0.9,2.3-1.3,5-1.3,8.2c0,3.4,0.5,6.2,1.4,8.5c1,2.3,2.2,4,3.6,5.3c1.5,1.3,3.1,2.3,4.9,2.8c1.8,0.5,3.6,0.8,5.3,0.8
			c1.7,0,3.4-0.3,5-0.8c1.7-0.5,3.2-1.2,4.6-2.1c1.2-0.7,2.3-1.4,3.3-2.2c1-0.8,1.8-1.5,2.5-2.1h1.4v12.9c-1.3,0.6-2.6,1.2-3.9,1.7
			c-1.2,0.5-2.5,1-3.9,1.4c-1.8,0.5-3.4,0.9-5,1.2C172.9,69.2,170.8,69.3,168.1,69.3L168.1,69.3z"/>
	</g>
	<g id="text28" transform="translate(-16,10)">
		<path id="path30" d="M200.3,34.2h-21.7v-4.6c1.7-1.2,3.3-2.5,5-3.8c1.7-1.3,3-2.5,4-3.5c1.5-1.5,2.6-2.7,3.2-3.8
			c0.6-1.1,0.9-2.1,0.9-3.2c0-1.3-0.4-2.2-1.2-2.9c-0.8-0.7-2-1-3.5-1c-1.1,0-2.3,0.2-3.6,0.7c-1.2,0.5-2.4,1.1-3.5,1.8h-0.6V7.8
			c0.9-0.4,2.2-0.8,3.9-1.2c1.7-0.4,3.4-0.6,5.2-0.6c3.5,0,6.1,0.7,7.9,2.2c1.8,1.5,2.7,3.5,2.7,6.2c0,1.8-0.4,3.4-1.3,5
			c-0.9,1.6-2.2,3.2-4,4.9c-1.1,1-2.3,2-3.4,2.9c-1.1,0.9-1.9,1.5-2.4,1.8h12.4L200.3,34.2z"/>
	</g>
	<g id="g50" transform="matrix(0.92407939,0,0,1.0821581,-28,-6)">
		<path id="path48" class="st1" d="M179.3,82c-4,0-7.7-0.6-11.1-1.8c-3.4-1.2-6.3-2.9-8.7-5.3c-2.4-2.3-4.3-5.3-5.7-8.7
			c-1.3-3.5-2-7.5-2-12.1c0-4.3,0.6-8.1,1.9-11.6c1.3-3.5,3.1-6.4,5.6-8.9c2.3-2.4,5.2-4.2,8.7-5.5c3.5-1.3,7.2-1.9,11.3-1.9
			c2.3,0,4.3,0.1,6.1,0.4c1.8,0.2,3.5,0.6,5.1,1c1.6,0.5,3.1,1,4.4,1.6c1.3,0.5,2.5,1.1,3.5,1.6v13h-1.6c-0.7-0.6-1.5-1.3-2.6-2.1
			c-1-0.8-2.2-1.6-3.5-2.3c-1.3-0.8-2.8-1.4-4.3-1.9c-1.5-0.5-3.2-0.8-5-0.8c-1.9,0-3.8,0.3-5.6,0.9c-1.8,0.6-3.4,1.6-4.9,3
			c-1.4,1.4-2.6,3.2-3.5,5.5c-0.9,2.3-1.3,5-1.3,8.2c0,3.4,0.5,6.2,1.4,8.5c1,2.3,2.2,4,3.6,5.3c1.5,1.3,3.1,2.3,4.9,2.8
			c1.8,0.5,3.6,0.8,5.3,0.8c1.7,0,3.4-0.3,5-0.8c1.7-0.5,3.2-1.2,4.6-2.1c1.2-0.7,2.3-1.4,3.3-2.2c1-0.8,1.8-1.5,2.5-2.1h1.4v12.9
			c-1.3,0.6-2.6,1.2-3.9,1.7c-1.2,0.5-2.5,1-3.9,1.4c-1.8,0.5-3.4,0.9-5,1.2C184.1,81.8,182,82,179.3,82L179.3,82z"/>
	</g>
	<g id="g54" transform="translate(-28,-6)">
		<path id="path52" class="st1" d="M210.6,48h-21.7v-4.6c1.7-1.2,3.3-2.5,5-3.8c1.7-1.3,3-2.5,4-3.5c1.5-1.5,2.6-2.7,3.2-3.8
			c0.6-1.1,0.9-2.1,0.9-3.2c0-1.3-0.4-2.2-1.2-2.9c-0.8-0.7-2-1-3.5-1c-1.1,0-2.3,0.2-3.6,0.7c-1.2,0.5-2.4,1.1-3.5,1.8h-0.6v-6.1
			c0.9-0.4,2.2-0.8,3.9-1.2c1.7-0.4,3.4-0.6,5.2-0.6c3.5,0,6.1,0.7,7.9,2.2c1.8,1.5,2.7,3.5,2.7,6.2c0,1.8-0.4,3.4-1.3,5
			c-0.9,1.6-2.2,3.2-4,4.9c-1.1,1-2.3,2-3.4,2.9c-1.1,0.9-1.9,1.5-2.4,1.8h12.4L210.6,48z"/>
	</g>
</g>
</svg>
