<?xml version="1.0" encoding="UTF-8" standalone="no"?>
<svg
   xmlns:osb="http://www.openswatchbook.org/uri/2009/osb"
   xmlns:dc="http://purl.org/dc/elements/1.1/"
   xmlns:cc="http://creativecommons.org/ns#"
   xmlns:rdf="http://www.w3.org/1999/02/22-rdf-syntax-ns#"
   xmlns:svg="http://www.w3.org/2000/svg"
   xmlns="http://www.w3.org/2000/svg"
   xmlns:xlink="http://www.w3.org/1999/xlink"
   xmlns:sodipodi="http://sodipodi.sourceforge.net/DTD/sodipodi-0.dtd"
   xmlns:inkscape="http://www.inkscape.org/namespaces/inkscape"
   inkscape:export-ydpi="96"
   inkscape:export-xdpi="96"
   inkscape:export-filename="/Applications/MAMP/htdocs/GrapeCommunity/app/GrapeCommunity/resources/splash.png"
   sodipodi:docname="app_gc_logo copy.svg"
   inkscape:version="1.0beta2 (2b71d25, 2019-12-03)"
   id="svg8"
   version="1.1"
   viewBox="0 0 79.375 26.458333"
   height="100"
   width="300">
  <defs
     id="defs2">
    <inkscape:perspective
       id="perspective2422"
       inkscape:persp3d-origin="135.46667 : -154.16389 : 1"
       inkscape:vp_z="270.93333 : -109.00833 : 1"
       inkscape:vp_y="0 : 1000 : 0"
       inkscape:vp_x="0 : -109.00833 : 1"
       sodipodi:type="inkscape:persp3d" />
    <linearGradient
       id="linearGradient4897"
       inkscape:collect="always">
      <stop
         id="stop4899"
         offset="0"
         style="stop-color:#000000;stop-opacity:1;" />
      <stop
         id="stop4901"
         offset="1"
         style="stop-color:#000000;stop-opacity:0;" />
    </linearGradient>
    <linearGradient
       id="linearGradient7529"
       osb:paint="gradient">
      <stop
         style="stop-color:#00cdff;stop-opacity:0.99215686;"
         offset="0"
         id="stop7531" />
      <stop
         style="stop-color:#000000;stop-opacity:0;"
         offset="1"
         id="stop7533" />
    </linearGradient>
    <inkscape:perspective
       sodipodi:type="inkscape:persp3d"
       inkscape:vp_x="0 : 250 : 1"
       inkscape:vp_y="0 : 999.99999 : 0"
       inkscape:vp_z="1024 : 250 : 1"
       inkscape:persp3d-origin="511.99998 : 166.66667 : 1"
       id="perspective4220" />
    <linearGradient
       y2="535.31879"
       x2="612.37225"
       y1="661.0376"
       x1="914.50299"
       gradientUnits="userSpaceOnUse"
       id="linearGradient1286"
       xlink:href="#linearGradient4897"
       inkscape:collect="always" />
  </defs>
  <sodipodi:namedview
     units="px"
     inkscape:window-maximized="0"
     inkscape:window-y="23"
     inkscape:window-x="0"
     inkscape:window-height="706"
     inkscape:window-width="1280"
     showgrid="false"
     inkscape:document-rotation="0"
     inkscape:current-layer="layer5"
     inkscape:document-units="mm"
     inkscape:cy="49.583333"
     inkscape:cx="116.66667"
     inkscape:zoom="1.83"
     inkscape:pageshadow="2"
     inkscape:pageopacity="0.0"
     borderopacity="1.0"
     bordercolor="#666666"
     pagecolor="#ffffff"
     id="base"
     showguides="true"
     inkscape:guide-bbox="true">
    <sodipodi:guide
       position="-10.869369,136.42489"
       orientation="0,-1"
       id="guide1690" />
    <sodipodi:guide
       id="guide2258"
       orientation="1,0"
       position="136.54645,136.42489" />
    <sodipodi:guide
       position="375.26906,361.4074"
       orientation="0,-1"
       id="guide8065" />
    <sodipodi:guide
       position="360.85781,382.15961"
       orientation="1,0"
       id="guide8067" />
  </sodipodi:namedview>
  <metadata
     id="metadata5">
    <rdf:RDF>
      <cc:Work
         rdf:about="">
        <dc:format>image/svg+xml</dc:format>
        <dc:type
           rdf:resource="http://purl.org/dc/dcmitype/StillImage" />
        <dc:title />
      </cc:Work>
    </rdf:RDF>
  </metadata>
  <g
     inkscape:label="rectangle"
     id="layer5"
     inkscape:groupmode="layer"
     style="display:inline">
    <rect
       ry="3.1714463"
       y="0.58796358"
       x="2.4253471"
       height="25.106016"
       width="75.318054"
       id="rect2438"
       style="opacity:1;fill:#4d4d4d;fill-opacity:1;stroke:none;stroke-width:0;stroke-linecap:round;stroke-linejoin:round;stroke-miterlimit:4;stroke-dasharray:none;paint-order:markers stroke fill" />
    <g
       style="fill:#000000"
       transform="matrix(0.37019977,0,0,0.37019977,6.2945537,3.276263)"
       id="g1254">
      <g
         inkscape:label="Layer 1"
         id="layer1-9"
         transform="translate(0,-1002.3622)"
         style="display:inline;fill:#000000">
        <g
           style="fill:#000000"
           id="g16939"
           transform="matrix(0.05686768,0,0,0.05376213,-4.7253174,1001.7042)">
          <g
             style="fill:#000000"
             inkscape:label="Layer 1"
             id="layer1-4" />
          <path
             sodipodi:nodetypes="cccccccccccccccccscscsccccccccscscsccccs"
             inkscape:connector-curvature="0"
             id="text4920"
             d="m 189.74967,71.66037 v 228.74999 h 92.5 v -136.25 h 180 v 690 h -137.5 v 92.5 h 140.13867 v 1.8809 h 97.36329 v -1.8809 h 141.24804 v -92.5 h -137.5 v -132.6426 c 19.71757,23.6765 44.07814,41.5043 73.08789,53.4746 31.22599,12.4801 68.41726,18.7188 111.57227,18.7188 71.57416,0 129.64079,-21.0596 174.19922,-63.1797 44.90928,-42.1201 67.36328,-97.5005 67.36328,-166.1406 0,-68.6401 -22.454,-124.0206 -67.36328,-166.1407 -44.55843,-42.12 -102.62506,-63.1796 -174.19922,-63.1796 -43.15501,0 -80.34628,6.3713 -111.57227,19.1113 -29.00977,11.726 -53.37031,29.4222 -73.08789,53.084 v -243.1055 h 181.25 v 136.25 h 92.5 V 71.66037 Z m 537.22656,323.47069 c 51.22465,0 91.39868,15.0802 120.51954,45.2402 29.47171,29.9001 -180.01742,67.94208 -180.01742,120.72218 0,52.78 209.48913,97.54752 180.01742,127.70752 -29.12086,29.9001 -69.29489,44.8496 -120.51954,44.8496 -51.22464,0 -91.5732,-14.9495 -121.04492,-44.8496 -20.60175,-21.3369 -33.90474,-48.3418 -39.93164,-81 v -86.7871 c 6.02698,-32.604 19.33006,-59.4898 39.93164,-80.6426 29.47172,-30.16 69.82028,-45.2402 121.04492,-45.2402 z"
             style="font-style:normal;font-weight:normal;font-size:180px;line-height:125%;font-family:sans-serif;letter-spacing:0px;word-spacing:0px;fill:#000000;fill-opacity:1;stroke:none;stroke-width:1px;stroke-linecap:butt;stroke-linejoin:miter;stroke-opacity:1" />
        </g>
      </g>
      <g
         style="fill:#000000"
         id="layer13"
         inkscape:label="Layer 3"
         transform="translate(0,-481.49606)" />
      <g
         style="fill:#000000"
         id="layer12"
         inkscape:label="Layer 2"
         transform="translate(0,-481.49606)">
        <path
           id="path7505"
           style="font-style:normal;font-variant:normal;font-weight:normal;font-stretch:normal;font-size:102.648px;line-height:125%;font-family:'PT Mono';-inkscape-font-specification:'PT Mono';letter-spacing:0px;word-spacing:0px;display:inline;fill:#000000;fill-opacity:1;stroke:none;stroke-width:1px;stroke-linecap:butt;stroke-linejoin:miter;stroke-opacity:1"
           d="m 77.193615,497.26577 h 13.432181 v 5.45704 h -1.911503 v -3.25036 h -3.745517 v 16.46059 h 2.841433 v 2.20669 h -7.82683 v -2.20669 h 2.841406 v -16.46059 h -3.719663 v 3.25036 h -1.911507 z"
           inkscape:connector-curvature="0" />
        <path
           id="path7507"
           style="font-style:normal;font-variant:normal;font-weight:normal;font-stretch:normal;font-size:102.648px;line-height:125%;font-family:'PT Mono';-inkscape-font-specification:'PT Mono';letter-spacing:0px;word-spacing:0px;display:inline;fill:#000000;fill-opacity:1;stroke:none;stroke-width:1px;stroke-linecap:butt;stroke-linejoin:miter;stroke-opacity:1"
           d="m 93.353796,518.13973 v -1.99794 H 96.84101 V 505.2277 h -3.487214 v -1.99794 H 98.1842 l 0.41332,1.9383 h 0.12914 q 0.87826,-0.92443 1.96318,-1.58048 1.08489,-0.65603 2.5831,-0.65603 0.87826,0 1.3949,0.38767 0.54243,0.38766 0.82658,1.13314 0.30998,0.7455 0.4133,1.81904 0.10331,1.04369 0.10331,2.38558 l -1.80816,0.0298 q 0,-1.90846 -0.33582,-2.80306 -0.30995,-0.89461 -1.16239,-0.89461 -0.80076,0 -1.44654,0.26837 -0.64577,0.26838 -1.13656,0.65603 -0.46497,0.38767 -0.80077,0.77534 -0.3358,0.38766 -0.49078,0.65602 v 8.7969 h 4.95957 v 1.99793 H 93.353796 Z"
           inkscape:connector-curvature="0" />
        <path
           id="path7509"
           style="font-style:normal;font-variant:normal;font-weight:normal;font-stretch:normal;font-size:102.648px;line-height:125%;font-family:'PT Mono';-inkscape-font-specification:'PT Mono';letter-spacing:0px;word-spacing:0px;display:inline;fill:#000000;fill-opacity:1;stroke:none;stroke-width:1px;stroke-linecap:butt;stroke-linejoin:miter;stroke-opacity:1"
           d="m 109.84979,518.13973 v -1.99794 h 4.49462 V 505.2277 h -4.49462 v -1.99794 h 6.56112 v 12.91203 h 4.39129 v 1.99794 z m 3.79717,-19.14439 q 0,-0.80517 0.46496,-1.37173 0.46497,-0.5964 1.18824,-0.5964 0.74909,0 1.23988,0.5964 0.51664,0.56656 0.51664,1.37173 0,0.7753 -0.51664,1.31205 -0.49079,0.53676 -1.23988,0.53676 -0.72327,0 -1.18824,-0.53676 -0.46496,-0.53675 -0.46496,-1.31205 z"
           inkscape:connector-curvature="0" />
        <path
           sodipodi:nodetypes="sccccccccccssscsssccscccssccscccscscs"
           inkscape:connector-curvature="0"
           id="path7511"
           style="font-style:normal;font-variant:normal;font-weight:normal;font-stretch:normal;font-size:102.648px;line-height:125%;font-family:'PT Mono';-inkscape-font-specification:'PT Mono';letter-spacing:0px;word-spacing:0px;display:inline;fill:#000000;fill-opacity:1;stroke:none;stroke-width:1px;stroke-linecap:butt;stroke-linejoin:miter;stroke-opacity:1"
           d="m 125.1059,508.44825 c 0,-0.17893 -0.009,-0.40755 -0.0258,-0.68587 0,-0.2982 -0.009,-0.59639 -0.0258,-0.8946 -0.0171,-0.31806 -0.0431,-0.62622 -0.0775,-0.92441 -0.0171,-0.29819 -0.0431,-0.55665 -0.0775,-0.77531 h -1.7307 v -1.9383 h 3.43554 l 0.25833,2.0874 h 0.12914 c 0.46497,-0.69581 1.05046,-1.27233 1.75652,-1.72958 0.72327,-0.47711 1.60153,-0.71567 2.63478,-0.71567 1.84261,0 3.2289,0.58647 4.1588,1.75937 0.92994,1.17293 1.39491,3.09133 1.39491,5.75525 0,1.25245 -0.16361,2.38561 -0.49083,3.39948 -0.30994,0.994 -0.7577,1.8389 -1.34319,2.53471 -0.58552,0.69578 -1.29155,1.23253 -2.11816,1.61025 -0.8266,0.37772 -1.73931,0.56658 -2.73809,0.56658 -0.36166,0 -0.68885,-0.0199 -0.98159,-0.0597 -0.27554,-0.0198 -0.53385,-0.0597 -0.77494,-0.11926 -0.22387,-0.0398 -0.44775,-0.0994 -0.6716,-0.17893 -0.22386,-0.0795 -0.46495,-0.17892 -0.72327,-0.29819 v 6.26219 h -1.98899 z m 5.94114,-3.39948 c -0.49984,0.12148 -1.00742,0.10933 -1.47236,0.32802 -0.44774,0.21869 -0.85243,0.50695 -1.21408,0.86477 -0.34441,0.35785 -0.62853,0.75544 -0.85242,1.1928 -0.22387,0.43737 -0.36163,0.87473 -0.41328,1.31208 v 6.79894 c 0.37884,0.29821 0.80076,0.53678 1.2657,0.71568 0.49385,0.18432 1.3266,0.26581 1.88568,0.23855 2.48038,-0.12082 4.67292,-1.52047 4.94791,-3.39217 0.82659,-1.05367 -7.42066,-1.14725 -6.12123,-2.75072 0.84706,-1.04526 6.79281,-1.21037 5.93078,-2.33526 0.11728,-1.69945 -2.23957,-3.38999 -3.9567,-2.97269 z" />
        <path
           sodipodi:nodetypes="csscscsscssccsccccsscccccscscsccss"
           inkscape:connector-curvature="0"
           id="path7513"
           style="font-style:normal;font-variant:normal;font-weight:normal;font-stretch:normal;font-size:102.648px;line-height:125%;font-family:'PT Mono';-inkscape-font-specification:'PT Mono';letter-spacing:0px;word-spacing:0px;display:inline;fill:#000000;fill-opacity:1;stroke:none;stroke-width:1px;stroke-linecap:butt;stroke-linejoin:miter;stroke-opacity:1"
           d="m 140.69779,497.4745 c 0.65439,-0.17891 1.36044,-0.2982 2.11815,-0.35783 0.75772,-0.0596 1.50681,-0.0895 2.24729,-0.0895 0.79216,0 1.59292,0.0895 2.4023,0.26838 0.82662,0.17892 1.57571,0.50692 2.24733,0.98404 0.6716,0.47712 1.21406,1.13316 1.62734,1.96813 0.43052,0.83495 0.64579,1.89854 0.64579,3.19072 0,1.27233 -0.19803,2.34586 -0.59411,3.22056 -0.39607,0.87472 -0.92132,1.59039 -1.5757,2.14704 -0.65438,0.53675 -1.4035,0.92443 -2.2473,1.16298 -0.84384,0.23856 -1.71349,0.35783 -2.60896,0.35783 h -0.43912 -0.61994 l -0.61996,-0.0597 c -0.20664,-0.0198 -0.35302,-0.0398 -0.43911,-0.0597 v 7.9321 h -2.144 z m 4.41712,1.69973 c -0.44775,0 -0.87825,0.01 -1.29156,0.0298 -0.41329,0.0198 -0.74047,0.0695 -0.98156,0.1491 v 8.64777 c 0.0861,0.0398 0.22384,0.0696 0.41328,0.0895 0.18942,0 0.38747,0.01 0.59411,0.0298 h 0.59413 0.41329 c 0.58551,0 1.16239,-0.0597 1.73067,-0.17893 0.58553,-0.13916 1.11075,-0.37772 1.57571,-0.71568 0.46497,-0.33795 0.83522,-0.81506 1.11074,-1.43135 0.29276,-0.61628 -5.28045,-1.11402 -5.28045,-2.06825 0,-0.81508 5.58182,-1.77852 5.30628,-2.3153 -0.25831,-0.55662 -0.61133,-0.994 -1.05907,-1.31206 -0.43052,-0.33795 -0.9213,-0.57651 -1.47237,-0.71568 -0.55107,-0.13916 -1.10213,-0.20875 -1.6532,-0.20875 z" />
        <path
           id="path7515"
           style="font-style:normal;font-variant:normal;font-weight:normal;font-stretch:normal;font-size:102.648px;line-height:125%;font-family:'PT Mono';-inkscape-font-specification:'PT Mono';letter-spacing:0px;word-spacing:0px;display:inline;fill:#000000;fill-opacity:1;stroke:none;stroke-width:1px;stroke-linecap:butt;stroke-linejoin:miter;stroke-opacity:1"
           d="m 156.39301,504.39273 q 1.11074,-0.74548 2.50563,-1.07351 1.39487,-0.32802 2.7381,-0.32802 1.31737,0 2.14399,0.47712 0.85241,0.47712 1.31737,1.25242 0.49078,0.74551 0.64578,1.72958 0.1808,0.95424 0.1808,1.93827 0,1.13316 -0.0516,2.41542 -0.0516,1.28226 -0.0775,2.56452 0,1.491 0.155,2.83289 h 1.73066 v 1.93831 h -3.43554 l -0.23245,-2.2365 h -0.12916 q -0.155,0.26837 -0.46498,0.68585 -0.30997,0.41748 -0.82658,0.83497 -0.49079,0.38765 -1.21405,0.68584 -0.72328,0.2982 -1.70489,0.2982 -1.91149,0 -3.02221,-1.13314 -1.11074,-1.13316 -1.11074,-3.10129 0,-1.52081 0.56828,-2.53468 0.59411,-1.0139 1.67903,-1.55064 1.08489,-0.53676 2.60892,-0.62622 1.54989,-0.0895 3.46139,0.23856 0.12914,-1.37173 0.0258,-2.26632 -0.0775,-0.92441 -0.41329,-1.46119 -0.30998,-0.53675 -0.90411,-0.74547 -0.56829,-0.23856 -1.42069,-0.23856 -1.16241,0 -2.22149,0.38765 -1.05907,0.35783 -1.88568,0.74551 l -0.64578,-1.72957 z m 3.79719,12.01742 q 0.72327,0 1.34319,-0.26836 0.61996,-0.26838 1.08492,-0.68587 0.46497,-0.41746 0.77494,-0.89458 0.30999,-0.50695 0.46497,-0.95425 v -2.0874 q -1.34322,-0.26836 -2.47978,-0.26836 -1.1366,0 -1.96318,0.29818 -0.82659,0.26839 -1.29155,0.86478 -0.46497,0.59641 -0.46497,1.55065 0,0.98406 0.56828,1.72953 0.59413,0.71568 1.96318,0.71568 z"
           inkscape:connector-curvature="0" />
        <path
           id="path7517"
           style="font-style:normal;font-variant:normal;font-weight:normal;font-stretch:normal;font-size:102.648px;line-height:125%;font-family:'PT Mono';-inkscape-font-specification:'PT Mono';letter-spacing:0px;word-spacing:0px;display:inline;fill:#000000;fill-opacity:1;stroke:none;stroke-width:1px;stroke-linecap:butt;stroke-linejoin:miter;stroke-opacity:1"
           d="m 172.16575,497.26577 h 4.28798 v 15.86419 q 0,1.81904 0.5166,2.56451 0.54247,0.74552 1.57571,0.74552 0.72327,0 1.36905,-0.2982 0.6716,-0.2982 1.47235,-1.01389 l 0.92994,1.64011 q -0.4133,0.41748 -0.90408,0.74551 -0.49081,0.32802 -1.00742,0.56657 -0.51662,0.20873 -1.03325,0.328 -0.51661,0.11929 -0.95575,0.11929 -0.95576,0 -1.70485,-0.2982 -0.74912,-0.26838 -1.26573,-0.8946 -0.49079,-0.6262 -0.7491,-1.64011 -0.25833,-1.04369 -0.25833,-2.56451 v -13.86627 h -2.27312 z"
           inkscape:connector-curvature="0" />
      </g>
    </g>
    <g
       id="g1284"
       transform="matrix(0.37019977,0,0,0.37019977,5.516515,2.7470963)">
      <g
         style="display:inline"
         transform="translate(0,-1002.3622)"
         id="g1264"
         inkscape:label="Layer 1">
        <g
           transform="matrix(0.05686768,0,0,0.05376213,-4.7253174,1001.7042)"
           id="g1262">
          <path
             style="fill:url(#linearGradient1286);fill-opacity:1;stroke:#8a2e2e;stroke-width:17.415;stroke-linecap:round;stroke-linejoin:round;stroke-miterlimit:4;stroke-dasharray:none;stroke-dashoffset:6.5;stroke-opacity:0"
             d="m 68.357841,491.01307 c 3.185242,-54.1946 16.301245,-110.66332 36.104609,-155.44223 l 5.01418,-11.33797 h 102.64966 102.64967 l -4.24689,5.57624 c -2.33577,3.06693 -9.09332,11.76092 -15.01676,19.31997 -29.98421,38.26365 -50.66817,92.03696 -53.40588,138.84241 l -1.21568,20.78415 H 154.10289 67.315036 Z"
             id="path1256"
             inkscape:connector-curvature="0" />
          <g
             id="g1258"
             inkscape:label="Layer 1" />
          <path
             style="font-style:normal;font-weight:normal;font-size:180px;line-height:125%;font-family:sans-serif;letter-spacing:0px;word-spacing:0px;fill:#56c2e1;fill-opacity:1;stroke:none;stroke-width:1px;stroke-linecap:butt;stroke-linejoin:miter;stroke-opacity:1"
             d="m 189.74967,71.66037 v 228.74999 h 92.5 v -136.25 h 180 v 690 h -137.5 v 92.5 h 140.13867 v 1.8809 h 97.36329 v -1.8809 h 141.24804 v -92.5 h -137.5 v -132.6426 c 19.71757,23.6765 44.07814,41.5043 73.08789,53.4746 31.22599,12.4801 68.41726,18.7188 111.57227,18.7188 71.57416,0 129.64079,-21.0596 174.19922,-63.1797 44.90928,-42.1201 67.36328,-97.5005 67.36328,-166.1406 0,-68.6401 -22.454,-124.0206 -67.36328,-166.1407 -44.55843,-42.12 -102.62506,-63.1796 -174.19922,-63.1796 -43.15501,0 -80.34628,6.3713 -111.57227,19.1113 -29.00977,11.726 -53.37031,29.4222 -73.08789,53.084 v -243.1055 h 181.25 v 136.25 h 92.5 V 71.66037 Z m 537.22656,323.47069 c 51.22465,0 91.39868,15.0802 120.51954,45.2402 29.47171,29.9001 -180.01742,67.94208 -180.01742,120.72218 0,52.78 209.48913,97.54752 180.01742,127.70752 -29.12086,29.9001 -69.29489,44.8496 -120.51954,44.8496 -51.22464,0 -91.5732,-14.9495 -121.04492,-44.8496 -20.60175,-21.3369 -33.90474,-48.3418 -39.93164,-81 v -86.7871 c 6.02698,-32.604 19.33006,-59.4898 39.93164,-80.6426 29.47172,-30.16 69.82028,-45.2402 121.04492,-45.2402 z"
             id="path1260"
             inkscape:connector-curvature="0"
             sodipodi:nodetypes="cccccccccccccccccscscsccccccccscscsccccs" />
        </g>
      </g>
      <g
         transform="translate(0,-481.49606)"
         inkscape:label="Layer 3"
         id="g1266" />
      <g
         transform="translate(0,-481.49606)"
         inkscape:label="Layer 2"
         id="g1282">
        <path
           inkscape:connector-curvature="0"
           d="m 77.193615,497.26577 h 13.432181 v 5.45704 h -1.911503 v -3.25036 h -3.745517 v 16.46059 h 2.841433 v 2.20669 h -7.82683 v -2.20669 h 2.841406 v -16.46059 h -3.719663 v 3.25036 h -1.911507 z"
           style="font-style:normal;font-variant:normal;font-weight:normal;font-stretch:normal;font-size:102.648px;line-height:125%;font-family:'PT Mono';-inkscape-font-specification:'PT Mono';letter-spacing:0px;word-spacing:0px;display:inline;fill:#56c2e1;fill-opacity:1;stroke:none;stroke-width:1px;stroke-linecap:butt;stroke-linejoin:miter;stroke-opacity:1"
           id="path1268" />
        <path
           inkscape:connector-curvature="0"
           d="m 93.353796,518.13973 v -1.99794 H 96.84101 V 505.2277 h -3.487214 v -1.99794 H 98.1842 l 0.41332,1.9383 h 0.12914 q 0.87826,-0.92443 1.96318,-1.58048 1.08489,-0.65603 2.5831,-0.65603 0.87826,0 1.3949,0.38767 0.54243,0.38766 0.82658,1.13314 0.30998,0.7455 0.4133,1.81904 0.10331,1.04369 0.10331,2.38558 l -1.80816,0.0298 q 0,-1.90846 -0.33582,-2.80306 -0.30995,-0.89461 -1.16239,-0.89461 -0.80076,0 -1.44654,0.26837 -0.64577,0.26838 -1.13656,0.65603 -0.46497,0.38767 -0.80077,0.77534 -0.3358,0.38766 -0.49078,0.65602 v 8.7969 h 4.95957 v 1.99793 H 93.353796 Z"
           style="font-style:normal;font-variant:normal;font-weight:normal;font-stretch:normal;font-size:102.648px;line-height:125%;font-family:'PT Mono';-inkscape-font-specification:'PT Mono';letter-spacing:0px;word-spacing:0px;display:inline;fill:#56c2e1;fill-opacity:1;stroke:none;stroke-width:1px;stroke-linecap:butt;stroke-linejoin:miter;stroke-opacity:1"
           id="path1270" />
        <path
           inkscape:connector-curvature="0"
           d="m 109.84979,518.13973 v -1.99794 h 4.49462 V 505.2277 h -4.49462 v -1.99794 h 6.56112 v 12.91203 h 4.39129 v 1.99794 z m 3.79717,-19.14439 q 0,-0.80517 0.46496,-1.37173 0.46497,-0.5964 1.18824,-0.5964 0.74909,0 1.23988,0.5964 0.51664,0.56656 0.51664,1.37173 0,0.7753 -0.51664,1.31205 -0.49079,0.53676 -1.23988,0.53676 -0.72327,0 -1.18824,-0.53676 -0.46496,-0.53675 -0.46496,-1.31205 z"
           style="font-style:normal;font-variant:normal;font-weight:normal;font-stretch:normal;font-size:102.648px;line-height:125%;font-family:'PT Mono';-inkscape-font-specification:'PT Mono';letter-spacing:0px;word-spacing:0px;display:inline;fill:#56c2e1;fill-opacity:1;stroke:none;stroke-width:1px;stroke-linecap:butt;stroke-linejoin:miter;stroke-opacity:1"
           id="path1272" />
        <path
           d="m 125.1059,508.44825 c 0,-0.17893 -0.009,-0.40755 -0.0258,-0.68587 0,-0.2982 -0.009,-0.59639 -0.0258,-0.8946 -0.0171,-0.31806 -0.0431,-0.62622 -0.0775,-0.92441 -0.0171,-0.29819 -0.0431,-0.55665 -0.0775,-0.77531 h -1.7307 v -1.9383 h 3.43554 l 0.25833,2.0874 h 0.12914 c 0.46497,-0.69581 1.05046,-1.27233 1.75652,-1.72958 0.72327,-0.47711 1.60153,-0.71567 2.63478,-0.71567 1.84261,0 3.2289,0.58647 4.1588,1.75937 0.92994,1.17293 1.39491,3.09133 1.39491,5.75525 0,1.25245 -0.16361,2.38561 -0.49083,3.39948 -0.30994,0.994 -0.7577,1.8389 -1.34319,2.53471 -0.58552,0.69578 -1.29155,1.23253 -2.11816,1.61025 -0.8266,0.37772 -1.73931,0.56658 -2.73809,0.56658 -0.36166,0 -0.68885,-0.0199 -0.98159,-0.0597 -0.27554,-0.0198 -0.53385,-0.0597 -0.77494,-0.11926 -0.22387,-0.0398 -0.44775,-0.0994 -0.6716,-0.17893 -0.22386,-0.0795 -0.46495,-0.17892 -0.72327,-0.29819 v 6.26219 h -1.98899 z m 5.94114,-3.39948 c -0.49984,0.12148 -1.00742,0.10933 -1.47236,0.32802 -0.44774,0.21869 -0.85243,0.50695 -1.21408,0.86477 -0.34441,0.35785 -0.62853,0.75544 -0.85242,1.1928 -0.22387,0.43737 -0.36163,0.87473 -0.41328,1.31208 v 6.79894 c 0.37884,0.29821 0.80076,0.53678 1.2657,0.71568 0.49385,0.18432 1.3266,0.26581 1.88568,0.23855 2.48038,-0.12082 4.67292,-1.52047 4.94791,-3.39217 0.82659,-1.05367 -7.42066,-1.14725 -6.12123,-2.75072 0.84706,-1.04526 6.79281,-1.21037 5.93078,-2.33526 0.11728,-1.69945 -2.23957,-3.38999 -3.9567,-2.97269 z"
           style="font-style:normal;font-variant:normal;font-weight:normal;font-stretch:normal;font-size:102.648px;line-height:125%;font-family:'PT Mono';-inkscape-font-specification:'PT Mono';letter-spacing:0px;word-spacing:0px;display:inline;fill:#ffffff;fill-opacity:1;stroke:none;stroke-width:1px;stroke-linecap:butt;stroke-linejoin:miter;stroke-opacity:1"
           id="path1274"
           inkscape:connector-curvature="0"
           sodipodi:nodetypes="sccccccccccssscsssccscccssccscccscscs" />
        <path
           d="m 140.69779,497.4745 c 0.65439,-0.17891 1.36044,-0.2982 2.11815,-0.35783 0.75772,-0.0596 1.50681,-0.0895 2.24729,-0.0895 0.79216,0 1.59292,0.0895 2.4023,0.26838 0.82662,0.17892 1.57571,0.50692 2.24733,0.98404 0.6716,0.47712 1.21406,1.13316 1.62734,1.96813 0.43052,0.83495 0.64579,1.89854 0.64579,3.19072 0,1.27233 -0.19803,2.34586 -0.59411,3.22056 -0.39607,0.87472 -0.92132,1.59039 -1.5757,2.14704 -0.65438,0.53675 -1.4035,0.92443 -2.2473,1.16298 -0.84384,0.23856 -1.71349,0.35783 -2.60896,0.35783 h -0.43912 -0.61994 l -0.61996,-0.0597 c -0.20664,-0.0198 -0.35302,-0.0398 -0.43911,-0.0597 v 7.9321 h -2.144 z m 4.41712,1.69973 c -0.44775,0 -0.87825,0.01 -1.29156,0.0298 -0.41329,0.0198 -0.74047,0.0695 -0.98156,0.1491 v 8.64777 c 0.0861,0.0398 0.22384,0.0696 0.41328,0.0895 0.18942,0 0.38747,0.01 0.59411,0.0298 h 0.59413 0.41329 c 0.58551,0 1.16239,-0.0597 1.73067,-0.17893 0.58553,-0.13916 1.11075,-0.37772 1.57571,-0.71568 0.46497,-0.33795 0.83522,-0.81506 1.11074,-1.43135 0.29276,-0.61628 -5.28045,-1.11402 -5.28045,-2.06825 0,-0.81508 5.58182,-1.77852 5.30628,-2.3153 -0.25831,-0.55662 -0.61133,-0.994 -1.05907,-1.31206 -0.43052,-0.33795 -0.9213,-0.57651 -1.47237,-0.71568 -0.55107,-0.13916 -1.10213,-0.20875 -1.6532,-0.20875 z"
           style="font-style:normal;font-variant:normal;font-weight:normal;font-stretch:normal;font-size:102.648px;line-height:125%;font-family:'PT Mono';-inkscape-font-specification:'PT Mono';letter-spacing:0px;word-spacing:0px;display:inline;fill:#ffffff;fill-opacity:1;stroke:none;stroke-width:1px;stroke-linecap:butt;stroke-linejoin:miter;stroke-opacity:1"
           id="path1276"
           inkscape:connector-curvature="0"
           sodipodi:nodetypes="csscscsscssccsccccsscccccscscsccss" />
        <path
           inkscape:connector-curvature="0"
           d="m 156.39301,504.39273 q 1.11074,-0.74548 2.50563,-1.07351 1.39487,-0.32802 2.7381,-0.32802 1.31737,0 2.14399,0.47712 0.85241,0.47712 1.31737,1.25242 0.49078,0.74551 0.64578,1.72958 0.1808,0.95424 0.1808,1.93827 0,1.13316 -0.0516,2.41542 -0.0516,1.28226 -0.0775,2.56452 0,1.491 0.155,2.83289 h 1.73066 v 1.93831 h -3.43554 l -0.23245,-2.2365 h -0.12916 q -0.155,0.26837 -0.46498,0.68585 -0.30997,0.41748 -0.82658,0.83497 -0.49079,0.38765 -1.21405,0.68584 -0.72328,0.2982 -1.70489,0.2982 -1.91149,0 -3.02221,-1.13314 -1.11074,-1.13316 -1.11074,-3.10129 0,-1.52081 0.56828,-2.53468 0.59411,-1.0139 1.67903,-1.55064 1.08489,-0.53676 2.60892,-0.62622 1.54989,-0.0895 3.46139,0.23856 0.12914,-1.37173 0.0258,-2.26632 -0.0775,-0.92441 -0.41329,-1.46119 -0.30998,-0.53675 -0.90411,-0.74547 -0.56829,-0.23856 -1.42069,-0.23856 -1.16241,0 -2.22149,0.38765 -1.05907,0.35783 -1.88568,0.74551 l -0.64578,-1.72957 z m 3.79719,12.01742 q 0.72327,0 1.34319,-0.26836 0.61996,-0.26838 1.08492,-0.68587 0.46497,-0.41746 0.77494,-0.89458 0.30999,-0.50695 0.46497,-0.95425 v -2.0874 q -1.34322,-0.26836 -2.47978,-0.26836 -1.1366,0 -1.96318,0.29818 -0.82659,0.26839 -1.29155,0.86478 -0.46497,0.59641 -0.46497,1.55065 0,0.98406 0.56828,1.72953 0.59413,0.71568 1.96318,0.71568 z"
           style="font-style:normal;font-variant:normal;font-weight:normal;font-stretch:normal;font-size:102.648px;line-height:125%;font-family:'PT Mono';-inkscape-font-specification:'PT Mono';letter-spacing:0px;word-spacing:0px;display:inline;fill:#56c2e1;fill-opacity:1;stroke:none;stroke-width:1px;stroke-linecap:butt;stroke-linejoin:miter;stroke-opacity:1"
           id="path1278" />
        <path
           inkscape:connector-curvature="0"
           d="m 172.16575,497.26577 h 4.28798 v 15.86419 q 0,1.81904 0.5166,2.56451 0.54247,0.74552 1.57571,0.74552 0.72327,0 1.36905,-0.2982 0.6716,-0.2982 1.47235,-1.01389 l 0.92994,1.64011 q -0.4133,0.41748 -0.90408,0.74551 -0.49081,0.32802 -1.00742,0.56657 -0.51662,0.20873 -1.03325,0.328 -0.51661,0.11929 -0.95575,0.11929 -0.95576,0 -1.70485,-0.2982 -0.74912,-0.26838 -1.26573,-0.8946 -0.49079,-0.6262 -0.7491,-1.64011 -0.25833,-1.04369 -0.25833,-2.56451 v -13.86627 h -2.27312 z"
           style="font-style:normal;font-variant:normal;font-weight:normal;font-stretch:normal;font-size:102.648px;line-height:125%;font-family:'PT Mono';-inkscape-font-specification:'PT Mono';letter-spacing:0px;word-spacing:0px;display:inline;fill:#56c2e1;fill-opacity:1;stroke:none;stroke-width:1px;stroke-linecap:butt;stroke-linejoin:miter;stroke-opacity:1"
           id="path1280" />
      </g>
    </g>
  </g>
  <g
     style="display:inline"
     id="layer1"
     inkscape:groupmode="layer"
     inkscape:label="Layer 1" />
  <g
     style="display:inline"
     inkscape:label="Layer 2"
     id="layer2"
     inkscape:groupmode="layer" />
  <g
     inkscape:label="Layer 3"
     id="layer3"
     inkscape:groupmode="layer" />
</svg>
