<?xml version="1.0" encoding="UTF-8" standalone="no"?>
<svg
   xmlns:dc="http://purl.org/dc/elements/1.1/"
   xmlns:cc="http://creativecommons.org/ns#"
   xmlns:rdf="http://www.w3.org/1999/02/22-rdf-syntax-ns#"
   xmlns:svg="http://www.w3.org/2000/svg"
   xmlns="http://www.w3.org/2000/svg"
   xmlns:sodipodi="http://sodipodi.sourceforge.net/DTD/sodipodi-0.dtd"
   xmlns:inkscape="http://www.inkscape.org/namespaces/inkscape"
   inkscape:export-ydpi="96"
   inkscape:export-xdpi="96"
   inkscape:export-filename="/Applications/MAMP/htdocs/RollingArrayWebsite/dist/images/favicon.png"
   inkscape:version="1.0beta2 (2b71d25, 2019-12-03)"
   sodipodi:docname="favicon.svg"
   id="svg1715"
   version="1.1"
   height="250"
   width="250">
  <metadata
     id="metadata1721">
    <rdf:RDF>
      <cc:Work
         rdf:about="">
        <dc:format>image/svg+xml</dc:format>
        <dc:type
           rdf:resource="http://purl.org/dc/dcmitype/StillImage" />
        <dc:title></dc:title>
      </cc:Work>
    </rdf:RDF>
  </metadata>
  <defs
     id="defs1719" />
  <sodipodi:namedview
     inkscape:current-layer="layer8"
     inkscape:window-maximized="1"
     inkscape:window-y="23"
     inkscape:window-x="0"
     inkscape:cy="125"
     inkscape:cx="10.569853"
     inkscape:zoom="1.088"
     showgrid="false"
     id="namedview1717"
     inkscape:window-height="706"
     inkscape:window-width="1280"
     inkscape:pageshadow="2"
     inkscape:pageopacity="0"
     guidetolerance="10"
     gridtolerance="10"
     objecttolerance="10"
     borderopacity="1"
     inkscape:document-rotation="0"
     bordercolor="#666666"
     pagecolor="#ffffff" />
  <g
     inkscape:label="bg"
     id="layer8"
     inkscape:groupmode="layer">
    <rect
       ry="29.411764"
       y="0"
       x="0"
       height="250"
       width="250"
       id="rect2284"
       style="fill:#e72562;fill-opacity:1;stroke-width:76.7528;stroke-linecap:round;stroke-linejoin:round;paint-order:markers stroke fill" />
  </g>
  <g
     inkscape:label="logo"
     id="layer7"
     inkscape:groupmode="layer">
    <g
       transform="translate(0,10)"
       id="g1693"
       style="line-height:125%">
      <path
         inkscape:connector-curvature="0"
         id="path1691"
         word-spacing="0"
         letter-spacing="0"
         font-family="SofiaRegular"
         font-size="625"
         font-weight="400"
         style="-inkscape-font-specification:SofiaRegular"
         d="m 25.542,40.54 v 115.98 h 15.732 q 0.976,0.651 0.976,2.387 0,1.41 -1.085,2.279 -0.976,0.976 -2.82,0.976 H 21.093 q -5.317,0 -5.317,-7.812 V 42.492 q 0,-3.363 1.628,-5.424 1.627,-2.17 3.689,-2.17 h 18.335 q 1.845,0 2.821,0.976 1.085,0.868 1.085,2.279 0,0.76 -0.217,1.41 -0.217,0.543 -0.434,0.76 L 42.358,40.54 Z M 226.616,156.521 V 40.54 H 209.8 q -0.977,-0.651 -0.977,-2.387 0,-1.41 0.977,-2.279 1.085,-0.976 2.929,-0.976 h 18.336 q 2.061,0 3.689,2.17 1.627,2.061 1.627,5.424 v 111.86 q 0,7.811 -5.316,7.811 h -17.251 q -1.845,0 -2.93,-0.976 -0.976,-0.868 -0.976,-2.279 0,-0.76 0.217,-1.41 0.217,-0.543 0.434,-0.76 l 0.326,-0.217 z" />
    </g>
    <g
       transform="translate(0,10)"
       id="g1697"
       style="line-height:125%">
      <path
         inkscape:connector-curvature="0"
         id="path1695"
         word-spacing="0"
         letter-spacing="0"
         font-family="Telugu MN"
         font-size="1250"
         font-weight="300"
         style="-inkscape-font-specification:'Telugu MN Light'"
         d="m 58.1,86.232 q 2.33,0 4.343,0.848 2.12,0.848 3.603,2.33 1.589,1.484 2.437,3.497 0.953,2.013 0.953,4.344 0,2.331 -0.953,4.344 -0.848,2.014 -2.437,3.497 -1.484,1.483 -3.603,2.33 -2.013,0.848 -4.344,0.848 -2.437,0 -4.556,-0.847 -2.013,-0.848 -3.602,-2.331 -1.483,-1.483 -2.437,-3.497 -0.848,-2.013 -0.848,-4.344 0,-2.33 0.848,-4.344 0.954,-2.013 2.437,-3.496 1.59,-1.483 3.602,-2.331 2.12,-0.848 4.556,-0.848 z m 45.77,0 q 2.332,0 4.345,0.848 2.119,0.848 3.602,2.33 1.59,1.484 2.437,3.497 0.954,2.013 0.954,4.344 0,2.331 -0.954,4.344 -0.847,2.014 -2.437,3.497 -1.483,1.483 -3.602,2.33 -2.013,0.848 -4.344,0.848 -2.437,0 -4.556,-0.847 -2.013,-0.848 -3.603,-2.331 -1.483,-1.483 -2.436,-3.497 -0.848,-2.013 -0.848,-4.344 0,-2.33 0.848,-4.344 0.953,-2.013 2.436,-3.496 1.59,-1.483 3.603,-2.331 2.119,-0.848 4.556,-0.848 z m 45.772,0 q 2.331,0 4.344,0.848 2.12,0.848 3.603,2.33 1.59,1.484 2.437,3.497 0.953,2.013 0.953,4.344 0,2.331 -0.953,4.344 -0.848,2.014 -2.437,3.497 -1.483,1.483 -3.603,2.33 -2.013,0.848 -4.344,0.848 -2.437,0 -4.556,-0.847 -2.013,-0.848 -3.602,-2.331 -1.483,-1.483 -2.437,-3.497 -0.847,-2.013 -0.847,-4.344 0,-2.33 0.847,-4.344 0.954,-2.013 2.437,-3.496 1.59,-1.483 3.602,-2.331 2.12,-0.848 4.556,-0.848 z m 45.772,0 q 2.33,0 4.344,0.848 2.12,0.848 3.602,2.33 1.59,1.484 2.437,3.497 0.954,2.013 0.954,4.344 0,2.331 -0.954,4.344 -0.847,2.014 -2.437,3.497 -1.483,1.483 -3.602,2.33 -2.013,0.848 -4.344,0.848 -2.437,0 -4.556,-0.847 -2.013,-0.848 -3.602,-2.331 -1.484,-1.483 -2.437,-3.497 -0.848,-2.013 -0.848,-4.344 0,-2.33 0.848,-4.344 0.953,-2.013 2.437,-3.496 1.589,-1.483 3.602,-2.331 2.12,-0.848 4.556,-0.848 z" />
    </g>
    <path
       inkscape:connector-curvature="0"
       id="path1699"
       stroke="#000"
       fill-rule="evenodd"
       d="m 60.133,174.672 c 39.265,41.414 90.715,44.711 143.905,0.823 -70.43,108.398 -195.007,-4.178 -143.905,-0.823 z" />
    <path
       inkscape:connector-curvature="0"
       id="path1701"
       stroke="#000"
       fill-rule="evenodd"
       d="m 180.364,178.427 25.32,-6.094 -3.05,22.2 c -6.042,-9.196 -8.337,-17.672 -22.27,-16.106 z" />
    <g
       transform="translate(0,10)"
       id="g1705"
       style="line-height:125%">
      <path
         inkscape:connector-curvature="0"
         id="path1703"
         fill="#fff"
         word-spacing="0"
         letter-spacing="0"
         font-family="SofiaRegular"
         font-size="625"
         font-weight="400"
         d="m 21.542,37.54 v 115.98 h 15.732 q 0.976,0.651 0.976,2.387 0,1.41 -1.085,2.279 -0.976,0.976 -2.82,0.976 H 17.093 q -5.317,0 -5.317,-7.812 V 39.492 q 0,-3.363 1.628,-5.424 1.627,-2.17 3.689,-2.17 h 18.335 q 1.845,0 2.821,0.976 1.085,0.868 1.085,2.279 0,0.76 -0.217,1.41 -0.217,0.543 -0.434,0.76 L 38.358,37.54 Z M 222.616,153.521 V 37.54 H 205.8 q -0.977,-0.651 -0.977,-2.387 0,-1.41 0.977,-2.279 1.085,-0.976 2.929,-0.976 h 18.336 q 2.061,0 3.689,2.17 1.627,2.061 1.627,5.424 v 111.86 q 0,7.811 -5.316,7.811 h -17.251 q -1.845,0 -2.93,-0.976 -0.976,-0.868 -0.976,-2.279 0,-0.76 0.217,-1.41 0.217,-0.543 0.434,-0.76 l 0.326,-0.217 z"
         style="-inkscape-font-specification:SofiaRegular" />
    </g>
    <g
       transform="translate(0,10)"
       id="g1709"
       style="line-height:125%">
      <path
         inkscape:connector-curvature="0"
         id="path1707"
         fill="#fff"
         word-spacing="0"
         letter-spacing="0"
         font-family="Telugu MN"
         font-size="1250"
         font-weight="300"
         d="m 54.1,83.232 q 2.33,0 4.343,0.848 2.12,0.848 3.603,2.33 1.589,1.484 2.437,3.497 0.953,2.013 0.953,4.344 0,2.331 -0.953,4.344 -0.848,2.014 -2.437,3.497 -1.484,1.483 -3.603,2.33 -2.013,0.848 -4.344,0.848 -2.437,0 -4.556,-0.847 -2.013,-0.848 -3.602,-2.331 -1.483,-1.483 -2.437,-3.497 -0.848,-2.013 -0.848,-4.344 0,-2.33 0.848,-4.344 0.954,-2.013 2.437,-3.496 1.59,-1.483 3.602,-2.331 2.12,-0.848 4.556,-0.848 z m 45.77,0 q 2.332,0 4.345,0.848 2.119,0.848 3.602,2.33 1.59,1.484 2.437,3.497 0.954,2.013 0.954,4.344 0,2.331 -0.954,4.344 -0.847,2.014 -2.437,3.497 -1.483,1.483 -3.602,2.33 -2.013,0.848 -4.344,0.848 -2.437,0 -4.556,-0.847 -2.013,-0.848 -3.603,-2.331 -1.483,-1.483 -2.436,-3.497 -0.848,-2.013 -0.848,-4.344 0,-2.33 0.848,-4.344 0.953,-2.013 2.436,-3.496 1.59,-1.483 3.603,-2.331 2.119,-0.848 4.556,-0.848 z m 45.772,0 q 2.331,0 4.344,0.848 2.12,0.848 3.603,2.33 1.59,1.484 2.437,3.497 0.953,2.013 0.953,4.344 0,2.331 -0.953,4.344 -0.848,2.014 -2.437,3.497 -1.483,1.483 -3.603,2.33 -2.013,0.848 -4.344,0.848 -2.437,0 -4.556,-0.847 -2.013,-0.848 -3.602,-2.331 -1.483,-1.483 -2.437,-3.497 -0.847,-2.013 -0.847,-4.344 0,-2.33 0.847,-4.344 0.954,-2.013 2.437,-3.496 1.59,-1.483 3.602,-2.331 2.12,-0.848 4.556,-0.848 z m 45.772,0 q 2.33,0 4.344,0.848 2.12,0.848 3.602,2.33 1.59,1.484 2.437,3.497 0.954,2.013 0.954,4.344 0,2.331 -0.954,4.344 -0.847,2.014 -2.437,3.497 -1.483,1.483 -3.602,2.33 -2.013,0.848 -4.344,0.848 -2.437,0 -4.556,-0.847 -2.013,-0.848 -3.602,-2.331 -1.484,-1.483 -2.437,-3.497 -0.848,-2.013 -0.848,-4.344 0,-2.33 0.848,-4.344 0.953,-2.013 2.437,-3.496 1.589,-1.483 3.602,-2.331 2.12,-0.848 4.556,-0.848 z"
         style="-inkscape-font-specification:'Telugu MN Light'" />
    </g>
    <path
       inkscape:connector-curvature="0"
       id="path1711"
       fill-rule="evenodd"
       fill="#fff"
       d="m 56.492,171.672 c 39.265,41.414 90.715,44.711 143.905,0.823 C 129.967,280.893 5.39,168.317 56.492,171.672 Z" />
    <path
       inkscape:connector-curvature="0"
       id="path1713"
       fill-rule="evenodd"
       fill="#fff"
       d="m 176.723,175.427 25.319,-6.094 -3.05,22.2 c -6.04,-9.196 -8.336,-17.672 -22.269,-16.106 z" />
  </g>
</svg>
