<?xml version="1.0" encoding="utf-8"?>
<!-- Generator: Adobe Illustrator 24.0.2, SVG Export Plug-In . SVG Version: 6.00 Build 0)  -->
<svg version="1.1"
	 id="svg1715" inkscape:export-filename="/Applications/MAMP/htdocs/RollingArrayWebsite/dist/images/favicon.png" inkscape:export-xdpi="96" inkscape:export-ydpi="96" inkscape:version="1.0beta2 (2b71d25, 2019-12-03)" sodipodi:docname="favicon.svg" xmlns:cc="http://creativecommons.org/ns#" xmlns:dc="http://purl.org/dc/elements/1.1/" xmlns:inkscape="http://www.inkscape.org/namespaces/inkscape" xmlns:rdf="http://www.w3.org/1999/02/22-rdf-syntax-ns#" xmlns:sodipodi="http://sodipodi.sourceforge.net/DTD/sodipodi-0.dtd" xmlns:svg="http://www.w3.org/2000/svg"
	 xmlns="http://www.w3.org/2000/svg" xmlns:xlink="http://www.w3.org/1999/xlink" x="0px" y="0px" viewBox="0 0 250 250"
	 style="enable-background:new 0 0 250 250;" xml:space="preserve">
<style type="text/css">
	.st0{fill:#EE4338;}
	.st1{fill-rule:evenodd;clip-rule:evenodd;stroke:#000000;}
	.st2{fill:#FFFFFF;}
	.st3{fill-rule:evenodd;clip-rule:evenodd;fill:#FFFFFF;}
</style>
<sodipodi:namedview  bordercolor="#666666" borderopacity="1" gridtolerance="10" guidetolerance="10" id="namedview1717" inkscape:current-layer="layer8" inkscape:cx="10.569853" inkscape:cy="125" inkscape:document-rotation="0" inkscape:pageopacity="0" inkscape:pageshadow="2" inkscape:window-height="706" inkscape:window-maximized="1" inkscape:window-width="1280" inkscape:window-x="0" inkscape:window-y="23" inkscape:zoom="1.088" objecttolerance="10" pagecolor="#ffffff" showgrid="false">
	</sodipodi:namedview>
<g id="layer8" inkscape:groupmode="layer" inkscape:label="bg">
	<path id="rect2284" class="st0" d="M29.4,0h191.2C236.8,0,250,13.2,250,29.4v191.2c0,16.2-13.2,29.4-29.4,29.4H29.4
		C13.2,250,0,236.8,0,220.6V29.4C0,13.2,13.2,0,29.4,0z"/>
</g>
<g id="layer7" inkscape:groupmode="layer" inkscape:label="logo">
	<g id="g1693" transform="translate(0,10)">
		<path id="path1691" inkscape:connector-curvature="0" d="M43.9,55.8v94.4h12.8c0.5,0.4,0.8,1,0.8,1.9c0,0.8-0.3,1.4-0.9,1.9
			c-0.5,0.5-1.3,0.8-2.3,0.8h-14c-2.9,0-4.3-2.1-4.3-6.4v-91c0-1.8,0.4-3.3,1.3-4.4c0.9-1.2,1.9-1.8,3-1.8h14.9c1,0,1.8,0.3,2.3,0.8
			c0.6,0.5,0.9,1.1,0.9,1.9c0,0.4-0.1,0.8-0.2,1.1c-0.1,0.3-0.2,0.5-0.4,0.6l-0.3,0.2H43.9z M207.5,150.2V55.8h-13.7
			c-0.5-0.4-0.8-1-0.8-1.9c0-0.8,0.3-1.4,0.8-1.9c0.6-0.5,1.4-0.8,2.4-0.8h14.9c1.1,0,2.1,0.6,3,1.8c0.9,1.1,1.3,2.6,1.3,4.4v91
			c0,4.2-1.4,6.4-4.3,6.4h-14c-1,0-1.8-0.3-2.4-0.8c-0.5-0.5-0.8-1.1-0.8-1.9c0-0.4,0.1-0.8,0.2-1.1c0.1-0.3,0.2-0.5,0.4-0.6
			l0.3-0.2L207.5,150.2z"/>
	</g>
	<g id="g1697" transform="translate(0,10)">
		<path id="path1695" inkscape:connector-curvature="0" d="M70.4,93c1.3,0,2.4,0.2,3.5,0.7c1.2,0.5,2.1,1.1,2.9,1.9
			c0.9,0.8,1.5,1.8,2,2.8c0.5,1.1,0.8,2.3,0.8,3.5c0,1.3-0.3,2.4-0.8,3.5c-0.5,1.1-1.1,2-2,2.8c-0.8,0.8-1.8,1.4-2.9,1.9
			c-1.1,0.5-2.3,0.7-3.5,0.7c-1.3,0-2.6-0.2-3.7-0.7c-1.1-0.5-2.1-1.1-2.9-1.9c-0.8-0.8-1.5-1.8-2-2.8c-0.5-1.1-0.7-2.3-0.7-3.5
			c0-1.3,0.2-2.4,0.7-3.5c0.5-1.1,1.2-2,2-2.8c0.9-0.8,1.8-1.4,2.9-1.9C67.8,93.2,69.1,93,70.4,93L70.4,93z M107.6,93
			c1.3,0,2.4,0.2,3.5,0.7c1.1,0.5,2.1,1.1,2.9,1.9c0.9,0.8,1.5,1.8,2,2.8c0.5,1.1,0.8,2.3,0.8,3.5c0,1.3-0.3,2.4-0.8,3.5
			c-0.5,1.1-1.1,2-2,2.8c-0.8,0.8-1.8,1.4-2.9,1.9c-1.1,0.5-2.3,0.7-3.5,0.7c-1.3,0-2.6-0.2-3.7-0.7c-1.1-0.5-2.1-1.1-2.9-1.9
			c-0.8-0.8-1.5-1.8-2-2.8c-0.5-1.1-0.7-2.3-0.7-3.5c0-1.3,0.2-2.4,0.7-3.5c0.5-1.1,1.2-2,2-2.8c0.9-0.8,1.8-1.4,2.9-1.9
			C105.1,93.2,106.3,93,107.6,93L107.6,93z M144.9,93c1.3,0,2.4,0.2,3.5,0.7c1.2,0.5,2.1,1.1,2.9,1.9c0.9,0.8,1.5,1.8,2,2.8
			c0.5,1.1,0.8,2.3,0.8,3.5c0,1.3-0.3,2.4-0.8,3.5c-0.5,1.1-1.1,2-2,2.8c-0.8,0.8-1.8,1.4-2.9,1.9c-1.1,0.5-2.3,0.7-3.5,0.7
			c-1.3,0-2.6-0.2-3.7-0.7c-1.1-0.5-2.1-1.1-2.9-1.9c-0.8-0.8-1.5-1.8-2-2.8c-0.5-1.1-0.7-2.3-0.7-3.5c0-1.3,0.2-2.4,0.7-3.5
			c0.5-1.1,1.2-2,2-2.8c0.9-0.8,1.8-1.4,2.9-1.9C142.3,93.2,143.6,93,144.9,93z M182.1,93c1.3,0,2.4,0.2,3.5,0.7
			c1.2,0.5,2.1,1.1,2.9,1.9c0.9,0.8,1.5,1.8,2,2.8c0.5,1.1,0.8,2.3,0.8,3.5c0,1.3-0.3,2.4-0.8,3.5c-0.5,1.1-1.1,2-2,2.8
			c-0.8,0.8-1.8,1.4-2.9,1.9c-1.1,0.5-2.3,0.7-3.5,0.7c-1.3,0-2.6-0.2-3.7-0.7c-1.1-0.5-2.1-1.1-2.9-1.9c-0.8-0.8-1.5-1.8-2-2.8
			c-0.5-1.1-0.7-2.3-0.7-3.5c0-1.3,0.2-2.4,0.7-3.5c0.5-1.1,1.2-2,2-2.8c0.9-0.8,1.8-1.4,2.9-1.9C179.6,93.2,180.8,93,182.1,93z"/>
	</g>
	<path id="path1699" inkscape:connector-curvature="0" class="st1" d="M72,166.8c32,33.7,73.8,36.4,117.1,0.7
		C131.8,255.7,30.5,164.1,72,166.8z"/>
	<path id="path1701" inkscape:connector-curvature="0" class="st1" d="M169.9,169.8l20.6-5l-2.5,18.1
		C183.1,175.5,181.2,168.6,169.9,169.8L169.9,169.8z"/>
	<g id="g1705" transform="translate(0,10)">
		<path id="path1703" inkscape:connector-curvature="0" class="st2" d="M40.6,53.3v94.4h12.8c0.5,0.4,0.8,1,0.8,1.9
			c0,0.8-0.3,1.4-0.9,1.9c-0.5,0.5-1.3,0.8-2.3,0.8H37c-2.9,0-4.3-2.1-4.3-6.4v-91c0-1.8,0.4-3.3,1.3-4.4c0.9-1.2,1.9-1.8,3-1.8
			h14.9c1,0,1.8,0.3,2.3,0.8c0.6,0.5,0.9,1.1,0.9,1.9c0,0.4-0.1,0.8-0.2,1.1c-0.1,0.3-0.2,0.5-0.4,0.6l-0.3,0.2H40.6z M204.3,147.7
			V53.3h-13.7c-0.5-0.4-0.8-1-0.8-1.9c0-0.8,0.3-1.4,0.8-1.9c0.6-0.5,1.4-0.8,2.4-0.8h14.9c1.1,0,2.1,0.6,3,1.8
			c0.9,1.1,1.3,2.6,1.3,4.4v91c0,4.2-1.4,6.4-4.3,6.4h-14c-1,0-1.8-0.3-2.4-0.8c-0.5-0.5-0.8-1.1-0.8-1.9c0-0.4,0.1-0.8,0.2-1.1
			c0.1-0.3,0.2-0.5,0.4-0.6l0.3-0.2L204.3,147.7z"/>
	</g>
	<g id="g1709" transform="translate(0,10)">
		<path id="path1707" inkscape:connector-curvature="0" class="st2" d="M67.1,90.5c1.3,0,2.4,0.2,3.5,0.7c1.2,0.5,2.1,1.1,2.9,1.9
			c0.9,0.8,1.5,1.8,2,2.8c0.5,1.1,0.8,2.3,0.8,3.5c0,1.3-0.3,2.4-0.8,3.5c-0.5,1.1-1.1,2-2,2.8c-0.8,0.8-1.8,1.4-2.9,1.9
			c-1.1,0.5-2.3,0.7-3.5,0.7c-1.3,0-2.6-0.2-3.7-0.7c-1.1-0.5-2.1-1.1-2.9-1.9c-0.8-0.8-1.5-1.8-2-2.8c-0.5-1.1-0.7-2.3-0.7-3.5
			c0-1.3,0.2-2.4,0.7-3.5c0.5-1.1,1.2-2,2-2.8c0.9-0.8,1.8-1.4,2.9-1.9C64.6,90.7,65.8,90.5,67.1,90.5L67.1,90.5z M104.4,90.5
			c1.3,0,2.4,0.2,3.5,0.7c1.1,0.5,2.1,1.1,2.9,1.9c0.9,0.8,1.5,1.8,2,2.8c0.5,1.1,0.8,2.3,0.8,3.5c0,1.3-0.3,2.4-0.8,3.5
			c-0.5,1.1-1.1,2-2,2.8c-0.8,0.8-1.8,1.4-2.9,1.9c-1.1,0.5-2.3,0.7-3.5,0.7c-1.3,0-2.6-0.2-3.7-0.7c-1.1-0.5-2.1-1.1-2.9-1.9
			c-0.8-0.8-1.5-1.8-2-2.8c-0.5-1.1-0.7-2.3-0.7-3.5c0-1.3,0.2-2.4,0.7-3.5c0.5-1.1,1.2-2,2-2.8c0.9-0.8,1.8-1.4,2.9-1.9
			C101.8,90.7,103.1,90.5,104.4,90.5L104.4,90.5z M141.6,90.5c1.3,0,2.4,0.2,3.5,0.7c1.2,0.5,2.1,1.1,2.9,1.9c0.9,0.8,1.5,1.8,2,2.8
			c0.5,1.1,0.8,2.3,0.8,3.5c0,1.3-0.3,2.4-0.8,3.5c-0.5,1.1-1.1,2-2,2.8c-0.8,0.8-1.8,1.4-2.9,1.9c-1.1,0.5-2.3,0.7-3.5,0.7
			c-1.3,0-2.6-0.2-3.7-0.7c-1.1-0.5-2.1-1.1-2.9-1.9c-0.8-0.8-1.5-1.8-2-2.8c-0.5-1.1-0.7-2.3-0.7-3.5c0-1.3,0.2-2.4,0.7-3.5
			c0.5-1.1,1.2-2,2-2.8c0.9-0.8,1.8-1.4,2.9-1.9C139.1,90.7,140.3,90.5,141.6,90.5z M178.9,90.5c1.3,0,2.4,0.2,3.5,0.7
			c1.2,0.5,2.1,1.1,2.9,1.9c0.9,0.8,1.5,1.8,2,2.8c0.5,1.1,0.8,2.3,0.8,3.5c0,1.3-0.3,2.4-0.8,3.5c-0.5,1.1-1.1,2-2,2.8
			c-0.8,0.8-1.8,1.4-2.9,1.9c-1.1,0.5-2.3,0.7-3.5,0.7c-1.3,0-2.6-0.2-3.7-0.7c-1.1-0.5-2.1-1.1-2.9-1.9c-0.8-0.8-1.5-1.8-2-2.8
			c-0.5-1.1-0.7-2.3-0.7-3.5c0-1.3,0.2-2.4,0.7-3.5c0.5-1.1,1.2-2,2-2.8c0.9-0.8,1.8-1.4,2.9-1.9C176.3,90.7,177.6,90.5,178.9,90.5z
			"/>
	</g>
	<path id="path1711" inkscape:connector-curvature="0" class="st3" d="M69.1,164.3c32,33.7,73.8,36.4,117.1,0.7
		C128.9,253.2,27.5,161.6,69.1,164.3z"/>
	<path id="path1713" inkscape:connector-curvature="0" class="st3" d="M166.9,167.4l20.6-5l-2.5,18.1
		C180.1,173,178.3,166.1,166.9,167.4z"/>
</g>
</svg>
