<?xml version="1.0" encoding="utf-8"?>
<!-- Generator: Adobe Illustrator 24.0.2, SVG Export Plug-In . SVG Version: 6.00 Build 0)  -->
<svg version="1.1" id="Layer_1" xmlns="http://www.w3.org/2000/svg" xmlns:xlink="http://www.w3.org/1999/xlink" x="0px" y="0px"
	 viewBox="0 0 113.4 113.4" style="enable-background:new 0 0 113.4 113.4;" xml:space="preserve">
<style type="text/css">
	.st0{fill:#FFFFFF;}
</style>
<g id="I95EYY.tif">
	<g>
		<path class="st0" d="M112.8,61.7c-0.3,2.1-0.5,4.3-0.9,6.4c-2.5,13.9-9.6,25.2-20.5,34.1c-4.9,4-10.5,6.9-16.5,9
			c-2.5,0.9-4.2-0.3-4.2-3c0-4.6,0-9.3,0-13.9c0-4.2-0.4-8.2-3.7-11.4c2.3-0.4,4.4-0.7,6.5-1.2c5.8-1.4,10.9-4,14.4-9
			c2.6-3.8,3.8-8.1,4.3-12.6c0.4-3.4,0.5-6.9-0.3-10.3c-0.8-3.3-2.3-6.3-4.5-8.9c-0.5-0.6-0.6-1-0.3-1.7c1.6-4.6,0.9-9-0.7-13.4
			c-0.1-0.3-0.6-0.5-0.9-0.6c-1.9-0.2-3.7,0.2-5.4,1c-2.8,1.3-5.6,2.9-8.4,4.2c-0.5,0.3-1.3,0.5-1.8,0.3c-8.7-2.2-17.4-2.2-26.2,0
			c-0.5,0.1-1.2,0-1.7-0.3c-3.6-2.3-7.4-4.2-11.6-5.2c-2.6-0.6-3.1-0.3-3.8,2.3c-1.2,4-1.3,8,0,12c0.1,0.3-0.1,0.8-0.3,1.1
			c-2.5,2.9-4.3,6.3-4.8,10.1c-1.1,8-0.1,15.6,4.5,22.4c2.4,3.5,6,5.6,9.9,7.2c3.2,1.3,6.6,1.9,10.1,2.4c0.1,0,0.3,0.1,0.3,0.1
			c-0.8,1.5-1.7,3-2.4,4.5c-0.2,0.5-0.4,1-0.4,1.6c0,1.3-0.8,1.8-1.9,2.1c-3,0.8-6,1.3-9,0.1c-2.4-0.9-4.1-2.7-5.3-4.8
			c-1.7-2.8-3.9-5-7.1-5.9c-1.1-0.3-2.3-0.3-3.4-0.2c-1,0.1-1.2,0.6-0.6,1.4c0.4,0.6,1,1.3,1.6,1.6c2.9,1.7,4.6,4.4,5.9,7.4
			c0.8,1.8,1.5,3.5,3,4.9c2.3,2.1,5.2,2.9,8.2,3.1c2.6,0.1,5.3,0,8.1-0.1c0,0.1,0.1,0.4,0.1,0.8c0,2.9,0.1,5.8,0.1,8.8
			c0,2.9-1.7,4.1-4.5,3.1c-11-3.8-19.8-10.2-26.6-19.2c-6-7.8-9.7-16.5-10.9-26.1c-2-15.5,1.5-29.6,11.1-42
			c8.2-10.7,19-17.6,32.3-20.6c2.7-0.6,5.4-0.8,8.1-1.2c0.4,0,0.9-0.1,1.4-0.1c1.8,0,3.5,0,5.3,0c0.5,0.1,1.1,0.1,1.6,0.2
			c3.5,0.6,7.2,0.9,10.6,1.8c11.5,3.1,21,9.4,28.5,18.6c6.4,7.9,10.5,16.8,12,26.9c0.2,1.5,0.4,3.1,0.7,4.6
			C112.8,56.6,112.8,59.2,112.8,61.7z"/>
	</g>
</g>
</svg>
