<?xml version="1.0" encoding="utf-8"?>
<!-- Generator: Adobe Illustrator 24.0.2, SVG Export Plug-In . SVG Version: 6.00 Build 0)  -->
<svg version="1.1" id="Layer_1" xmlns="http://www.w3.org/2000/svg" xmlns:xlink="http://www.w3.org/1999/xlink" x="0px" y="0px"
	 viewBox="0 0 113.4 113.4" style="enable-background:new 0 0 113.4 113.4;" xml:space="preserve">
<style type="text/css">
	.st0{fill:#FFFFFF;}
</style>
<g id="_x33_bzaCJ.tif">
	<g>
		<path class="st0" d="M0.6,103.6c0-31,0-61.9,0-92.9c0.1-0.2,0.2-0.4,0.2-0.6c0.6-2.6,1.9-4.8,3.9-6.5c1.6-1.4,3.5-2,5.5-2.5
			c31,0,61.9,0,92.9,0c0.2,0.1,0.3,0.2,0.5,0.2c2.6,0.5,4.8,1.9,6.5,3.9c1.4,1.6,2.1,3.5,2.6,5.6c0,31,0,61.9,0,92.9
			c-0.1,0.2-0.2,0.4-0.2,0.6c-0.6,2.6-1.9,4.8-3.9,6.5c-1.6,1.4-3.5,2-5.5,2.5c-31,0-61.9,0-92.9,0c-0.2-0.1-0.3-0.2-0.5-0.2
			c-2.6-0.5-4.8-1.9-6.5-3.9C1.8,107.6,1.1,105.6,0.6,103.6z M45.6,46.1c0,16.8,0,33.6,0,50.3c5.6,0,11.1,0,16.7,0
			c0-0.5,0-0.9,0-1.3c0-7,0-14,0-21c0-2.7-0.1-5.5,0.2-8.2c0.3-3.2,2.2-5.5,5-6.8c2.9-1.3,5.6-0.9,8.2,1c2.5,1.9,3.6,4.5,3.6,7.6
			c0,9.1,0,18.3,0,27.4c0,0.5,0,0.9,0,1.4c5.7,0,11.2,0,16.8,0c0-0.4,0-0.8,0-1.1c0-10.1,0-20.2,0-30.2c0-6.9-2.8-12.5-8.4-16.5
			c-6-4.3-13.5-5.2-20.2-0.6c-1.8,1.2-3.3,2.9-5,4.3c0-1.9,0-4,0-6.2C56.7,46.1,51.2,46.1,45.6,46.1z M17.5,46.1
			c0,16.8,0,33.6,0,50.3c5.6,0,11.1,0,16.6,0c0-16.8,0-33.5,0-50.3C28.6,46.1,23.1,46.1,17.5,46.1z M35.9,26.4
			c-0.1-5.5-4.2-10.1-10-10.1c-5.7,0-10.1,4.3-10.1,10c0,5.8,4.5,10,10,10C31.3,36.5,35.9,31.9,35.9,26.4z"/>
	</g>
</g>
</svg>
