<?xml version="1.0" encoding="UTF-8" standalone="no"?>
<!-- Created with Inkscape (http://www.inkscape.org/) -->

<svg
   xmlns:dc="http://purl.org/dc/elements/1.1/"
   xmlns:cc="http://creativecommons.org/ns#"
   xmlns:rdf="http://www.w3.org/1999/02/22-rdf-syntax-ns#"
   xmlns:svg="http://www.w3.org/2000/svg"
   xmlns="http://www.w3.org/2000/svg"
   xmlns:sodipodi="http://sodipodi.sourceforge.net/DTD/sodipodi-0.dtd"
   xmlns:inkscape="http://www.inkscape.org/namespaces/inkscape"
   width="250"
   height="250"
   viewBox="0 0 250 250"
   id="svg2"
   version="1.1"
   inkscape:version="0.91 r13725"
   inkscape:export-filename="/Users/Exchange-Admin/Desktop/site_brand_icon.png"
   inkscape:export-xdpi="90"
   inkscape:export-ydpi="90"
   sodipodi:docname="ra_brand_icon.svg">
  <defs
     id="defs4" />
  <sodipodi:namedview
     id="base"
     pagecolor="#a19191"
     bordercolor="#666666"
     borderopacity="1.0"
     inkscape:pageopacity="0"
     inkscape:pageshadow="2"
     inkscape:zoom="2.0775862"
     inkscape:cx="154"
     inkscape:cy="132"
     inkscape:document-units="px"
     inkscape:current-layer="layer1"
     showgrid="false"
     units="px"
     inkscape:window-width="1284"
     inkscape:window-height="684"
     inkscape:window-x="-1"
     inkscape:window-y="0"
     inkscape:window-maximized="0" />
  <metadata
     id="metadata7">
    <rdf:RDF>
      <cc:Work
         rdf:about="">
        <dc:format>image/svg+xml</dc:format>
        <dc:type
           rdf:resource="http://purl.org/dc/dcmitype/StillImage" />
        <dc:title></dc:title>
      </cc:Work>
    </rdf:RDF>
  </metadata>
  <g
     inkscape:label="Layer 1"
     inkscape:groupmode="layer"
     id="layer1"
     transform="translate(0,-802.36216)">
    <g
       style="font-style:normal;font-weight:normal;font-size:75px;line-height:125%;font-family:sans-serif;letter-spacing:0px;word-spacing:0px;fill:#000000;fill-opacity:1;stroke:none;stroke-width:1px;stroke-linecap:butt;stroke-linejoin:miter;stroke-opacity:1"
       id="text4136"
       inkscape:export-xdpi="90"
       inkscape:export-ydpi="90"
       transform="matrix(0.17359293,0,0,0.17359293,52.040707,832.82351)">
      <path
         d="m -152.64929,58.05658 0,668.125 90.624998,0 q 5.625,3.75 5.625,13.75 0,8.125 -6.25,13.125 -5.625,5.625 -16.25,5.625 l -99.374998,0 q -30.625,0 -30.625,-45 l 0,-644.375 q 0,-19.375 9.375,-31.25 9.375,-12.5 21.25,-12.5 l 105.624998,0 q 10.625,0 16.25,5.625 6.25,5 6.25,13.125 0,4.375 -1.25,8.125 -1.25,3.125 -2.5,4.375 l -1.875,1.25 -96.874998,0 z"
         style="font-style:normal;font-variant:normal;font-weight:normal;font-stretch:normal;font-size:625px;font-family:SofiaRegular;-inkscape-font-specification:SofiaRegular"
         id="path4197"
         inkscape:connector-curvature="0" />
      <path
         d="m 1005.6613,726.18158 0,-668.125 -96.87505,0 q -5.625,-3.75 -5.625,-13.75 0,-8.125 5.625,-13.125 6.25,-5.625 16.875,-5.625 l 105.62505,0 q 11.875,0 21.25,12.5 9.375,11.875 9.375,31.25 l 0,644.375 q 0,45 -30.625,45 l -99.37505,0 q -10.625,0 -16.875,-5.625 -5.625,-5 -5.625,-13.125 0,-4.375 1.25,-8.125 1.25,-3.125 2.5,-4.375 l 1.875,-1.25 90.62505,0 z"
         style="font-style:normal;font-variant:normal;font-weight:normal;font-stretch:normal;font-size:625px;font-family:SofiaRegular;-inkscape-font-specification:SofiaRegular"
         id="path4199"
         inkscape:connector-curvature="0" />
    </g>
    <g
       style="font-style:normal;font-weight:normal;font-size:75px;line-height:125%;font-family:sans-serif;letter-spacing:0px;word-spacing:0px;fill:#000000;fill-opacity:1;stroke:none;stroke-width:1px;stroke-linecap:butt;stroke-linejoin:miter;stroke-opacity:1"
       id="text4175"
       inkscape:export-xdpi="90"
       inkscape:export-ydpi="90"
       transform="matrix(0.17359293,0,0,0.17359293,52.040707,832.82351)">
      <path
         d="m 34.900925,321.27435 q 13.427734,0 25.024414,4.88282 12.207031,4.88281 20.751953,13.42773 9.155273,8.54492 14.038086,20.1416 5.493162,11.59668 5.493162,25.02442 0,13.42773 -5.493162,25.02441 -4.882813,11.59668 -14.038086,20.1416 -8.544922,8.54492 -20.751953,13.42774 -11.59668,4.88281 -25.024414,4.88281 -14.038086,0 -26.2451175,-4.88281 -11.5966797,-4.88282 -20.7519535,-13.42774 -8.544922,-8.54492 -14.038086,-20.1416 -4.882812,-11.59668 -4.882812,-25.02441 0,-13.42774 4.882812,-25.02442 5.493164,-11.59668 14.038086,-20.1416 9.1552738,-8.54492 20.7519535,-13.42773 12.2070315,-4.88282 26.2451175,-4.88282 z"
         style="font-style:normal;font-variant:normal;font-weight:300;font-stretch:normal;font-size:1250px;font-family:'Telugu MN';-inkscape-font-specification:'Telugu MN Light'"
         id="path4188"
         inkscape:connector-curvature="0" />
      <path
         d="m 298.5728,321.27435 q 13.42773,0 25.02441,4.88282 12.20703,4.88281 20.75196,13.42773 9.15527,8.54492 14.03808,20.1416 5.49317,11.59668 5.49317,25.02442 0,13.42773 -5.49317,25.02441 -4.88281,11.59668 -14.03808,20.1416 -8.54493,8.54492 -20.75196,13.42774 -11.59668,4.88281 -25.02441,4.88281 -14.03809,0 -26.24512,-4.88281 -11.59668,-4.88282 -20.75195,-13.42774 -8.54492,-8.54492 -14.03809,-20.1416 -4.88281,-11.59668 -4.88281,-25.02441 0,-13.42774 4.88281,-25.02442 5.49317,-11.59668 14.03809,-20.1416 9.15527,-8.54492 20.75195,-13.42773 12.20703,-4.88282 26.24512,-4.88282 z"
         style="font-style:normal;font-variant:normal;font-weight:300;font-stretch:normal;font-size:1250px;font-family:'Telugu MN';-inkscape-font-specification:'Telugu MN Light'"
         id="path4190"
         inkscape:connector-curvature="0" />
      <path
         d="m 562.24467,321.27435 q 13.42774,0 25.02442,4.88282 12.20703,4.88281 20.75195,13.42773 9.15528,8.54492 14.03809,20.1416 5.49316,11.59668 5.49316,25.02442 0,13.42773 -5.49316,25.02441 -4.88281,11.59668 -14.03809,20.1416 -8.54492,8.54492 -20.75195,13.42774 -11.59668,4.88281 -25.02442,4.88281 -14.03808,0 -26.24511,-4.88281 -11.59668,-4.88282 -20.75196,-13.42774 -8.54492,-8.54492 -14.03808,-20.1416 -4.88281,-11.59668 -4.88281,-25.02441 0,-13.42774 4.88281,-25.02442 5.49316,-11.59668 14.03808,-20.1416 9.15528,-8.54492 20.75196,-13.42773 12.20703,-4.88282 26.24511,-4.88282 z"
         style="font-style:normal;font-variant:normal;font-weight:300;font-stretch:normal;font-size:1250px;font-family:'Telugu MN';-inkscape-font-specification:'Telugu MN Light'"
         id="path4192"
         inkscape:connector-curvature="0" />
      <path
         d="m 825.91655,321.27435 q 13.42773,0 25.02441,4.88282 12.20703,4.88281 20.75196,13.42773 9.15527,8.54492 14.03808,20.1416 5.49317,11.59668 5.49317,25.02442 0,13.42773 -5.49317,25.02441 -4.88281,11.59668 -14.03808,20.1416 -8.54493,8.54492 -20.75196,13.42774 -11.59668,4.88281 -25.02441,4.88281 -14.03809,0 -26.24512,-4.88281 -11.59668,-4.88282 -20.75195,-13.42774 -8.54492,-8.54492 -14.03809,-20.1416 -4.88281,-11.59668 -4.88281,-25.02441 0,-13.42774 4.88281,-25.02442 5.49317,-11.59668 14.03809,-20.1416 9.15527,-8.54492 20.75195,-13.42773 12.20703,-4.88282 26.24512,-4.88282 z"
         style="font-style:normal;font-variant:normal;font-weight:300;font-stretch:normal;font-size:1250px;font-family:'Telugu MN';-inkscape-font-specification:'Telugu MN Light'"
         id="path4194"
         inkscape:connector-curvature="0" />
    </g>
    <path
       style="fill:#000000;fill-opacity:1;fill-rule:evenodd;stroke:#000000;stroke-width:1px;stroke-linecap:butt;stroke-linejoin:miter;stroke-opacity:1"
       d="m 60.133334,967.03415 c 39.264512,41.41435 90.714906,44.71135 143.904706,0.82348 C 133.60881,1076.2547 9.030922,963.67952 60.133334,967.03415 Z"
       id="path4179"
       inkscape:connector-curvature="0"
       sodipodi:nodetypes="ccc"
       inkscape:export-xdpi="90"
       inkscape:export-ydpi="90" />
    <path
       style="fill:#000000;fill-opacity:1;fill-rule:evenodd;stroke:#000000;stroke-width:1px;stroke-linecap:butt;stroke-linejoin:miter;stroke-opacity:1"
       d="m 180.36427,970.78875 25.31882,-6.0936 -3.04908,22.19983 c -6.04152,-9.19623 -8.33661,-17.6717 -22.26974,-16.10623 z"
       id="path4181"
       inkscape:connector-curvature="0"
       sodipodi:nodetypes="cccc"
       inkscape:export-xdpi="90"
       inkscape:export-ydpi="90" />
    <g
       transform="matrix(0.17359293,0,0,0.17359293,48.040707,829.82351)"
       inkscape:export-ydpi="90"
       inkscape:export-xdpi="90"
       id="g4201"
       style="font-style:normal;font-weight:normal;font-size:75px;line-height:125%;font-family:sans-serif;letter-spacing:0px;word-spacing:0px;fill:#ffffff;fill-opacity:1;stroke:none;stroke-width:1px;stroke-linecap:butt;stroke-linejoin:miter;stroke-opacity:1">
      <path
         inkscape:connector-curvature="0"
         id="path4203"
         style="font-style:normal;font-variant:normal;font-weight:normal;font-stretch:normal;font-size:625px;font-family:SofiaRegular;-inkscape-font-specification:SofiaRegular;fill:#ffffff"
         d="m -152.64929,58.05658 0,668.125 90.624998,0 q 5.625,3.75 5.625,13.75 0,8.125 -6.25,13.125 -5.625,5.625 -16.25,5.625 l -99.374998,0 q -30.625,0 -30.625,-45 l 0,-644.375 q 0,-19.375 9.375,-31.25 9.375,-12.5 21.25,-12.5 l 105.624998,0 q 10.625,0 16.25,5.625 6.25,5 6.25,13.125 0,4.375 -1.25,8.125 -1.25,3.125 -2.5,4.375 l -1.875,1.25 -96.874998,0 z" />
      <path
         inkscape:connector-curvature="0"
         id="path4205"
         style="font-style:normal;font-variant:normal;font-weight:normal;font-stretch:normal;font-size:625px;font-family:SofiaRegular;-inkscape-font-specification:SofiaRegular;fill:#ffffff"
         d="m 1005.6613,726.18158 0,-668.125 -96.87505,0 q -5.625,-3.75 -5.625,-13.75 0,-8.125 5.625,-13.125 6.25,-5.625 16.875,-5.625 l 105.62505,0 q 11.875,0 21.25,12.5 9.375,11.875 9.375,31.25 l 0,644.375 q 0,45 -30.625,45 l -99.37505,0 q -10.625,0 -16.875,-5.625 -5.625,-5 -5.625,-13.125 0,-4.375 1.25,-8.125 1.25,-3.125 2.5,-4.375 l 1.875,-1.25 90.62505,0 z" />
    </g>
    <g
       transform="matrix(0.17359293,0,0,0.17359293,48.040707,829.82351)"
       inkscape:export-ydpi="90"
       inkscape:export-xdpi="90"
       id="g4207"
       style="font-style:normal;font-weight:normal;font-size:75px;line-height:125%;font-family:sans-serif;letter-spacing:0px;word-spacing:0px;fill:#ffffff;fill-opacity:1;stroke:none;stroke-width:1px;stroke-linecap:butt;stroke-linejoin:miter;stroke-opacity:1">
      <path
         inkscape:connector-curvature="0"
         id="path4209"
         style="font-style:normal;font-variant:normal;font-weight:300;font-stretch:normal;font-size:1250px;font-family:'Telugu MN';-inkscape-font-specification:'Telugu MN Light';fill:#ffffff"
         d="m 34.900925,321.27435 q 13.427734,0 25.024414,4.88282 12.207031,4.88281 20.751953,13.42773 9.155273,8.54492 14.038086,20.1416 5.493162,11.59668 5.493162,25.02442 0,13.42773 -5.493162,25.02441 -4.882813,11.59668 -14.038086,20.1416 -8.544922,8.54492 -20.751953,13.42774 -11.59668,4.88281 -25.024414,4.88281 -14.038086,0 -26.2451175,-4.88281 -11.5966797,-4.88282 -20.7519535,-13.42774 -8.544922,-8.54492 -14.038086,-20.1416 -4.882812,-11.59668 -4.882812,-25.02441 0,-13.42774 4.882812,-25.02442 5.493164,-11.59668 14.038086,-20.1416 9.1552738,-8.54492 20.7519535,-13.42773 12.2070315,-4.88282 26.2451175,-4.88282 z" />
      <path
         inkscape:connector-curvature="0"
         id="path4211"
         style="font-style:normal;font-variant:normal;font-weight:300;font-stretch:normal;font-size:1250px;font-family:'Telugu MN';-inkscape-font-specification:'Telugu MN Light';fill:#ffffff"
         d="m 298.5728,321.27435 q 13.42773,0 25.02441,4.88282 12.20703,4.88281 20.75196,13.42773 9.15527,8.54492 14.03808,20.1416 5.49317,11.59668 5.49317,25.02442 0,13.42773 -5.49317,25.02441 -4.88281,11.59668 -14.03808,20.1416 -8.54493,8.54492 -20.75196,13.42774 -11.59668,4.88281 -25.02441,4.88281 -14.03809,0 -26.24512,-4.88281 -11.59668,-4.88282 -20.75195,-13.42774 -8.54492,-8.54492 -14.03809,-20.1416 -4.88281,-11.59668 -4.88281,-25.02441 0,-13.42774 4.88281,-25.02442 5.49317,-11.59668 14.03809,-20.1416 9.15527,-8.54492 20.75195,-13.42773 12.20703,-4.88282 26.24512,-4.88282 z" />
      <path
         inkscape:connector-curvature="0"
         id="path4213"
         style="font-style:normal;font-variant:normal;font-weight:300;font-stretch:normal;font-size:1250px;font-family:'Telugu MN';-inkscape-font-specification:'Telugu MN Light';fill:#ffffff"
         d="m 562.24467,321.27435 q 13.42774,0 25.02442,4.88282 12.20703,4.88281 20.75195,13.42773 9.15528,8.54492 14.03809,20.1416 5.49316,11.59668 5.49316,25.02442 0,13.42773 -5.49316,25.02441 -4.88281,11.59668 -14.03809,20.1416 -8.54492,8.54492 -20.75195,13.42774 -11.59668,4.88281 -25.02442,4.88281 -14.03808,0 -26.24511,-4.88281 -11.59668,-4.88282 -20.75196,-13.42774 -8.54492,-8.54492 -14.03808,-20.1416 -4.88281,-11.59668 -4.88281,-25.02441 0,-13.42774 4.88281,-25.02442 5.49316,-11.59668 14.03808,-20.1416 9.15528,-8.54492 20.75196,-13.42773 12.20703,-4.88282 26.24511,-4.88282 z" />
      <path
         inkscape:connector-curvature="0"
         id="path4215"
         style="font-style:normal;font-variant:normal;font-weight:300;font-stretch:normal;font-size:1250px;font-family:'Telugu MN';-inkscape-font-specification:'Telugu MN Light';fill:#ffffff"
         d="m 825.91655,321.27435 q 13.42773,0 25.02441,4.88282 12.20703,4.88281 20.75196,13.42773 9.15527,8.54492 14.03808,20.1416 5.49317,11.59668 5.49317,25.02442 0,13.42773 -5.49317,25.02441 -4.88281,11.59668 -14.03808,20.1416 -8.54493,8.54492 -20.75196,13.42774 -11.59668,4.88281 -25.02441,4.88281 -14.03809,0 -26.24512,-4.88281 -11.59668,-4.88282 -20.75195,-13.42774 -8.54492,-8.54492 -14.03809,-20.1416 -4.88281,-11.59668 -4.88281,-25.02441 0,-13.42774 4.88281,-25.02442 5.49317,-11.59668 14.03809,-20.1416 9.15527,-8.54492 20.75195,-13.42773 12.20703,-4.88282 26.24512,-4.88282 z" />
    </g>
    <path
       inkscape:export-ydpi="90"
       inkscape:export-xdpi="90"
       sodipodi:nodetypes="ccc"
       inkscape:connector-curvature="0"
       id="path4217"
       d="m 56.492078,964.03415 c 39.264511,41.41435 90.714912,44.71135 143.904712,0.82348 C 129.96756,1073.2547 5.3896654,960.67952 56.492078,964.03415 Z"
       style="fill:#ffffff;fill-opacity:1;fill-rule:evenodd;stroke:#000000;stroke-width:0;stroke-linecap:butt;stroke-linejoin:miter;stroke-miterlimit:4;stroke-dasharray:none;stroke-opacity:1" />
    <path
       inkscape:export-ydpi="90"
       inkscape:export-xdpi="90"
       sodipodi:nodetypes="cccc"
       inkscape:connector-curvature="0"
       id="path4219"
       d="m 176.72301,967.78875 25.31883,-6.0936 -3.04908,22.19983 c -6.04153,-9.19623 -8.33662,-17.6717 -22.26975,-16.10623 z"
       style="fill:#ffffff;fill-opacity:1;fill-rule:evenodd;stroke:#000000;stroke-width:0;stroke-linecap:butt;stroke-linejoin:miter;stroke-miterlimit:4;stroke-dasharray:none;stroke-opacity:1" />
  </g>
</svg>
