<?xml version="1.0" encoding="UTF-8" standalone="no"?>
<svg
   xmlns:dc="http://purl.org/dc/elements/1.1/"
   xmlns:cc="http://creativecommons.org/ns#"
   xmlns:rdf="http://www.w3.org/1999/02/22-rdf-syntax-ns#"
   xmlns:svg="http://www.w3.org/2000/svg"
   xmlns="http://www.w3.org/2000/svg"
   xmlns:sodipodi="http://sodipodi.sourceforge.net/DTD/sodipodi-0.dtd"
   xmlns:inkscape="http://www.inkscape.org/namespaces/inkscape"
   sodipodi:docname="ra_brand_icon_email.svg"
   inkscape:export-ydpi="90"
   inkscape:export-xdpi="90"
   inkscape:export-filename="/Applications/MAMP/htdocs/RollingArrayWebsite/src/images/ra_brand_icon_email.svg.png"
   inkscape:version="1.0beta2 (2b71d25, 2019-12-03)"
   version="1.1"
   id="svg2"
   viewBox="0 0 250 100"
   height="100"
   width="250">
  <defs
     id="defs4" />
  <sodipodi:namedview
     inkscape:document-rotation="0"
     inkscape:window-maximized="0"
     inkscape:window-y="23"
     inkscape:window-x="0"
     inkscape:window-height="684"
     inkscape:window-width="1280"
     units="px"
     showgrid="false"
     inkscape:current-layer="layer1"
     inkscape:document-units="px"
     inkscape:cy="8.720606"
     inkscape:cx="130.26305"
     inkscape:zoom="2.28"
     inkscape:pageshadow="2"
     inkscape:pageopacity="0"
     borderopacity="1.0"
     bordercolor="#666666"
     pagecolor="#a19191"
     id="base" />
  <metadata
     id="metadata7">
    <rdf:RDF>
      <cc:Work
         rdf:about="">
        <dc:format>image/svg+xml</dc:format>
        <dc:type
           rdf:resource="http://purl.org/dc/dcmitype/StillImage" />
        <dc:title></dc:title>
      </cc:Work>
    </rdf:RDF>
  </metadata>
  <g
     transform="translate(0,-802.36216)"
     id="layer1"
     inkscape:groupmode="layer"
     inkscape:label="Layer 1">
    <g
       transform="matrix(0.03781822,0,0,0.03781822,23.523837,806.15968)"
       inkscape:export-ydpi="90"
       inkscape:export-xdpi="90"
       id="text4136"
       style="font-style:normal;font-weight:normal;font-size:75px;line-height:125%;font-family:sans-serif;letter-spacing:0px;word-spacing:0px;fill:#000000;fill-opacity:1;stroke:none;stroke-width:1px;stroke-linecap:butt;stroke-linejoin:miter;stroke-opacity:1">
      <path
         inkscape:connector-curvature="0"
         id="path4197"
         style="font-style:normal;font-variant:normal;font-weight:normal;font-stretch:normal;font-size:625px;font-family:SofiaRegular;-inkscape-font-specification:SofiaRegular"
         d="m -152.64929,58.05658 v 668.125 h 90.624998 q 5.625,3.75 5.625,13.75 0,8.125 -6.25,13.125 -5.625,5.625 -16.25,5.625 h -99.374998 q -30.625,0 -30.625,-45 v -644.375 q 0,-19.375 9.375,-31.25 9.375,-12.5 21.25,-12.5 h 105.624998 q 10.625,0 16.25,5.625 6.25,5 6.25,13.125 0,4.375 -1.25,8.125 -1.25,3.125 -2.5,4.375 l -1.875,1.25 z" />
      <path
         inkscape:connector-curvature="0"
         id="path4199"
         style="font-style:normal;font-variant:normal;font-weight:normal;font-stretch:normal;font-size:625px;font-family:SofiaRegular;-inkscape-font-specification:SofiaRegular"
         d="m 1005.6613,726.18158 v -668.125 h -96.87505 q -5.625,-3.75 -5.625,-13.75 0,-8.125 5.625,-13.125 6.25,-5.625 16.875,-5.625 h 105.62505 q 11.875,0 21.25,12.5 9.375,11.875 9.375,31.25 v 644.375 q 0,45 -30.625,45 h -99.37505 q -10.625,0 -16.875,-5.625 -5.625,-5 -5.625,-13.125 0,-4.375 1.25,-8.125 1.25,-3.125 2.5,-4.375 l 1.875,-1.25 z" />
    </g>
    <g
       transform="matrix(0.03781822,0,0,0.03781822,23.523837,806.15968)"
       inkscape:export-ydpi="90"
       inkscape:export-xdpi="90"
       id="text4175"
       style="font-style:normal;font-weight:normal;font-size:75px;line-height:125%;font-family:sans-serif;letter-spacing:0px;word-spacing:0px;fill:#000000;fill-opacity:1;stroke:none;stroke-width:1px;stroke-linecap:butt;stroke-linejoin:miter;stroke-opacity:1">
      <path
         inkscape:connector-curvature="0"
         id="path4188"
         style="font-style:normal;font-variant:normal;font-weight:300;font-stretch:normal;font-size:1250px;font-family:'Telugu MN';-inkscape-font-specification:'Telugu MN Light'"
         d="m 34.900925,321.27435 q 13.427734,0 25.024414,4.88282 12.207031,4.88281 20.751953,13.42773 9.155273,8.54492 14.038086,20.1416 5.493162,11.59668 5.493162,25.02442 0,13.42773 -5.493162,25.02441 -4.882813,11.59668 -14.038086,20.1416 -8.544922,8.54492 -20.751953,13.42774 -11.59668,4.88281 -25.024414,4.88281 -14.038086,0 -26.2451175,-4.88281 -11.5966797,-4.88282 -20.7519535,-13.42774 -8.544922,-8.54492 -14.038086,-20.1416 -4.882812,-11.59668 -4.882812,-25.02441 0,-13.42774 4.882812,-25.02442 5.493164,-11.59668 14.038086,-20.1416 9.1552738,-8.54492 20.7519535,-13.42773 12.2070315,-4.88282 26.2451175,-4.88282 z" />
      <path
         inkscape:connector-curvature="0"
         id="path4190"
         style="font-style:normal;font-variant:normal;font-weight:300;font-stretch:normal;font-size:1250px;font-family:'Telugu MN';-inkscape-font-specification:'Telugu MN Light'"
         d="m 298.5728,321.27435 q 13.42773,0 25.02441,4.88282 12.20703,4.88281 20.75196,13.42773 9.15527,8.54492 14.03808,20.1416 5.49317,11.59668 5.49317,25.02442 0,13.42773 -5.49317,25.02441 -4.88281,11.59668 -14.03808,20.1416 -8.54493,8.54492 -20.75196,13.42774 -11.59668,4.88281 -25.02441,4.88281 -14.03809,0 -26.24512,-4.88281 -11.59668,-4.88282 -20.75195,-13.42774 -8.54492,-8.54492 -14.03809,-20.1416 -4.88281,-11.59668 -4.88281,-25.02441 0,-13.42774 4.88281,-25.02442 5.49317,-11.59668 14.03809,-20.1416 9.15527,-8.54492 20.75195,-13.42773 12.20703,-4.88282 26.24512,-4.88282 z" />
      <path
         inkscape:connector-curvature="0"
         id="path4192"
         style="font-style:normal;font-variant:normal;font-weight:300;font-stretch:normal;font-size:1250px;font-family:'Telugu MN';-inkscape-font-specification:'Telugu MN Light'"
         d="m 562.24467,321.27435 q 13.42774,0 25.02442,4.88282 12.20703,4.88281 20.75195,13.42773 9.15528,8.54492 14.03809,20.1416 5.49316,11.59668 5.49316,25.02442 0,13.42773 -5.49316,25.02441 -4.88281,11.59668 -14.03809,20.1416 -8.54492,8.54492 -20.75195,13.42774 -11.59668,4.88281 -25.02442,4.88281 -14.03808,0 -26.24511,-4.88281 -11.59668,-4.88282 -20.75196,-13.42774 -8.54492,-8.54492 -14.03808,-20.1416 -4.88281,-11.59668 -4.88281,-25.02441 0,-13.42774 4.88281,-25.02442 5.49316,-11.59668 14.03808,-20.1416 9.15528,-8.54492 20.75196,-13.42773 12.20703,-4.88282 26.24511,-4.88282 z" />
      <path
         inkscape:connector-curvature="0"
         id="path4194"
         style="font-style:normal;font-variant:normal;font-weight:300;font-stretch:normal;font-size:1250px;font-family:'Telugu MN';-inkscape-font-specification:'Telugu MN Light'"
         d="m 825.91655,321.27435 q 13.42773,0 25.02441,4.88282 12.20703,4.88281 20.75196,13.42773 9.15527,8.54492 14.03808,20.1416 5.49317,11.59668 5.49317,25.02442 0,13.42773 -5.49317,25.02441 -4.88281,11.59668 -14.03808,20.1416 -8.54493,8.54492 -20.75196,13.42774 -11.59668,4.88281 -25.02441,4.88281 -14.03809,0 -26.24512,-4.88281 -11.59668,-4.88282 -20.75195,-13.42774 -8.54492,-8.54492 -14.03809,-20.1416 -4.88281,-11.59668 -4.88281,-25.02441 0,-13.42774 4.88281,-25.02442 5.49317,-11.59668 14.03809,-20.1416 9.15527,-8.54492 20.75195,-13.42773 12.20703,-4.88282 26.24512,-4.88282 z" />
    </g>
    <path
       inkscape:export-ydpi="90"
       inkscape:export-xdpi="90"
       sodipodi:nodetypes="ccc"
       inkscape:connector-curvature="0"
       id="path4179"
       d="m 25.286859,835.39824 c 8.553997,9.02236 19.76277,9.74063 31.350471,0.1794 -15.343411,23.61493 -42.483425,-0.91023 -31.350471,-0.1794 z"
       style="fill:#000000;fill-opacity:1;fill-rule:evenodd;stroke:#000000;stroke-width:0.217855px;stroke-linecap:butt;stroke-linejoin:miter;stroke-opacity:1" />
    <path
       inkscape:export-ydpi="90"
       inkscape:export-xdpi="90"
       sodipodi:nodetypes="cccc"
       inkscape:connector-curvature="0"
       id="path4181"
       d="m 51.479865,836.2162 5.515845,-1.32752 -0.664255,4.83635 c -1.316182,-2.00344 -1.816177,-3.84987 -4.85159,-3.50883 z"
       style="fill:#000000;fill-opacity:1;fill-rule:evenodd;stroke:#000000;stroke-width:0.217855px;stroke-linecap:butt;stroke-linejoin:miter;stroke-opacity:1" />
    <g
       style="font-style:normal;font-weight:normal;font-size:75px;line-height:125%;font-family:sans-serif;letter-spacing:0px;word-spacing:0px;fill:#ffffff;fill-opacity:1;stroke:none;stroke-width:1px;stroke-linecap:butt;stroke-linejoin:miter;stroke-opacity:1"
       id="g4201"
       inkscape:export-xdpi="90"
       inkscape:export-ydpi="90"
       transform="matrix(0.03781822,0,0,0.03781822,22.652414,805.50612)">
      <path
         d="m -152.64929,58.05658 v 668.125 h 90.624998 q 5.625,3.75 5.625,13.75 0,8.125 -6.25,13.125 -5.625,5.625 -16.25,5.625 h -99.374998 q -30.625,0 -30.625,-45 v -644.375 q 0,-19.375 9.375,-31.25 9.375,-12.5 21.25,-12.5 h 105.624998 q 10.625,0 16.25,5.625 6.25,5 6.25,13.125 0,4.375 -1.25,8.125 -1.25,3.125 -2.5,4.375 l -1.875,1.25 z"
         style="font-style:normal;font-variant:normal;font-weight:normal;font-stretch:normal;font-size:625px;font-family:SofiaRegular;-inkscape-font-specification:SofiaRegular;fill:#ffffff"
         id="path4203"
         inkscape:connector-curvature="0" />
      <path
         d="m 1005.6613,726.18158 v -668.125 h -96.87505 q -5.625,-3.75 -5.625,-13.75 0,-8.125 5.625,-13.125 6.25,-5.625 16.875,-5.625 h 105.62505 q 11.875,0 21.25,12.5 9.375,11.875 9.375,31.25 v 644.375 q 0,45 -30.625,45 h -99.37505 q -10.625,0 -16.875,-5.625 -5.625,-5 -5.625,-13.125 0,-4.375 1.25,-8.125 1.25,-3.125 2.5,-4.375 l 1.875,-1.25 z"
         style="font-style:normal;font-variant:normal;font-weight:normal;font-stretch:normal;font-size:625px;font-family:SofiaRegular;-inkscape-font-specification:SofiaRegular;fill:#ffffff"
         id="path4205"
         inkscape:connector-curvature="0" />
    </g>
    <g
       style="font-style:normal;font-weight:normal;font-size:75px;line-height:125%;font-family:sans-serif;letter-spacing:0px;word-spacing:0px;fill:#ffffff;fill-opacity:1;stroke:none;stroke-width:1px;stroke-linecap:butt;stroke-linejoin:miter;stroke-opacity:1"
       id="g4207"
       inkscape:export-xdpi="90"
       inkscape:export-ydpi="90"
       transform="matrix(0.03781822,0,0,0.03781822,22.652414,805.50612)">
      <path
         d="m 34.900925,321.27435 q 13.427734,0 25.024414,4.88282 12.207031,4.88281 20.751953,13.42773 9.155273,8.54492 14.038086,20.1416 5.493162,11.59668 5.493162,25.02442 0,13.42773 -5.493162,25.02441 -4.882813,11.59668 -14.038086,20.1416 -8.544922,8.54492 -20.751953,13.42774 -11.59668,4.88281 -25.024414,4.88281 -14.038086,0 -26.2451175,-4.88281 -11.5966797,-4.88282 -20.7519535,-13.42774 -8.544922,-8.54492 -14.038086,-20.1416 -4.882812,-11.59668 -4.882812,-25.02441 0,-13.42774 4.882812,-25.02442 5.493164,-11.59668 14.038086,-20.1416 9.1552738,-8.54492 20.7519535,-13.42773 12.2070315,-4.88282 26.2451175,-4.88282 z"
         style="font-style:normal;font-variant:normal;font-weight:300;font-stretch:normal;font-size:1250px;font-family:'Telugu MN';-inkscape-font-specification:'Telugu MN Light';fill:#ffffff"
         id="path4209"
         inkscape:connector-curvature="0" />
      <path
         d="m 298.5728,321.27435 q 13.42773,0 25.02441,4.88282 12.20703,4.88281 20.75196,13.42773 9.15527,8.54492 14.03808,20.1416 5.49317,11.59668 5.49317,25.02442 0,13.42773 -5.49317,25.02441 -4.88281,11.59668 -14.03808,20.1416 -8.54493,8.54492 -20.75196,13.42774 -11.59668,4.88281 -25.02441,4.88281 -14.03809,0 -26.24512,-4.88281 -11.59668,-4.88282 -20.75195,-13.42774 -8.54492,-8.54492 -14.03809,-20.1416 -4.88281,-11.59668 -4.88281,-25.02441 0,-13.42774 4.88281,-25.02442 5.49317,-11.59668 14.03809,-20.1416 9.15527,-8.54492 20.75195,-13.42773 12.20703,-4.88282 26.24512,-4.88282 z"
         style="font-style:normal;font-variant:normal;font-weight:300;font-stretch:normal;font-size:1250px;font-family:'Telugu MN';-inkscape-font-specification:'Telugu MN Light';fill:#ffffff"
         id="path4211"
         inkscape:connector-curvature="0" />
      <path
         d="m 562.24467,321.27435 q 13.42774,0 25.02442,4.88282 12.20703,4.88281 20.75195,13.42773 9.15528,8.54492 14.03809,20.1416 5.49316,11.59668 5.49316,25.02442 0,13.42773 -5.49316,25.02441 -4.88281,11.59668 -14.03809,20.1416 -8.54492,8.54492 -20.75195,13.42774 -11.59668,4.88281 -25.02442,4.88281 -14.03808,0 -26.24511,-4.88281 -11.59668,-4.88282 -20.75196,-13.42774 -8.54492,-8.54492 -14.03808,-20.1416 -4.88281,-11.59668 -4.88281,-25.02441 0,-13.42774 4.88281,-25.02442 5.49316,-11.59668 14.03808,-20.1416 9.15528,-8.54492 20.75196,-13.42773 12.20703,-4.88282 26.24511,-4.88282 z"
         style="font-style:normal;font-variant:normal;font-weight:300;font-stretch:normal;font-size:1250px;font-family:'Telugu MN';-inkscape-font-specification:'Telugu MN Light';fill:#ffffff"
         id="path4213"
         inkscape:connector-curvature="0" />
      <path
         d="m 825.91655,321.27435 q 13.42773,0 25.02441,4.88282 12.20703,4.88281 20.75196,13.42773 9.15527,8.54492 14.03808,20.1416 5.49317,11.59668 5.49317,25.02442 0,13.42773 -5.49317,25.02441 -4.88281,11.59668 -14.03808,20.1416 -8.54493,8.54492 -20.75196,13.42774 -11.59668,4.88281 -25.02441,4.88281 -14.03809,0 -26.24512,-4.88281 -11.59668,-4.88282 -20.75195,-13.42774 -8.54492,-8.54492 -14.03809,-20.1416 -4.88281,-11.59668 -4.88281,-25.02441 0,-13.42774 4.88281,-25.02442 5.49317,-11.59668 14.03809,-20.1416 9.15527,-8.54492 20.75195,-13.42773 12.20703,-4.88282 26.24512,-4.88282 z"
         style="font-style:normal;font-variant:normal;font-weight:300;font-stretch:normal;font-size:1250px;font-family:'Telugu MN';-inkscape-font-specification:'Telugu MN Light';fill:#ffffff"
         id="path4215"
         inkscape:connector-curvature="0" />
    </g>
    <path
       style="fill:#ffffff;fill-opacity:1;fill-rule:evenodd;stroke:#000000;stroke-width:0;stroke-linecap:butt;stroke-linejoin:miter;stroke-miterlimit:4;stroke-dasharray:none;stroke-opacity:1"
       d="m 24.493595,834.74467 c 8.553997,9.02236 19.762761,9.74063 31.350471,0.17941 -15.34342,23.61492 -42.48343,-0.91023 -31.350471,-0.17941 z"
       id="path4217"
       inkscape:connector-curvature="0"
       sodipodi:nodetypes="ccc"
       inkscape:export-xdpi="90"
       inkscape:export-ydpi="90" />
    <path
       style="fill:#ffffff;fill-opacity:1;fill-rule:evenodd;stroke:#000000;stroke-width:0;stroke-linecap:butt;stroke-linejoin:miter;stroke-miterlimit:4;stroke-dasharray:none;stroke-opacity:1"
       d="m 50.686593,835.56263 5.515853,-1.32752 -0.664264,4.83636 c -1.316182,-2.00345 -1.816177,-3.84988 -4.851589,-3.50884 z"
       id="path4219"
       inkscape:connector-curvature="0"
       sodipodi:nodetypes="cccc"
       inkscape:export-xdpi="90"
       inkscape:export-ydpi="90" />
    <text
       id="text1465"
       y="833.26227"
       x="73.94706"
       style="font-size:26.6667px;line-height:1.25;font-family:'Ubuntu Mono';-inkscape-font-specification:'Ubuntu Mono'"
       xml:space="preserve"><tspan
         style="font-style:normal;font-variant:normal;font-weight:bold;font-stretch:normal;font-family:'Ubuntu Mono';-inkscape-font-specification:'Ubuntu Mono Bold'"
         y="833.26227"
         x="73.94706"
         id="tspan1463"
         sodipodi:role="line">RollingArray</tspan></text>
    <text
       xml:space="preserve"
       style="font-size:26.6667px;line-height:1.25;font-family:'Ubuntu Mono';-inkscape-font-specification:'Ubuntu Mono';fill:#ffffff"
       x="71.94706"
       y="831.26227"
       id="text1469"><tspan
         sodipodi:role="line"
         id="tspan1467"
         x="71.94706"
         y="831.26227"
         style="font-style:normal;font-variant:normal;font-weight:bold;font-stretch:normal;font-family:'Ubuntu Mono';-inkscape-font-specification:'Ubuntu Mono Bold';fill:#ffffff">RollingArray</tspan></text>
  </g>
</svg>
