<?xml version="1.0" encoding="UTF-8" standalone="no"?>
<!-- Created with Inkscape (http://www.inkscape.org/) -->

<svg
   xmlns:dc="http://purl.org/dc/elements/1.1/"
   xmlns:cc="http://creativecommons.org/ns#"
   xmlns:rdf="http://www.w3.org/1999/02/22-rdf-syntax-ns#"
   xmlns:svg="http://www.w3.org/2000/svg"
   xmlns="http://www.w3.org/2000/svg"
   xmlns:sodipodi="http://sodipodi.sourceforge.net/DTD/sodipodi-0.dtd"
   xmlns:inkscape="http://www.inkscape.org/namespaces/inkscape"
   width="16"
   height="16"
   viewBox="0 0 16 16"
   id="svg2"
   version="1.1"
   inkscape:version="0.91 r13725"
   inkscape:export-filename="/Users/Exchange-Admin/Desktop/favicon.png"
   inkscape:export-xdpi="90"
   inkscape:export-ydpi="90"
   sodipodi:docname="ra_fab_icon.svg">
  <defs
     id="defs4" />
  <sodipodi:namedview
     id="base"
     pagecolor="#a19191"
     bordercolor="#666666"
     borderopacity="1.0"
     inkscape:pageopacity="0"
     inkscape:pageshadow="2"
     inkscape:zoom="23.3103"
     inkscape:cx="12.073139"
     inkscape:cy="7.0572204"
     inkscape:document-units="px"
     inkscape:current-layer="layer1"
     showgrid="false"
     units="px"
     inkscape:window-width="1280"
     inkscape:window-height="684"
     inkscape:window-x="-1"
     inkscape:window-y="0"
     inkscape:window-maximized="0"
     inkscape:showpageshadow="false" />
  <metadata
     id="metadata7">
    <rdf:RDF>
      <cc:Work
         rdf:about="">
        <dc:format>image/svg+xml</dc:format>
        <dc:type
           rdf:resource="http://purl.org/dc/dcmitype/StillImage" />
        <dc:title></dc:title>
      </cc:Work>
    </rdf:RDF>
  </metadata>
  <g
     inkscape:label="Layer 1"
     inkscape:groupmode="layer"
     id="layer1"
     transform="translate(0,-1036.3622)">
    <g
       style="font-style:normal;font-weight:normal;font-size:75px;line-height:125%;font-family:sans-serif;letter-spacing:0px;word-spacing:0px;fill:#000000;fill-opacity:1;stroke:none;stroke-width:1px;stroke-linecap:butt;stroke-linejoin:miter;stroke-opacity:1"
       id="text4136"
       inkscape:export-xdpi="90"
       inkscape:export-ydpi="90"
       transform="matrix(0.01140854,0,0,0.01140854,3.1561861,1038.9554)">
      <path
         d="m -152.64929,58.05658 0,668.125 90.624998,0 q 5.625,3.75 5.625,13.75 0,8.125 -6.25,13.125 -5.625,5.625 -16.25,5.625 l -99.374998,0 q -30.625,0 -30.625,-45 l 0,-644.375 q 0,-19.375 9.375,-31.25 9.375,-12.5 21.25,-12.5 l 105.624998,0 q 10.625,0 16.25,5.625 6.25,5 6.25,13.125 0,4.375 -1.25,8.125 -1.25,3.125 -2.5,4.375 l -1.875,1.25 -96.874998,0 z"
         style="font-style:normal;font-variant:normal;font-weight:normal;font-stretch:normal;font-size:625px;font-family:SofiaRegular;-inkscape-font-specification:SofiaRegular"
         id="path4197"
         inkscape:connector-curvature="0" />
      <path
         d="m 1005.6613,726.18158 0,-668.125 -96.87505,0 q -5.625,-3.75 -5.625,-13.75 0,-8.125 5.625,-13.125 6.25,-5.625 16.875,-5.625 l 105.62505,0 q 11.875,0 21.25,12.5 9.375,11.875 9.375,31.25 l 0,644.375 q 0,45 -30.625,45 l -99.37505,0 q -10.625,0 -16.875,-5.625 -5.625,-5 -5.625,-13.125 0,-4.375 1.25,-8.125 1.25,-3.125 2.5,-4.375 l 1.875,-1.25 90.62505,0 z"
         style="font-style:normal;font-variant:normal;font-weight:normal;font-stretch:normal;font-size:625px;font-family:SofiaRegular;-inkscape-font-specification:SofiaRegular"
         id="path4199"
         inkscape:connector-curvature="0" />
    </g>
    <g
       style="font-style:normal;font-weight:normal;font-size:75px;line-height:125%;font-family:sans-serif;letter-spacing:0px;word-spacing:0px;fill:#000000;fill-opacity:1;stroke:none;stroke-width:1px;stroke-linecap:butt;stroke-linejoin:miter;stroke-opacity:1"
       id="text4175"
       inkscape:export-xdpi="90"
       inkscape:export-ydpi="90"
       transform="matrix(0.01140854,0,0,0.01140854,3.1561861,1038.9554)">
      <path
         d="m 34.900925,321.27435 q 13.427734,0 25.024414,4.88282 12.207031,4.88281 20.751953,13.42773 9.155273,8.54492 14.038086,20.1416 5.493162,11.59668 5.493162,25.02442 0,13.42773 -5.493162,25.02441 -4.882813,11.59668 -14.038086,20.1416 -8.544922,8.54492 -20.751953,13.42774 -11.59668,4.88281 -25.024414,4.88281 -14.038086,0 -26.2451175,-4.88281 -11.5966797,-4.88282 -20.7519535,-13.42774 -8.544922,-8.54492 -14.038086,-20.1416 -4.882812,-11.59668 -4.882812,-25.02441 0,-13.42774 4.882812,-25.02442 5.493164,-11.59668 14.038086,-20.1416 9.1552738,-8.54492 20.7519535,-13.42773 12.2070315,-4.88282 26.2451175,-4.88282 z"
         style="font-style:normal;font-variant:normal;font-weight:300;font-stretch:normal;font-size:1250px;font-family:'Telugu MN';-inkscape-font-specification:'Telugu MN Light'"
         id="path4188"
         inkscape:connector-curvature="0" />
      <path
         d="m 298.5728,321.27435 q 13.42773,0 25.02441,4.88282 12.20703,4.88281 20.75196,13.42773 9.15527,8.54492 14.03808,20.1416 5.49317,11.59668 5.49317,25.02442 0,13.42773 -5.49317,25.02441 -4.88281,11.59668 -14.03808,20.1416 -8.54493,8.54492 -20.75196,13.42774 -11.59668,4.88281 -25.02441,4.88281 -14.03809,0 -26.24512,-4.88281 -11.59668,-4.88282 -20.75195,-13.42774 -8.54492,-8.54492 -14.03809,-20.1416 -4.88281,-11.59668 -4.88281,-25.02441 0,-13.42774 4.88281,-25.02442 5.49317,-11.59668 14.03809,-20.1416 9.15527,-8.54492 20.75195,-13.42773 12.20703,-4.88282 26.24512,-4.88282 z"
         style="font-style:normal;font-variant:normal;font-weight:300;font-stretch:normal;font-size:1250px;font-family:'Telugu MN';-inkscape-font-specification:'Telugu MN Light'"
         id="path4190"
         inkscape:connector-curvature="0" />
      <path
         d="m 562.24467,321.27435 q 13.42774,0 25.02442,4.88282 12.20703,4.88281 20.75195,13.42773 9.15528,8.54492 14.03809,20.1416 5.49316,11.59668 5.49316,25.02442 0,13.42773 -5.49316,25.02441 -4.88281,11.59668 -14.03809,20.1416 -8.54492,8.54492 -20.75195,13.42774 -11.59668,4.88281 -25.02442,4.88281 -14.03808,0 -26.24511,-4.88281 -11.59668,-4.88282 -20.75196,-13.42774 -8.54492,-8.54492 -14.03808,-20.1416 -4.88281,-11.59668 -4.88281,-25.02441 0,-13.42774 4.88281,-25.02442 5.49316,-11.59668 14.03808,-20.1416 9.15528,-8.54492 20.75196,-13.42773 12.20703,-4.88282 26.24511,-4.88282 z"
         style="font-style:normal;font-variant:normal;font-weight:300;font-stretch:normal;font-size:1250px;font-family:'Telugu MN';-inkscape-font-specification:'Telugu MN Light'"
         id="path4192"
         inkscape:connector-curvature="0" />
      <path
         d="m 825.91655,321.27435 q 13.42773,0 25.02441,4.88282 12.20703,4.88281 20.75196,13.42773 9.15527,8.54492 14.03808,20.1416 5.49317,11.59668 5.49317,25.02442 0,13.42773 -5.49317,25.02441 -4.88281,11.59668 -14.03808,20.1416 -8.54493,8.54492 -20.75196,13.42774 -11.59668,4.88281 -25.02441,4.88281 -14.03809,0 -26.24512,-4.88281 -11.59668,-4.88282 -20.75195,-13.42774 -8.54492,-8.54492 -14.03809,-20.1416 -4.88281,-11.59668 -4.88281,-25.02441 0,-13.42774 4.88281,-25.02442 5.49317,-11.59668 14.03809,-20.1416 9.15527,-8.54492 20.75195,-13.42773 12.20703,-4.88282 26.24512,-4.88282 z"
         style="font-style:normal;font-variant:normal;font-weight:300;font-stretch:normal;font-size:1250px;font-family:'Telugu MN';-inkscape-font-specification:'Telugu MN Light'"
         id="path4194"
         inkscape:connector-curvature="0" />
    </g>
    <path
       style="fill:#000000;fill-opacity:1;fill-rule:evenodd;stroke:#000000;stroke-width:0;stroke-linecap:butt;stroke-linejoin:miter;stroke-miterlimit:4;stroke-dasharray:none;stroke-opacity:1"
       d="m 3.6880337,1047.7758 c 2.5804651,2.7217 5.9617865,2.9384 9.4574213,0.053 -4.6286105,7.1238 -12.81587323,-0.2746 -9.4574213,-0.053 z"
       id="path4179"
       inkscape:connector-curvature="0"
       sodipodi:nodetypes="ccc"
       inkscape:export-xdpi="90"
       inkscape:export-ydpi="90" />
    <path
       style="fill:#000000;fill-opacity:1;fill-rule:evenodd;stroke:#000000;stroke-width:0;stroke-linecap:butt;stroke-linejoin:miter;stroke-miterlimit:4;stroke-dasharray:none;stroke-opacity:1"
       d="m 11.589615,1048.0224 1.663954,-0.4004 -0.200386,1.459 c -0.397049,-0.6044 -0.547883,-1.1614 -1.463568,-1.0586 z"
       id="path4181"
       inkscape:connector-curvature="0"
       sodipodi:nodetypes="cccc"
       inkscape:export-xdpi="90"
       inkscape:export-ydpi="90" />
    <g
       transform="matrix(0.17359293,0,0,0.17359293,48.040707,829.82351)"
       inkscape:export-ydpi="90"
       inkscape:export-xdpi="90"
       id="g4201"
       style="font-style:normal;font-weight:normal;font-size:75px;line-height:125%;font-family:sans-serif;letter-spacing:0px;word-spacing:0px;fill:#ffffff;fill-opacity:1;stroke:none;stroke-width:1px;stroke-linecap:butt;stroke-linejoin:miter;stroke-opacity:1" />
    <g
       transform="matrix(0.17359293,0,0,0.17359293,48.040707,829.82351)"
       inkscape:export-ydpi="90"
       inkscape:export-xdpi="90"
       id="g4207"
       style="font-style:normal;font-weight:normal;font-size:75px;line-height:125%;font-family:sans-serif;letter-spacing:0px;word-spacing:0px;fill:#ffffff;fill-opacity:1;stroke:none;stroke-width:1px;stroke-linecap:butt;stroke-linejoin:miter;stroke-opacity:1" />
  </g>
</svg>
