<?xml version="1.0" encoding="utf-8"?>
<!-- Generator: Adobe Illustrator 24.0.2, SVG Export Plug-In . SVG Version: 6.00 Build 0)  -->
<svg version="1.1" id="Layer_1" xmlns="http://www.w3.org/2000/svg" xmlns:xlink="http://www.w3.org/1999/xlink" x="0px" y="0px"
	 viewBox="0 0 113.4 113.4" style="enable-background:new 0 0 113.4 113.4;" xml:space="preserve">
<style type="text/css">
	.st0{fill:#FFFFFF;}
</style>
<g id="edPHhz_1_">
	<g>
		<path class="st0" d="M35.2,86.7c-9.9-1.2-16.5-5.9-20.1-15.2c3.2,0,6,0,8.7,0c-11.3-5.6-16.9-13-16.2-21.6
			c2.8,0.8,5.6,1.6,8.4,2.4c0.1-0.2,0.3-0.3,0.4-0.5C7.3,43.9,5.6,34.5,10.3,23C22.4,36.7,37,44.6,55,45.8c0.1-3,0-5.8,0.4-8.6
			c1.3-9.8,10.3-17.6,20.1-18c5.9-0.2,11.1,1.5,15.7,5.3c0.9,0.8,2.7,1.2,3.8,0.9c2.7-0.7,5.3-1.9,8-2.9c1.1-0.4,2.1-0.9,3.5-1.5
			c-1.7,4.9-4.8,8.2-8.3,11.1c0.1,0.2,0.2,0.4,0.3,0.5c3.4-0.9,6.8-1.8,10.2-2.7c0.2,0.2,0.3,0.3,0.5,0.5c-2.9,2.9-5.7,5.9-8.7,8.7
			c-1,1-1.7,1.8-1.7,3.3c-0.4,13.7-3.9,26.4-12,37.6c-10.3,14.2-24.1,22.7-41.6,24.9c-13.5,1.6-26.3-0.4-38.3-6.9
			c-0.9-0.5-1.7-1-2.7-1.9C15.4,96.5,25.7,93.9,35.2,86.7z"/>
	</g>
</g>
</svg>
